<svg id="Layer_1" data-name="Layer 1" xmlns="http://www.w3.org/2000/svg" xmlns:xlink="http://www.w3.org/1999/xlink" viewBox="0 0 1341.12 2321.08"><defs><style>.cls-1{fill:none;}.cls-2{clip-path:url(#clip-path);}.cls-3{fill:url(#Degradado_sin_nombre_153);}.cls-4{fill:url(#Degradado_sin_nombre_171);}.cls-5{fill:url(#linear-gradient);}.cls-6{fill:url(#linear-gradient-2);}.cls-7{fill:url(#Degradado_sin_nombre_171-2);}.cls-8{fill:url(#linear-gradient-3);}.cls-9{fill:url(#linear-gradient-4);}</style><clipPath id="clip-path" transform="translate(52.15 51.56)"><rect class="cls-1" x="-483.52" y="482.37" width="2210" height="1243.27" transform="translate(1725.48 482.52) rotate(90)"/></clipPath><linearGradient id="Degradado_sin_nombre_153" x1="-6528.01" y1="-223.98" x2="-6528.01" y2="2271.19" gradientTransform="translate(7149.49 110.8)" gradientUnits="userSpaceOnUse"><stop offset="0" stop-color="#fff"/><stop offset="0.24" stop-color="#f9f9fa"/><stop offset="0.54" stop-color="#e9eaea"/><stop offset="0.89" stop-color="#ced0d1"/><stop offset="1" stop-color="#c4c6c7"/></linearGradient><linearGradient id="Degradado_sin_nombre_171" x1="-5366.38" y1="1609.29" x2="-5391.19" y2="1630.46" gradientTransform="translate(1614.68 7632.01) rotate(90)" gradientUnits="userSpaceOnUse"><stop offset="0" stop-color="#8e0009"/><stop offset="0.21" stop-color="#94010c"/><stop offset="0.49" stop-color="#a40314"/><stop offset="0.79" stop-color="#bf0822"/><stop offset="1" stop-color="#d50b2d"/></linearGradient><linearGradient id="linear-gradient" x1="-5120.45" y1="524.24" x2="-5794.37" y2="1099.29" gradientTransform="translate(1614.68 7632.01) rotate(90)" gradientUnits="userSpaceOnUse"><stop offset="0" stop-color="#8e0009"/><stop offset="0.24" stop-color="#940008"/><stop offset="0.56" stop-color="#a40005"/><stop offset="0.92" stop-color="#bf0001"/><stop offset="1" stop-color="#c60000"/></linearGradient><linearGradient id="linear-gradient-2" x1="-52.15" y1="1153.95" x2="599.04" y2="1153.95" gradientTransform="matrix(1, 0, 0, 1, 0, 0)" xlink:href="#linear-gradient"/><linearGradient id="Degradado_sin_nombre_171-2" x1="-7254.88" y1="671.67" x2="-7947.73" y2="1262.87" xlink:href="#Degradado_sin_nombre_171"/><linearGradient id="linear-gradient-3" x1="599.04" y1="425.87" x2="1288.97" y2="425.87" gradientTransform="matrix(1, 0, 0, 1, 0, 0)" xlink:href="#linear-gradient"/><linearGradient id="linear-gradient-4" x1="-5622.28" y1="558.53" x2="-6600.54" y2="1393.27" xlink:href="#linear-gradient"/></defs><title>bg</title><g class="cls-2"><rect class="cls-3" x="-483.52" y="482.37" width="2210" height="1243.27" transform="translate(1777.63 534.08) rotate(90)"/><path class="cls-4" d="M-33.29,2269.53h31q4.55-25.62,9.4-51.12C-6.76,2235.15-20.34,2252.1-33.29,2269.53Z" transform="translate(52.15 51.56)"/><path class="cls-5" d="M1289,1705.64C819.17,1655.13,308.31,1854.76,7.1,2218.41q-4.84,25.5-9.4,51.12H1289Z" transform="translate(52.15 51.56)"/><path class="cls-6" d="M-33.29,2269.53c13-17.43,26.53-34.38,40.39-51.12,19.28-101.41,41.61-201.2,61.62-296.75C156,1445.38,319,976.13,599,595.56,343.62,455.51,117.41,267.81-52.15,38.38V2269.53Z" transform="translate(52.15 51.56)"/><path class="cls-7" d="M599,595.56c163.41-222.08,366.64-414,618-559.42a686.71,686.71,0,0,1,72-28.88V-51.56H-52.15V38.38C117.41,267.81,343.62,455.51,599,595.56Z" transform="translate(52.15 51.56)"/><path class="cls-8" d="M1289,7.26a686.71,686.71,0,0,0-72,28.88C965.68,181.57,762.45,373.48,599,595.56,813.9,713.37,1049.34,797.49,1289,844.49Z" transform="translate(52.15 51.56)"/><path class="cls-9" d="M7.1,2218.41C308.31,1854.76,819.17,1655.13,1289,1705.64V844.49C1049.34,797.49,813.9,713.37,599,595.56,319,976.13,156,1445.38,68.72,1921.66,48.71,2017.21,26.38,2117,7.1,2218.41Z" transform="translate(52.15 51.56)"/></g></svg>