<svg id="Layer_1" data-name="Layer 1" xmlns="http://www.w3.org/2000/svg" viewBox="0 0 1000 120"><defs><style>.cls-1{fill:#e59292;}.cls-2{fill:#9e302f;}</style></defs><title>Artboard 1</title><path class="cls-1" d="M292.45,12.11a8.35,8.35,0,0,1,3.06-3.77,8.24,8.24,0,0,1,4.77-1.44,8,8,0,0,1,2.86.51,8.67,8.67,0,0,1,2.42,1.39,8.47,8.47,0,0,1,1.85,2.1,8.12,8.12,0,0,1,1.06,2.62l19.2,92a9.47,9.47,0,0,1,0,4.07,10.72,10.72,0,0,1-1.52,3.63,10,10,0,0,1-2.73,2.78,9,9,0,0,1-3.66,1.49,10,10,0,0,1-4.07,0,11.14,11.14,0,0,1-3.64-1.49,10.13,10.13,0,0,1-2.78-2.68,9.09,9.09,0,0,1-1.49-3.64l-9.75-47.6-1.41-9.95-3.34,9.75L270.57,116.7H258.14L235,61l-3.08-9.3-1.47,9.5-10.16,48.46a9.31,9.31,0,0,1-1.54,3.64A10,10,0,0,1,216,116a10.8,10.8,0,0,1-3.61,1.49,10,10,0,0,1-4.07,0,9,9,0,0,1-3.66-1.49,9.82,9.82,0,0,1-2.71-2.78,10.87,10.87,0,0,1-1.49-3.63,10,10,0,0,1,0-4.07l19.65-92a8.12,8.12,0,0,1,1.06-2.62,8.58,8.58,0,0,1,4.27-3.49,8,8,0,0,1,2.86-.51A8.24,8.24,0,0,1,233,8.34a8.35,8.35,0,0,1,3.06,3.77l28.09,67.56Z"/><path class="cls-1" d="M397.42,6.24a8.62,8.62,0,0,1,3.31-3.95A9.31,9.31,0,0,1,406,.78a9.41,9.41,0,0,1,5.28,1.51,8.56,8.56,0,0,1,3.31,4l40,96.78a11.83,11.83,0,0,1,.87,4.21,9.95,9.95,0,0,1-2.94,7.3,11.43,11.43,0,0,1-3.61,2.39,9.75,9.75,0,0,1-7.91.18,10.6,10.6,0,0,1-5.78-5.81L424.48,85.61H387.12l-10.66,25.68a10.9,10.9,0,0,1-2.41,3.59,10.63,10.63,0,0,1-3.4,2.22,10.18,10.18,0,0,1-8.09-.18,10.86,10.86,0,0,1-3.58-2.39,10.35,10.35,0,0,1-2.23-3.34,9.93,9.93,0,0,1-.74-4,10.76,10.76,0,0,1,.93-4.21ZM405.8,41.1l-10.4,25h20.85Z"/><path class="cls-2" d="M490,17.77a10.75,10.75,0,0,1,.76-4.07,9.71,9.71,0,0,1,2.12-3.28,10.14,10.14,0,0,1,3.21-2.2,9.86,9.86,0,0,1,4-.81H514a78.12,78.12,0,0,1,10.28.66,45.67,45.67,0,0,1,9.3,2.17,33.25,33.25,0,0,1,7.88,4,24.65,24.65,0,0,1,6.12,6,27.32,27.32,0,0,1,3.94,8.33,39.17,39.17,0,0,1,1.39,10.94,34.11,34.11,0,0,1-1.64,10.92,29.2,29.2,0,0,1-4.6,8.69,28.66,28.66,0,0,1-7.13,6.47,34.82,34.82,0,0,1-9.23,4.14l22.8,32.49a9.6,9.6,0,0,1,1.42,3.57,11,11,0,0,1,0,3.84,10.45,10.45,0,0,1-1.36,3.61,9.17,9.17,0,0,1-6.32,4.29,10.78,10.78,0,0,1-3.84,0,10.18,10.18,0,0,1-3.62-1.39,9.39,9.39,0,0,1-2.87-2.78L510,75.12v32.49a9.32,9.32,0,0,1-.81,3.84,10.92,10.92,0,0,1-2.18,3.21,10.61,10.61,0,0,1-3.2,2.22,9.49,9.49,0,0,1-4,.84,9.16,9.16,0,0,1-3.89-.84,10.43,10.43,0,0,1-3.16-2.22,10.29,10.29,0,0,1-2.09-3.21,9.78,9.78,0,0,1-.76-3.84Zm42.6,21.52a14.26,14.26,0,0,0-1.32-6.59,9.53,9.53,0,0,0-3.53-3.84,13.84,13.84,0,0,0-5.22-1.77,43.51,43.51,0,0,0-6.3-.43h-6V52.13H517a27.83,27.83,0,0,0,5.92-.61,13.52,13.52,0,0,0,4.95-2.07,10.42,10.42,0,0,0,3.38-3.94A13.53,13.53,0,0,0,532.56,39.29Z"/><path class="cls-2" d="M601.45,116.7a9.84,9.84,0,0,1-4-.8,10.3,10.3,0,0,1-3.21-2.2,9.93,9.93,0,0,1-2.13-3.29,10.89,10.89,0,0,1-.74-4.06V17.77a10.94,10.94,0,0,1,.74-4.07,9.89,9.89,0,0,1,2.13-3.28,10.14,10.14,0,0,1,3.21-2.2,9.84,9.84,0,0,1,4-.81h42.86a9.3,9.3,0,0,1,3.77.76,9.52,9.52,0,0,1,3.11,2.09,9.74,9.74,0,0,1,2.11,3.11,9.43,9.43,0,0,1,.75,3.79A9.43,9.43,0,0,1,653.3,21,9.29,9.29,0,0,1,651.19,24a9.62,9.62,0,0,1-3.11,2.07,9.3,9.3,0,0,1-3.77.76H611.8V48h31.29a9.52,9.52,0,0,1,3.78.76,9.25,9.25,0,0,1,3.09,2.1A10,10,0,0,1,652,54a9.58,9.58,0,0,1,.77,3.79A9.2,9.2,0,0,1,652,61.4a9.54,9.54,0,0,1-2.07,3,9.75,9.75,0,0,1-3.09,2,9.52,9.52,0,0,1-3.78.76H611.8V97.45h32.71a9,9,0,0,1,3.68.76,9.53,9.53,0,0,1,3,2.1,9.77,9.77,0,0,1,2.08,3.1,9.48,9.48,0,0,1,.75,3.8,9,9,0,0,1-.75,3.66,9.26,9.26,0,0,1-2.08,3,10.07,10.07,0,0,1-3,2,9,9,0,0,1-3.68.75Z"/><path class="cls-2" d="M722.61,11.5a8.21,8.21,0,0,1,3.15-3.76,9.4,9.4,0,0,1,10,0,7.92,7.92,0,0,1,3.15,3.76L777,103.67a10.78,10.78,0,0,1,.82,4,9.51,9.51,0,0,1-.68,3.76,9.39,9.39,0,0,1-2.12,3.18,10.34,10.34,0,0,1-3.44,2.28,9.3,9.3,0,0,1-7.52.17,10.42,10.42,0,0,1-3.21-2.12,10.58,10.58,0,0,1-2.31-3.41L748.37,87.09H712.8l-10.16,24.46a10.07,10.07,0,0,1-5.52,5.53,9.62,9.62,0,0,1-3.8.71,9.79,9.79,0,0,1-3.92-.88,10.37,10.37,0,0,1-3.4-2.28,9.69,9.69,0,0,1-2.12-3.18,9,9,0,0,1-.71-3.76,10.48,10.48,0,0,1,.87-4Zm8,33.2-9.9,23.8h19.85Z"/><path class="cls-2" d="M835.91,7.41A76.34,76.34,0,0,1,852.26,9.1a62.69,62.69,0,0,1,14.38,5,54.29,54.29,0,0,1,12,8,47.75,47.75,0,0,1,9.12,10.84,51.49,51.49,0,0,1,5.78,13.49,59.87,59.87,0,0,1,2,15.91A57.42,57.42,0,0,1,893.48,78a51.64,51.64,0,0,1-5.89,13.34,49.45,49.45,0,0,1-9.19,10.79,55.58,55.58,0,0,1-12,8,63.36,63.36,0,0,1-14.34,5,74.81,74.81,0,0,1-16.15,1.69H821.22a10,10,0,0,1-4-.8,10.26,10.26,0,0,1-3.2-2.2,9.6,9.6,0,0,1-2.12-3.29,10.7,10.7,0,0,1-.75-4.06V17.77a10.75,10.75,0,0,1,.75-4.07A9.56,9.56,0,0,1,814,10.42a10.09,10.09,0,0,1,3.2-2.2,10,10,0,0,1,4-.81Zm38.91,54.87A36.74,36.74,0,0,0,872,47.58a31.61,31.61,0,0,0-8-11.17,35.78,35.78,0,0,0-12.33-7.07,49.07,49.07,0,0,0-16-2.48h-4.14V97.45h4.14A48.76,48.76,0,0,0,851.62,95a36.42,36.42,0,0,0,12.35-7,31.37,31.37,0,0,0,8-11.07A35.89,35.89,0,0,0,874.82,62.28Z"/><path class="cls-2" d="M993.47,84.82A34.75,34.75,0,0,1,991,98a30.64,30.64,0,0,1-7.18,10.74,34.1,34.1,0,0,1-11.46,7.22A41.7,41.7,0,0,1,957,118.58a52.11,52.11,0,0,1-10.55-1,51.52,51.52,0,0,1-8.7-2.53,39.52,39.52,0,0,1-6.83-3.41,43.7,43.7,0,0,1-5-3.64,11.59,11.59,0,0,1-2.77-3.33,10.17,10.17,0,0,1-1.21-3.56,8.88,8.88,0,0,1,.14-3.49,9.34,9.34,0,0,1,1.32-3.06A8.22,8.22,0,0,1,929.13,91a9.42,9.42,0,0,1,4,.3,14.88,14.88,0,0,1,4.49,2.2,27.41,27.41,0,0,0,3.08,2.43,24.2,24.2,0,0,0,4.22,2.3,30,30,0,0,0,5.37,1.69,30.69,30.69,0,0,0,6.58.66,18.32,18.32,0,0,0,7.65-1.44,15.31,15.31,0,0,0,5.14-3.67,14.21,14.21,0,0,0,2.87-5,16.9,16.9,0,0,0,.9-5.3,13,13,0,0,0-1.59-6.62,16.5,16.5,0,0,0-4.34-4.91A32.85,32.85,0,0,0,961,69.91c-2.44-1.11-5-2.21-7.76-3.28-2.23-.91-4.52-1.85-6.8-2.83a59.08,59.08,0,0,1-6.61-3.31A41.69,41.69,0,0,1,934,56.32,25.28,25.28,0,0,1,929.26,51a26.6,26.6,0,0,1-3.16-6.87A30.65,30.65,0,0,1,925,35.35a30,30,0,0,1,2.72-13.16A27.35,27.35,0,0,1,935,12.82a31.29,31.29,0,0,1,10.63-5.61A42.57,42.57,0,0,1,958.3,5.34a46.61,46.61,0,0,1,9.29.83,40.51,40.51,0,0,1,7.3,2.15,30.87,30.87,0,0,1,5.68,3A41.34,41.34,0,0,1,985,14.68a12.43,12.43,0,0,1,3,4.05,10.47,10.47,0,0,1,1,4.24,10.13,10.13,0,0,1-1.48,5.69,8,8,0,0,1-3.74,3.18,9.21,9.21,0,0,1-5,.51A12.24,12.24,0,0,1,973.39,30c-1.23-1-2.4-1.86-3.47-2.63a20.55,20.55,0,0,0-3.32-1.95,17.94,17.94,0,0,0-3.69-1.21,21.84,21.84,0,0,0-4.61-.43,19.53,19.53,0,0,0-6.06.81,10.62,10.62,0,0,0-4,2.27,8.43,8.43,0,0,0-2.26,3.46,14.06,14.06,0,0,0-.66,4.43,8.2,8.2,0,0,0,1.26,4.47,15.43,15.43,0,0,0,3.52,3.69,33.65,33.65,0,0,0,5.28,3.18c2,1,4.26,2,6.64,2.95,2.63,1.12,5.24,2.25,7.81,3.42a65,65,0,0,1,7.36,3.89,49.07,49.07,0,0,1,6.49,4.77,27.48,27.48,0,0,1,5.18,6.07,28.92,28.92,0,0,1,3.4,7.78A35.72,35.72,0,0,1,993.47,84.82Z"/><path class="cls-1" d="M151.26,39.08c-3-2-4.29-5.78-4.29-10.18s1.33-8.17,4.29-10.17V17.15H78.69v.11c-6,.58-8.48,5.54-8.48,11.64S72.74,40,78.69,40.55v.11h72.57Z"/><path class="cls-1" d="M157.55,74.36c-3-2-4.29-5.77-4.29-10.17S154.59,56,157.55,54V52.43H85v.12c-6,.57-8.48,5.54-8.48,11.64S79,75.26,85,75.83V76h72.57Z"/><path class="cls-1" d="M151.26,109.65c-3-2-4.29-5.77-4.29-10.17s1.33-8.17,4.29-10.17V87.73H78.69v.11c-6,.58-8.48,5.54-8.48,11.64s2.53,11.07,8.48,11.64v.12h72.57Z"/><path class="cls-1" d="M41.62,46.75l-.43-.43a2.28,2.28,0,0,0-2.66-.4L7.74,62.19a2.27,2.27,0,0,0,0,4L38.53,82.47a2.28,2.28,0,0,0,2.65-.39l.43-.43A2.29,2.29,0,0,0,42.28,80V48.36A2.29,2.29,0,0,0,41.62,46.75Z"/></svg>