<svg id="Layer_1" data-name="Layer 1" xmlns="http://www.w3.org/2000/svg" viewBox="0 0 777.17 136.3"><defs><style>.cls-1,.cls-3{fill:#fff;}.cls-2{fill:#f0cbb7;}.cls-3{stroke:#fff;stroke-miterlimit:10;}</style></defs><title>logo</title><path class="cls-1" d="M289,21.07a5.91,5.91,0,0,1,5.51-3.67,5.61,5.61,0,0,1,2,.36,5.85,5.85,0,0,1,1.7,1,5.76,5.76,0,0,1,1.31,1.47,5.84,5.84,0,0,1,.74,1.85L313.84,86.9a6.62,6.62,0,0,1,0,2.87,7.36,7.36,0,0,1-1.07,2.56,7,7,0,0,1-1.92,2,6.52,6.52,0,0,1-2.58,1,6.94,6.94,0,0,1-2.87,0,7.61,7.61,0,0,1-2.56-1,6.88,6.88,0,0,1-2-1.88,6.42,6.42,0,0,1-1-2.57L293,56.28l-1-7-2.35,6.87-16,38.63h-8.76L248.51,55.53,246.33,49l-1,6.7-7.16,34.14a6.61,6.61,0,0,1-1.08,2.57,6.94,6.94,0,0,1-1.94,1.88,7.39,7.39,0,0,1-2.55,1,6.89,6.89,0,0,1-2.86,0,6.62,6.62,0,0,1-2.59-1,6.82,6.82,0,0,1-1.9-2,7.52,7.52,0,0,1-1.05-2.56,7.11,7.11,0,0,1,0-2.87L238,22.06a5.63,5.63,0,0,1,.75-1.85,5.92,5.92,0,0,1,1.3-1.47,6,6,0,0,1,1.71-1,5.6,5.6,0,0,1,2-.36,5.8,5.8,0,0,1,3.37,1,5.87,5.87,0,0,1,2.15,2.65l19.8,47.6Z" transform="translate(-5.83 -13.09)"/><path class="cls-1" d="M363,16.93a6,6,0,0,1,2.34-2.78A6.55,6.55,0,0,1,369,13.09a6.64,6.64,0,0,1,3.72,1.06,6,6,0,0,1,2.33,2.78l28.16,68.2a8.09,8.09,0,0,1,.61,3,7,7,0,0,1-.5,2.78,6.92,6.92,0,0,1-1.57,2.36,7.93,7.93,0,0,1-2.54,1.68,7,7,0,0,1-2.82.66,6.91,6.91,0,0,1-2.75-.53A7.52,7.52,0,0,1,389.57,91l-7.51-18.1H355.74L348.22,91a7.5,7.5,0,0,1-4.09,4.09,7.14,7.14,0,0,1-5.7-.13,7.67,7.67,0,0,1-2.53-1.68,7.38,7.38,0,0,1-1.57-2.36,7,7,0,0,1-.52-2.78,7.6,7.6,0,0,1,.66-3ZM368.9,41.5l-7.33,17.61h14.69Z" transform="translate(-5.83 -13.09)"/><path class="cls-2" d="M428.2,25.06a7.75,7.75,0,0,1,.53-2.87,7,7,0,0,1,6.59-4.43h9.8a55.17,55.17,0,0,1,7.24.46,32.85,32.85,0,0,1,6.55,1.53,23.66,23.66,0,0,1,5.55,2.79,17.36,17.36,0,0,1,4.31,4.24,19.39,19.39,0,0,1,2.78,5.88,27.71,27.71,0,0,1,1,7.71,23.92,23.92,0,0,1-1.16,7.69,20.57,20.57,0,0,1-3.24,6.12,20.1,20.1,0,0,1-5,4.56,24.58,24.58,0,0,1-6.5,2.92l16.06,22.89a6.79,6.79,0,0,1,1,2.51,7.72,7.72,0,0,1,0,2.71,7.43,7.43,0,0,1-1,2.55,6.44,6.44,0,0,1-1.94,2,6.79,6.79,0,0,1-2.51,1,7.66,7.66,0,0,1-2.7,0,7.06,7.06,0,0,1-2.55-1,6.65,6.65,0,0,1-2-2L442.34,65.47V88.36a6.75,6.75,0,0,1-.57,2.71,7.87,7.87,0,0,1-1.54,2.26A7.51,7.51,0,0,1,438,94.9a6.71,6.71,0,0,1-2.79.58,6.59,6.59,0,0,1-2.75-.58,7.26,7.26,0,0,1-3.7-3.83,7.08,7.08,0,0,1-.53-2.71Zm30,15.16a10.06,10.06,0,0,0-.93-4.64,6.75,6.75,0,0,0-2.49-2.71,9.71,9.71,0,0,0-3.67-1.24,30,30,0,0,0-4.45-.31h-4.2v18h4.8a19.53,19.53,0,0,0,4.17-.43,9.45,9.45,0,0,0,3.49-1.46,7.27,7.27,0,0,0,2.38-2.78A9.48,9.48,0,0,0,458.22,40.22Z" transform="translate(-5.83 -13.09)"/><path class="cls-2" d="M506.77,94.77a6.91,6.91,0,0,1-2.83-.57,7,7,0,0,1-2.27-1.55,6.81,6.81,0,0,1-1.49-2.31,7.59,7.59,0,0,1-.53-2.87V25.06a7.55,7.55,0,0,1,.53-2.87,6.81,6.81,0,0,1,1.49-2.31,7,7,0,0,1,2.27-1.55,6.91,6.91,0,0,1,2.83-.57H537a6.68,6.68,0,0,1,2.66.53,6.78,6.78,0,0,1,2.19,1.48A7,7,0,0,1,543.3,22a6.76,6.76,0,0,1-1.49,7.51,6.89,6.89,0,0,1-2.19,1.46,6.52,6.52,0,0,1-2.66.53h-22.9V46.35h22a6.77,6.77,0,0,1,2.67.53A6.63,6.63,0,0,1,541,48.36a7.27,7.27,0,0,1,1.45,2.19,6.81,6.81,0,0,1,.54,2.67,6.52,6.52,0,0,1-.54,2.58A6.92,6.92,0,0,1,541,57.94a7,7,0,0,1-2.18,1.44,6.6,6.6,0,0,1-2.67.53h-22v21.3h23a6.43,6.43,0,0,1,2.6.53,6.74,6.74,0,0,1,2.13,1.48,7,7,0,0,1,1.47,2.19,6.8,6.8,0,0,1,.52,2.67,6.5,6.5,0,0,1-.52,2.58,6.64,6.64,0,0,1-1.47,2.14,7.15,7.15,0,0,1-2.13,1.44,6.43,6.43,0,0,1-2.6.53Z" transform="translate(-5.83 -13.09)"/><path class="cls-2" d="M592.14,20.64A5.71,5.71,0,0,1,594.36,18a6.6,6.6,0,0,1,7,0,5.6,5.6,0,0,1,2.22,2.65l26.82,65a7.78,7.78,0,0,1,.58,2.83,6.74,6.74,0,0,1-.48,2.65,6.49,6.49,0,0,1-1.5,2.24,7.15,7.15,0,0,1-2.42,1.6,6.38,6.38,0,0,1-2.68.63,6.64,6.64,0,0,1-2.62-.5,7.37,7.37,0,0,1-2.26-1.5,7.54,7.54,0,0,1-1.63-2.4l-7.15-17.23H585.23l-7.17,17.23a7.13,7.13,0,0,1-3.88,3.9,7,7,0,0,1-2.68.5,6.77,6.77,0,0,1-2.76-.63,7.26,7.26,0,0,1-2.4-1.6,6.91,6.91,0,0,1-1.49-2.24,6.26,6.26,0,0,1-.5-2.65,7.25,7.25,0,0,1,.61-2.83ZM597.76,44l-7,16.77h14Z" transform="translate(-5.83 -13.09)"/><path class="cls-2" d="M672,17.76A54.29,54.29,0,0,1,683.5,19a43.85,43.85,0,0,1,10.13,3.49,38.31,38.31,0,0,1,8.44,5.62,33.64,33.64,0,0,1,6.42,7.64,36,36,0,0,1,4.08,9.51A42.23,42.23,0,0,1,714,56.42a40.26,40.26,0,0,1-1.45,11,36.41,36.41,0,0,1-4.15,9.4,35,35,0,0,1-6.47,7.61,39.4,39.4,0,0,1-8.46,5.62,44.76,44.76,0,0,1-10.1,3.49A53.25,53.25,0,0,1,672,94.77H661.62a7,7,0,0,1-2.83-.57,6.9,6.9,0,0,1-2.26-1.55,6.69,6.69,0,0,1-1.5-2.31,7.59,7.59,0,0,1-.53-2.87V25.06a7.55,7.55,0,0,1,.53-2.87,6.69,6.69,0,0,1,1.5-2.31,6.9,6.9,0,0,1,2.26-1.55,7,7,0,0,1,2.83-.57Zm27.42,38.66a25.8,25.8,0,0,0-2-10.36,22.23,22.23,0,0,0-5.6-7.87,25,25,0,0,0-8.69-5,34.63,34.63,0,0,0-11.28-1.75h-2.91V81.21h2.91A34.15,34.15,0,0,0,683,79.46a25.43,25.43,0,0,0,8.71-5,22,22,0,0,0,5.63-7.79A25.31,25.31,0,0,0,699.39,56.42Z" transform="translate(-5.83 -13.09)"/><path class="cls-2" d="M783,72.31a24.63,24.63,0,0,1-1.75,9.25,21.67,21.67,0,0,1-5.06,7.57,24,24,0,0,1-8.08,5.09,29.31,29.31,0,0,1-10.79,1.87,36.93,36.93,0,0,1-13.56-2.47,28.86,28.86,0,0,1-4.82-2.41,30.61,30.61,0,0,1-3.48-2.56,8.43,8.43,0,0,1-2-2.35,7.47,7.47,0,0,1-.85-2.51,6.34,6.34,0,0,1,.1-2.46,6.81,6.81,0,0,1,.93-2.15,5.81,5.81,0,0,1,1.69-1.66,5.69,5.69,0,0,1,2.29-.85,6.77,6.77,0,0,1,2.79.21,10.29,10.29,0,0,1,3.17,1.55,19.89,19.89,0,0,0,2.16,1.71,17.7,17.7,0,0,0,3,1.62A20.73,20.73,0,0,0,752.54,83a21.66,21.66,0,0,0,4.64.46,12.84,12.84,0,0,0,5.39-1,10.75,10.75,0,0,0,3.62-2.58,10,10,0,0,0,2-3.49,12,12,0,0,0,.63-3.74,9.09,9.09,0,0,0-1.12-4.66,11.63,11.63,0,0,0-3.06-3.46,22.75,22.75,0,0,0-4.52-2.67c-1.72-.78-3.55-1.56-5.47-2.31-1.57-.64-3.18-1.31-4.8-2a39.57,39.57,0,0,1-4.65-2.33,28.26,28.26,0,0,1-4.15-2.94,18.05,18.05,0,0,1-3.33-3.75,18.94,18.94,0,0,1-2.22-4.85,21.24,21.24,0,0,1-.82-6.17,21.1,21.1,0,0,1,1.93-9.28,19.17,19.17,0,0,1,5.15-6.6,22.22,22.22,0,0,1,7.49-4,30.34,30.34,0,0,1,8.93-1.31,33.16,33.16,0,0,1,6.55.58,29.13,29.13,0,0,1,5.15,1.52,20.85,20.85,0,0,1,4,2.1A29.39,29.39,0,0,1,777,22.88a8.79,8.79,0,0,1,2.09,2.85,7.4,7.4,0,0,1,.68,3,7.12,7.12,0,0,1-1,4A5.57,5.57,0,0,1,776.12,35a6.46,6.46,0,0,1-3.52.36,8.5,8.5,0,0,1-3.75-1.66c-.86-.68-1.69-1.3-2.45-1.85a14.63,14.63,0,0,0-2.33-1.37,12.28,12.28,0,0,0-2.61-.85,14.88,14.88,0,0,0-3.25-.31,13.79,13.79,0,0,0-4.27.57,7.41,7.41,0,0,0-2.84,1.6,5.87,5.87,0,0,0-1.6,2.44A9.92,9.92,0,0,0,749,37a5.73,5.73,0,0,0,.9,3.15,10.57,10.57,0,0,0,2.47,2.6A23.92,23.92,0,0,0,756.12,45c1.44.71,3,1.4,4.69,2.09q2.78,1.17,5.5,2.4a45.45,45.45,0,0,1,5.18,2.74,33.48,33.48,0,0,1,4.57,3.37,19,19,0,0,1,3.66,4.27,20.48,20.48,0,0,1,2.39,5.48A25,25,0,0,1,783,72.31Z" transform="translate(-5.83 -13.09)"/><path class="cls-1" d="M192,45.59c-3.81-2.57-5.52-7.42-5.52-13.08S188.14,22,192,19.43v-2H98.63v.15c-7.65.74-10.91,7.12-10.91,15s3.26,14.23,10.91,15v.15H192Z" transform="translate(-5.83 -13.09)"/><path class="cls-1" d="M200,91c-3.81-2.57-5.52-7.43-5.52-13.08s1.71-10.51,5.52-13.08v-2H106.71v.15c-7.65.74-10.9,7.13-10.9,15s3.25,14.24,10.9,15V93H200Z" transform="translate(-5.83 -13.09)"/><path class="cls-1" d="M192,136.35c-3.81-2.57-5.52-7.42-5.52-13.08s1.71-10.51,5.52-13.08v-2H98.63v.15c-7.65.74-10.91,7.12-10.91,15s3.26,14.24,10.91,15v.15H192Z" transform="translate(-5.83 -13.09)"/><path class="cls-1" d="M51,55.46l-.55-.56A2.91,2.91,0,0,0,47,54.4L7.39,75.32a2.91,2.91,0,0,0,0,5.15L47,101.39a2.86,2.86,0,0,0,1.36.34,2.94,2.94,0,0,0,2-.84l.56-.55a2.91,2.91,0,0,0,.87-2.08V57.52A2.92,2.92,0,0,0,51,55.46Z" transform="translate(-5.83 -13.09)"/><line class="cls-3" x1="218.17" y1="125.46" x2="539.17" y2="125.46"/><path class="cls-2" d="M581.91,145.77c0,1.87-1.55,2.81-4.63,2.81h-8.55a10.12,10.12,0,0,1-2.1-.18,2.73,2.73,0,0,1-1.34-.66,2.44,2.44,0,0,1-.7-1.25,8.42,8.42,0,0,1-.19-2V121.9a10.41,10.41,0,0,1,.19-2.17,2.7,2.7,0,0,1,2-2.21,7.72,7.72,0,0,1,2.16-.25h8.28q4.63,0,4.63,2.89T577.08,123h-6.52v6.88h5.67q4.66,0,4.66,2.94c0,1.86-1.55,2.8-4.66,2.8h-5.67v7.21h6.72C580.36,142.84,581.91,143.81,581.91,145.77Z" transform="translate(-5.83 -13.09)"/><path class="cls-2" d="M631.54,139.37a8.51,8.51,0,0,1-2.76,6.83c-1.84,1.58-4.53,2.38-8.07,2.38H613.5a10.25,10.25,0,0,1-2.1-.18,2.78,2.78,0,0,1-1.34-.66,2.52,2.52,0,0,1-.7-1.25,8.39,8.39,0,0,1-.19-2V121.92a10.38,10.38,0,0,1,.19-2.16,3,3,0,0,1,.7-1.43,2.89,2.89,0,0,1,1.36-.78,7.59,7.59,0,0,1,2.15-.25h6q4.64,0,7,2a6.79,6.79,0,0,1,2.41,5.59,6.05,6.05,0,0,1-1.13,3.68,9.84,9.84,0,0,1-3.93,2.8,11.76,11.76,0,0,1,5.78,2.94A7.23,7.23,0,0,1,631.54,139.37Zm-8.48-13.16a3.49,3.49,0,0,0-1.13-2.76,4.49,4.49,0,0,0-3.08-1h-3.52v7.43h3.59a4.31,4.31,0,0,0,3-1A3.42,3.42,0,0,0,623.06,126.21Zm2,12.88c0-2.76-1.89-4.15-5.67-4.15h-4.08v8.35h4.21Q625.08,143.29,625.08,139.09Z" transform="translate(-5.83 -13.09)"/><path class="cls-2" d="M679.23,133q0,7.42-4.21,11.93a14.05,14.05,0,0,1-10.95,4.5,14.34,14.34,0,0,1-11-4.5q-4.2-4.5-4.2-11.93t4.2-12a14.42,14.42,0,0,1,11-4.53A14.08,14.08,0,0,1,675,121Q679.23,125.46,679.23,133Zm-6.88.06a16,16,0,0,0-.59-4.53,10.07,10.07,0,0,0-1.66-3.38,7.3,7.3,0,0,0-2.61-2.12,7.79,7.79,0,0,0-3.42-.73,7.88,7.88,0,0,0-3.46.73,7.3,7.3,0,0,0-2.63,2.14,10.14,10.14,0,0,0-1.67,3.39,15.62,15.62,0,0,0-.59,4.5,14.67,14.67,0,0,0,.59,4.35,9.81,9.81,0,0,0,1.67,3.31,7.57,7.57,0,0,0,2.63,2.12,7.75,7.75,0,0,0,3.46.75,7.57,7.57,0,0,0,3.34-.73,7.66,7.66,0,0,0,2.62-2.1,10.09,10.09,0,0,0,1.72-3.33A14.85,14.85,0,0,0,672.35,133Z" transform="translate(-5.83 -13.09)"/><path class="cls-2" d="M726.79,133q0,7.42-4.2,11.93t-11,4.5a14.31,14.31,0,0,1-11-4.5q-4.22-4.5-4.21-11.93t4.21-12a14.39,14.39,0,0,1,11-4.53,14.07,14.07,0,0,1,10.89,4.6Q726.8,125.46,726.79,133Zm-6.88.06a15.69,15.69,0,0,0-.59-4.53,10.07,10.07,0,0,0-1.66-3.38,7.3,7.3,0,0,0-2.61-2.12,7.79,7.79,0,0,0-3.42-.73,7.91,7.91,0,0,0-3.46.73,7.27,7.27,0,0,0-2.62,2.14,10,10,0,0,0-1.68,3.39,16,16,0,0,0-.59,4.5,15,15,0,0,0,.59,4.35,9.65,9.65,0,0,0,1.68,3.31,7.53,7.53,0,0,0,2.62,2.12,7.78,7.78,0,0,0,3.46.75,7.54,7.54,0,0,0,3.34-.73,7.69,7.69,0,0,0,2.63-2.1,10.07,10.07,0,0,0,1.71-3.33A14.85,14.85,0,0,0,719.91,133Z" transform="translate(-5.83 -13.09)"/><path class="cls-2" d="M770,146.1a2.5,2.5,0,0,1-.23,1.07,2.82,2.82,0,0,1-.62.87,2.88,2.88,0,0,1-.91.58,3,3,0,0,1-1.11.22,3.55,3.55,0,0,1-1.83-.53l-.46-.47-1.2-1.25-11.87-13.31v11q0,4.55-3.1,4.54t-3.06-4.54V121.54q0-4.7,3.06-4.69t3.1,4.69V131L762,119.26c.23-.24.45-.46.63-.67s.4-.43.64-.67a3.07,3.07,0,0,1,2.12-1,2.49,2.49,0,0,1,1.9.83,2.85,2.85,0,0,1,.77,2,3.38,3.38,0,0,1-.36,1.53,8.59,8.59,0,0,1-1.3,1.76l-8.15,8.61,10.07,11.22A5.35,5.35,0,0,1,770,146.1Z" transform="translate(-5.83 -13.09)"/><path class="cls-2" d="M598.93,135.46h-9.71a3,3,0,0,1-2-.76,2.3,2.3,0,0,1,0-3.6,3,3,0,0,1,2-.72h9.71a3,3,0,0,1,2.05.72,2.31,2.31,0,0,1,.83,1.82,2.27,2.27,0,0,1-.83,1.78A3,3,0,0,1,598.93,135.46Z" transform="translate(-5.83 -13.09)"/></svg>