<svg id="Layer_1" data-name="Layer 1" xmlns="http://www.w3.org/2000/svg" viewBox="0 0 222 31.33"><defs><style>.cls-1{fill:#fff;}.cls-2{fill:#fdd8c4;}</style></defs><title>Artboard 1</title><path class="cls-1" d="M71.58,6a1.64,1.64,0,0,1,.62-.76,1.61,1.61,0,0,1,1-.3,1.58,1.58,0,0,1,.58.11,1.49,1.49,0,0,1,.49.28,1.9,1.9,0,0,1,.38.42,1.78,1.78,0,0,1,.21.54L78.71,25a1.94,1.94,0,0,1,0,.83,2.12,2.12,0,0,1-.31.74,2.29,2.29,0,0,1-.55.57,1.93,1.93,0,0,1-.74.3,2.11,2.11,0,0,1-.83,0,2,2,0,0,1-.74-.3,1.9,1.9,0,0,1-.86-1.28l-2-9.68-.28-2-.68,2L67.14,27.27H64.62l-4.7-11.33-.62-1.89L59,16l-2.06,9.86a1.94,1.94,0,0,1-.31.74,1.92,1.92,0,0,1-.56.54,1.82,1.82,0,0,1-.73.3,2.06,2.06,0,0,1-.82,0,2,2,0,0,1-.75-.3,2.09,2.09,0,0,1-.54-.57,2.12,2.12,0,0,1-.31-.74,2.31,2.31,0,0,1,0-.83l4-18.71a1.81,1.81,0,0,1,.22-.54,1.86,1.86,0,0,1,.37-.42A1.6,1.6,0,0,1,58,5a1.62,1.62,0,0,1,.58-.11,1.64,1.64,0,0,1,1,.3,1.71,1.71,0,0,1,.62.76l5.69,13.74Z"/><path class="cls-1" d="M92.85,4.8A1.75,1.75,0,0,1,93.52,4a1.9,1.9,0,0,1,1.06-.3,1.94,1.94,0,0,1,1.07.3,1.81,1.81,0,0,1,.67.81l8.1,19.68a2.44,2.44,0,0,1,.17.86,2,2,0,0,1-.14.8,1.92,1.92,0,0,1-.45.68,2.38,2.38,0,0,1-1.55.68,2.13,2.13,0,0,1-.79-.15,2.33,2.33,0,0,1-.68-.46,2.19,2.19,0,0,1-.49-.72l-2.16-5.23H90.76L88.6,26.17a2,2,0,0,1-.49.72,2.05,2.05,0,0,1-1.49.61,2.28,2.28,0,0,1-.84-.19,2,2,0,0,1-.72-.49,1.92,1.92,0,0,1-.45-.68,1.81,1.81,0,0,1-.15-.8,2.25,2.25,0,0,1,.18-.86Zm1.7,7.09L92.44,17h4.22Z"/><path class="cls-2" d="M111.6,7.14a2.1,2.1,0,0,1,.58-1.49,2.23,2.23,0,0,1,.65-.45,2,2,0,0,1,.82-.16h2.82a15.8,15.8,0,0,1,2.08.13,9.76,9.76,0,0,1,1.88.44,6.87,6.87,0,0,1,1.6.81,5.13,5.13,0,0,1,1.24,1.22,5.69,5.69,0,0,1,.8,1.7,7.88,7.88,0,0,1,.28,2.22,7,7,0,0,1-.33,2.22,6,6,0,0,1-.94,1.77,5.82,5.82,0,0,1-1.44,1.31,6.92,6.92,0,0,1-1.87.85l4.62,6.61a2,2,0,0,1,.29.72,2.27,2.27,0,0,1,0,.78,1.92,1.92,0,0,1-.28.74,1.79,1.79,0,0,1-.55.58,1.88,1.88,0,0,1-.72.29,2.28,2.28,0,0,1-.78,0,2.12,2.12,0,0,1-.74-.29,1.93,1.93,0,0,1-.58-.56l-5.36-7.78v6.61a1.92,1.92,0,0,1-.17.78,2.4,2.4,0,0,1-.44.65,2,2,0,0,1-1.45.62,1.9,1.9,0,0,1-.79-.17,2,2,0,0,1-.64-.45,2.37,2.37,0,0,1-.43-.65,2.08,2.08,0,0,1-.15-.78Zm8.63,4.38a3,3,0,0,0-.26-1.34,2,2,0,0,0-.72-.78A2.83,2.83,0,0,0,118.19,9,8.53,8.53,0,0,0,116.92,9h-1.21v5.18h1.38a5.88,5.88,0,0,0,1.2-.12,2.9,2.9,0,0,0,1-.42,2.11,2.11,0,0,0,.69-.81A2.75,2.75,0,0,0,120.23,11.52Z"/><path class="cls-2" d="M134.2,27.27a2,2,0,0,1-1.47-.62,1.84,1.84,0,0,1-.43-.66,2.31,2.31,0,0,1-.15-.83v-18a2.21,2.21,0,0,1,.15-.82,1.88,1.88,0,0,1,.43-.67A2,2,0,0,1,134.2,5h8.68a1.91,1.91,0,0,1,.76.15,1.81,1.81,0,0,1,.63.43,1.92,1.92,0,0,1,.58,1.4,2,2,0,0,1-.15.77,2,2,0,0,1-.43.63,2.1,2.1,0,0,1-.63.42,1.91,1.91,0,0,1-.76.15h-6.59v4.3h6.34a1.87,1.87,0,0,1,1.39.58,1.93,1.93,0,0,1,.42.63,2,2,0,0,1,.16.77,1.94,1.94,0,0,1-.16.75,1.85,1.85,0,0,1-.42.61,1.79,1.79,0,0,1-.62.42,2,2,0,0,1-.77.15h-6.34v6.15h6.63a1.78,1.78,0,0,1,.74.15,2.09,2.09,0,0,1,.62.43,1.93,1.93,0,0,1,.42.63,2,2,0,0,1,.15.77,1.93,1.93,0,0,1-.15.75,1.89,1.89,0,0,1-.42.62,2,2,0,0,1-.62.41,1.78,1.78,0,0,1-.74.16Z"/><path class="cls-2" d="M158.75,5.87a1.69,1.69,0,0,1,.63-.77,1.86,1.86,0,0,1,1-.29,1.82,1.82,0,0,1,1,.29,1.65,1.65,0,0,1,.64.77l7.71,18.74a2.23,2.23,0,0,1,.17.82,1.9,1.9,0,0,1-.57,1.41,2.22,2.22,0,0,1-1.46.65,1.94,1.94,0,0,1-.76-.15,2.23,2.23,0,0,1-.65-.43,2.28,2.28,0,0,1-.47-.69l-2.05-5h-7.21l-2.06,5a2.25,2.25,0,0,1-.46.69,2.14,2.14,0,0,1-.66.43,2,2,0,0,1-.77.15,2.21,2.21,0,0,1-.79-.18,2,2,0,0,1-.69-.47,2,2,0,0,1-.43-.64,1.83,1.83,0,0,1-.15-.77,2.25,2.25,0,0,1,.18-.82Zm1.61,6.75-2,4.84h4Z"/><path class="cls-2" d="M181.71,5a15.41,15.41,0,0,1,3.31.34,12.19,12.19,0,0,1,2.91,1A10.73,10.73,0,0,1,190.36,8a9.84,9.84,0,0,1,1.85,2.21A10.21,10.21,0,0,1,193.38,13a12.39,12.39,0,0,1,.41,3.24,11.59,11.59,0,0,1-.42,3.18,10.74,10.74,0,0,1-1.19,2.72,10.28,10.28,0,0,1-1.86,2.19,11,11,0,0,1-2.44,1.62,12.27,12.27,0,0,1-2.9,1,15.1,15.1,0,0,1-3.27.35h-3a2,2,0,0,1-.82-.17,2.1,2.1,0,0,1-.65-.45,2,2,0,0,1-.43-.66,2.31,2.31,0,0,1-.15-.83v-18a2.21,2.21,0,0,1,.15-.82,2,2,0,0,1,.43-.67,2.1,2.1,0,0,1,.65-.45,2,2,0,0,1,.82-.16Zm7.88,11.16a7.52,7.52,0,0,0-.57-3,6.52,6.52,0,0,0-1.61-2.28,7.24,7.24,0,0,0-2.5-1.43A9.83,9.83,0,0,0,181.67,9h-.84V23.35h.84a10,10,0,0,0,3.22-.5,7.32,7.32,0,0,0,2.5-1.44A6.3,6.3,0,0,0,189,19.16,7.24,7.24,0,0,0,189.59,16.2Z"/><path class="cls-2" d="M213.64,20.78a7,7,0,0,1-.51,2.67,6.26,6.26,0,0,1-1.45,2.19,6.92,6.92,0,0,1-2.33,1.47,8.4,8.4,0,0,1-3.1.54,10.28,10.28,0,0,1-3.9-.72,8.06,8.06,0,0,1-1.38-.69,9.51,9.51,0,0,1-1-.74,2.5,2.5,0,0,1-.56-.68,2,2,0,0,1-.24-.72,1.87,1.87,0,0,1,0-.71,2.22,2.22,0,0,1,.27-.63,1.57,1.57,0,0,1,.49-.47,1.59,1.59,0,0,1,.66-.25,1.87,1.87,0,0,1,.8.06,3.07,3.07,0,0,1,.91.45,5.84,5.84,0,0,0,.62.49,5,5,0,0,0,.86.47,6.29,6.29,0,0,0,2.42.48,3.63,3.63,0,0,0,1.55-.3,3,3,0,0,0,1-.74,2.77,2.77,0,0,0,.58-1,3.24,3.24,0,0,0,.19-1.08,2.59,2.59,0,0,0-.33-1.34,3.19,3.19,0,0,0-.88-1,6,6,0,0,0-1.3-.77c-.49-.23-1-.45-1.57-.67l-1.38-.57a12,12,0,0,1-1.34-.68,8.3,8.3,0,0,1-1.19-.85,5,5,0,0,1-1-1.08,5.63,5.63,0,0,1-.64-1.4,6.46,6.46,0,0,1-.23-1.78A6.11,6.11,0,0,1,200.3,8a5.6,5.6,0,0,1,1.48-1.9A6.59,6.59,0,0,1,203.94,5a8.73,8.73,0,0,1,2.57-.38,9.65,9.65,0,0,1,1.88.17,8.4,8.4,0,0,1,1.48.44,6.21,6.21,0,0,1,1.15.61,6.53,6.53,0,0,1,.89.69,2.47,2.47,0,0,1,.61.82,2.23,2.23,0,0,1-.11,2,1.59,1.59,0,0,1-.75.64,1.83,1.83,0,0,1-1,.11,2.44,2.44,0,0,1-1.07-.48c-.25-.2-.49-.38-.71-.53a4.23,4.23,0,0,0-.67-.4,3.48,3.48,0,0,0-.75-.25,4.36,4.36,0,0,0-.93-.08,4,4,0,0,0-1.23.16,2.09,2.09,0,0,0-.82.46,1.75,1.75,0,0,0-.46.71,2.84,2.84,0,0,0-.13.9,1.68,1.68,0,0,0,.25.91,3.17,3.17,0,0,0,.72.75,7,7,0,0,0,1.07.64c.41.21.86.41,1.34.6l1.58.7a12.56,12.56,0,0,1,1.5.79,9.65,9.65,0,0,1,1.31,1,5.61,5.61,0,0,1,1.05,1.23,6,6,0,0,1,.69,1.59A7.18,7.18,0,0,1,213.64,20.78Z"/><path class="cls-1" d="M43,11.48a2.4,2.4,0,0,1-.87-2.07A2.39,2.39,0,0,1,43,7.34V7H28.26V7c-1.21.12-1.72,1.13-1.72,2.37s.51,2.25,1.72,2.37v0H43Z"/><path class="cls-1" d="M44.24,18.65a2.37,2.37,0,0,1-.87-2.06,2.38,2.38,0,0,1,.87-2.07v-.33H29.53v0c-1.2.11-1.72,1.12-1.72,2.37s.52,2.25,1.72,2.36v0H44.24Z"/><path class="cls-1" d="M43,25.83a2.39,2.39,0,0,1-.87-2.07A2.4,2.4,0,0,1,43,21.69v-.32H28.26v0c-1.21.12-1.72,1.13-1.72,2.37s.51,2.25,1.72,2.37v0H43Z"/><path class="cls-1" d="M20.75,13,20.66,13a.47.47,0,0,0-.54-.08l-6.24,3.31a.46.46,0,0,0,0,.81l6.24,3.31a.42.42,0,0,0,.21.06.47.47,0,0,0,.33-.14l.08-.08a.47.47,0,0,0,.14-.33V13.36A.46.46,0,0,0,20.75,13Z"/></svg>