<?xml version="1.0" standalone="no"?>
<!DOCTYPE svg PUBLIC "-//W3C//DTD SVG 1.1//EN" "http://www.w3.org/Graphics/SVG/1.1/DTD/svg11.dtd">
<svg xmlns="http://www.w3.org/2000/svg">
<defs >
<font id="Kodchasan" horiz-adv-x="606" ><font-face
    font-family="Kodchasan Light"
    units-per-em="1000"
    panose-1="0 0 4 0 0 0 0 0 0 0"
    ascent="1024"
    descent="-276"
    alphabetic="0" />
<glyph unicode=" " glyph-name="space" horiz-adv-x="268" />
<glyph unicode="!" glyph-name="exclam" horiz-adv-x="271" d="M107 161T107 195L101 674Q101 691 110 700T136 710Q152 710 161 701T171 674L165 195Q165 161 136 161Q107 161 107 195ZM112 -10T96 4T80 42Q80 65 96 80T136 96Q159 96 175 81T192 42Q192 19 176
5T136 -10Q112 -10 96 4Z" />
<glyph unicode="&quot;" glyph-name="quotedbl" horiz-adv-x="329" d="M54 497T54 514Q54 521 55 525L95 681Q98 696 105 704T124 713Q127 713 135 711Q158 705 158 686Q158 679 155 671L101 513Q97 501 89 496T69 493Q54 497 54 514ZM171 497T171 514Q171 517
173 525L212 681Q220 713 242 713Q245 713 253 711Q275 704 275 687Q275 680 272 671L218 513Q214 501 206 496T187 493Q171 497 171 514Z" />
<glyph unicode="#" glyph-name="numbersign" horiz-adv-x="795" d="M743 503T743 475Q743 462 734 455T708 448H604L548 261H651Q686 261 686 233Q686 220 677 213T651 206H531L472 11Q464 -16 435 -12Q415 -8 415 12Q415 21 417 25L472 206H230L171 11Q163 -16
134 -12Q114 -8 114 12Q114 17 116 25L171 206H88Q71 206 62 213T53 233Q53 261 88 261H188L245 448H145Q128 448 119 455T110 475Q110 503 145 503H262L318 688Q320 698 327 704T346 711Q351 711 354 710Q375 707 375 687Q375 684 373 674L321 503H562L618 688Q625
711 647 711Q661 711 668 705T675 687Q675 679 673 674L621 503H708Q743 503 743 475ZM545 448H304L247 261H489L545 448Z" />
<glyph unicode="$" glyph-name="dollar" horiz-adv-x="677" d="M619 92T551 47T369 0V-78Q369 -110 342 -110Q317 -110 317 -78V2Q237 9 170 40T65 122Q59 130 59 139Q59 154 72 164Q80 169 86 169Q101 169 115 152Q150 111 202 88T317 60V332Q240 350 189 372T106
431T75 526Q75 603 137 650T317 700V797Q317 813 322 821T342 829Q369 829 369 797V699Q449 692 510 661T599 582Q604 572 604 566Q604 553 589 541Q583 538 575 538Q556 538 544 554Q521 591 477 613T369 642V384Q484 357 551 312T619 180Q619 92 551 47ZM140
486T162 461T222 422T317 395V643Q227 641 184 614T140 526Q140 486 162 461ZM554 61T554 180Q554 238 507 268T369 320V58Q554 61 554 180Z" />
<glyph unicode="%" glyph-name="percent" horiz-adv-x="739" d="M105 3T105 17Q105 28 112 36L567 698Q576 712 590 712Q600 712 609 706Q623 699 623 684Q623 676 617 665L162 2Q153 -12 136 -12Q127 -12 118 -6Q105 3 105 17ZM163 413T128 433T73 488T52 563Q52
604 72 638T128 692T204 712Q246 712 280 692T335 638T355 563Q355 522 335 488T281 434T204 413Q163 413 128 433ZM242 469T269 496T296 563Q296 603 269 630T204 658Q164 658 137 631T110 563Q110 524 137 497T204 469Q242 469 269 496ZM495 -10T460 10T405 65T384
140Q384 181 404 215T460 270T536 290Q577 290 612 270T667 216T687 140Q687 100 667 66T612 11T536 -10Q495 -10 460 10ZM574 47T601 74T628 140Q628 180 601 207T536 235Q496 235 469 208T441 140Q441 101 468 74T536 47Q574 47 601 74Z" />
<glyph unicode="&amp;" glyph-name="ampersand" horiz-adv-x="760" d="M233 -10T175 15T84 87T52 193Q52 269 98 321T234 411Q191 444 167 480T143 560Q143 630 186 670T307 710Q380 710 423 670T466 559Q466 458 338 393L547 187Q574 228 586 267T604 361Q606
376 616 383T641 389Q654 387 661 377T666 353Q649 222 594 142L697 42Q707 33 707 21Q707 10 698 1Q689 -8 677 -8Q668 -8 660 -2L558 98Q556 96 504 43T311 -10Q233 -10 175 15ZM403 481T403 560Q403 604 377 628T305 653Q259 653 233 628T207 561Q207 524 227
499T295 436Q403 481 403 560ZM375 47T428 71T514 141L284 367Q198 339 157 299T116 193Q116 151 140 118T209 66T311 47Q375 47 428 71Z" />
<glyph unicode="&apos;" glyph-name="quotesingle" horiz-adv-x="209" d="M52 497T52 514Q52 517 54 525L93 681Q101 713 123 713Q126 713 134 711Q157 704 157 686Q157 679 154 671L100 513Q96 501 88 496T68 493Q52 497 52 514Z" />
<glyph unicode="(" glyph-name="parenleft" horiz-adv-x="287" d="M213 -133T205 -133Q186 -133 173 -113Q116 -32 85 77T53 305Q53 423 84 532T173 723Q186 743 205 743Q213 743 220 739Q235 732 235 716Q235 708 229 699Q177 624 148 521T118 305Q118 189 147
85T229 -89Q235 -97 235 -106Q235 -120 220 -129Q213 -133 205 -133Z" />
<glyph unicode=")" glyph-name="parenright" horiz-adv-x="287" d="M53 -122T53 -106Q53 -97 59 -89Q111 -19 140 85T170 305Q170 417 141 520T59 699Q53 707 53 716Q53 732 68 739Q75 743 83 743Q100 743 115 723Q172 641 203 532T235 305Q235 187 204 78T115
-113Q100 -133 83 -133Q75 -133 68 -129Q53 -122 53 -106Z" />
<glyph unicode="*" glyph-name="asterisk" horiz-adv-x="452" d="M215 326T207 333T199 352V466L95 389Q88 384 80 384Q66 384 58 395Q52 403 52 413Q52 426 62 432L185 517L62 600Q52 607 52 621Q52 632 57 638Q66 650 81 650Q90 650 95 646L199 568V683Q199
694 207 700T227 707Q239 707 246 701T254 683V568L358 646Q365 651 373 651Q387 651 396 638Q401 632 401 621Q401 607 391 600L268 517L391 432Q401 426 401 413Q401 404 395 395Q386 384 373 384Q366 384 359 389L254 466V352Q254 341 247 334T227 326Q215 326
207 333Z" />
<glyph unicode="+" glyph-name="plus" horiz-adv-x="507" d="M482 279T482 251Q482 238 473 231T448 224H283V74Q283 40 254 40Q226 40 226 74V224H60Q43 224 34 231T25 251Q25 279 60 279H226V432Q226 466 254 466Q283 466 283 432V279H448Q482 279 482 251Z" />
<glyph unicode="," glyph-name="comma" horiz-adv-x="235" d="M52 -116T52 -109Q52 -99 67 -87Q126 -38 129 1Q122 -2 113 -2Q92 -2 76 13T60 49Q60 77 76 92T121 107Q150 107 167 87T184 31Q184 -5 162 -42T100 -112Q81 -128 70 -128Q63 -128 57 -121Q52 -116 52 -109Z" />
<glyph unicode="-" glyph-name="hyphen" horiz-adv-x="470" d="M70 216T61 223T52 243Q52 271 87 271H383Q418 271 418 243Q418 230 409 223T383 216H87Q70 216 61 223Z" />
<glyph unicode="." glyph-name="period" horiz-adv-x="208" d="M83 1T68 16T53 51Q53 72 68 87T105 102Q125 102 140 87T156 51Q156 31 141 16T105 1Q83 1 68 16Z" />
<glyph unicode="/" glyph-name="slash" horiz-adv-x="547" d="M52 -96T52 -79Q52 -72 55 -64L437 780Q447 799 464 799Q480 799 488 791T496 772Q496 767 492 757L110 -88Q105 -97 98 -102T81 -108Q75 -108 69 -105Q52 -96 52 -79Z" />
<glyph unicode="0" glyph-name="zero" horiz-adv-x="668" d="M248 -10T185 33T87 158T53 350Q53 462 87 543T184 667T334 710Q421 710 484 667T581 543T615 350Q615 239 582 158T485 34T334 -10Q248 -10 185 33ZM438 47T494 126T551 350Q551 496 495 575T334 654Q230
654 174 575T117 350Q117 205 173 126T334 47Q438 47 494 126Z" />
<glyph unicode="1" glyph-name="one" horiz-adv-x="369" d="M241 -10T233 -1T224 26V635L91 584Q82 581 75 581Q53 581 45 599Q42 605 42 612Q42 622 48 629T66 641L243 707Q252 710 259 710Q273 710 281 701T289 675V26Q289 9 280 0T256 -10Q241 -10 233 -1Z" />
<glyph unicode="2" glyph-name="two" horiz-adv-x="626" d="M72 0T63 8T53 30Q53 47 67 58L438 376Q473 407 488 438T504 515Q504 581 459 617T331 654Q265 654 209 629T120 560Q110 547 94 547Q84 547 74 554Q63 562 63 575Q63 587 72 597Q115 651 183 680T331
710Q402 710 456 686T539 618T569 515Q569 460 545 417T465 325L152 55H540Q557 55 565 49T574 27Q574 0 540 0H88Q72 0 63 8Z" />
<glyph unicode="3" glyph-name="three" horiz-adv-x="641" d="M243 -10T175 19T61 105Q52 116 52 127Q52 141 64 148Q73 154 83 154Q100 154 109 141Q143 96 200 72T321 47Q416 47 470 85T525 191Q525 263 487 301T375 339H262Q245 339 236 346T227 366Q227 394
262 394H375Q434 394 471 427T508 515Q508 583 461 618T326 654Q266 654 215 633T127 570Q116 558 102 558Q91 558 82 564Q70 572 70 586Q70 598 79 607Q127 658 190 684T326 710Q445 710 508 657T572 515Q572 470 545 433T467 370V368Q589 323 589 191Q589 130
555 85T460 15T321 -10Q243 -10 175 19Z" />
<glyph unicode="4" glyph-name="four" horiz-adv-x="643" d="M436 -10T428 0T420 27V166H74Q59 166 51 173T42 192Q42 202 50 213L428 697Q439 710 456 710Q468 710 476 703T484 682V221H561Q595 221 595 193Q595 180 586 173T561 166H484V27Q484 10 476 0T452
-10Q436 -10 428 0ZM421 221V595L130 221H421Z" />
<glyph unicode="5" glyph-name="five" horiz-adv-x="640" d="M239 -10T173 19T61 105Q53 116 53 127Q53 141 65 148Q74 154 84 154Q101 154 110 141Q145 95 198 71T316 47Q413 47 468 99T523 251Q523 340 469 388T328 436Q278 436 234 417T162 367Q149 352 139
346T118 340Q100 340 90 350T83 377L122 639Q126 667 146 683T200 700H521Q555 700 555 672Q555 646 521 646H215Q196 646 188 639T177 611L150 426Q188 459 236 476T337 493Q408 493 465 464T554 381T587 252Q587 174 555 115T461 23T317 -10Q239 -10 173 19Z"
/>
<glyph unicode="6" glyph-name="six" horiz-adv-x="646" d="M202 -10T127 85T52 351Q52 462 86 543T186 667T341 710Q479 710 569 630Q579 620 579 608Q579 596 568 586Q558 578 549 578Q537 578 523 589Q480 624 440 639T341 654Q230 654 173 572T116 343L118
342Q151 402 207 438T342 475Q422 475 479 444T565 358T594 236Q594 165 563 110T474 22T339 -10Q202 -10 127 85ZM427 47T478 97T530 232Q530 318 479 368T339 418Q284 418 238 393T164 323T136 227Q136 174 163 133T237 70T339 47Q427 47 478 97Z" />
<glyph unicode="7" glyph-name="seven" horiz-adv-x="579" d="M139 2T139 18Q139 27 146 41L470 646H77Q43 646 43 672Q43 700 77 700H502Q537 700 537 667Q537 648 526 629L198 8Q189 -10 171 -10Q162 -10 154 -6Q139 2 139 18Z" />
<glyph unicode="8" glyph-name="eight" horiz-adv-x="650" d="M247 -10T186 14T89 84T53 192Q53 255 93 300T203 368V369Q143 390 111 430T79 523Q79 606 142 658T325 710Q445 710 508 658T572 523Q572 470 540 430T447 369V368Q517 345 557 300T598 192Q598 130
563 85T465 15T325 -10Q247 -10 186 14ZM408 393T458 429T508 523Q508 584 461 619T325 654Q238 654 191 619T143 523Q143 465 192 429T325 393Q408 393 458 429ZM422 47T478 85T534 192Q534 262 478 301T325 340Q229 340 173 301T117 192Q117 123 173 85T325 47Q422
47 478 85Z" />
<glyph unicode="9" glyph-name="nine" horiz-adv-x="646" d="M257 -10T199 12T95 78Q85 90 85 100Q85 113 96 122Q104 129 114 129Q127 129 141 117Q182 82 225 65T321 47Q532 47 532 356L530 357Q500 293 445 258T311 222Q232 222 173 254T83 342T52 463Q52 535
83 591T174 678T315 710Q456 710 525 618T594 349Q594 175 523 83T321 -10Q257 -10 199 12ZM371 278T416 302T485 371T510 472Q510 556 457 605T315 654Q224 654 170 603T116 467Q116 382 170 330T314 278Q371 278 416 302Z" />
<glyph unicode=":" glyph-name="colon" horiz-adv-x="215" d="M84 355T69 370T54 408Q54 431 69 446T107 462Q130 462 146 446T163 408Q163 386 147 371T107 355Q84 355 69 370ZM84 9T68 24T52 63Q52 85 68 100T107 116Q130 116 146 101T163 63Q163 40 147 25T107
9Q84 9 68 24Z" />
<glyph unicode=";" glyph-name="semicolon" horiz-adv-x="227" d="M96 355T81 370T66 408Q66 431 81 446T119 462Q142 462 158 446T175 408Q175 386 159 371T119 355Q96 355 81 370ZM52 -105T52 -101Q52 -93 66 -81Q121 -36 124 0Q119 -2 109 -2Q90 -2 75 11T60
45Q60 70 75 84T117 98Q143 98 158 80T174 28Q174 -6 154 -39T97 -104Q88 -111 81 -115T69 -120Q63 -120 57 -112Q52 -105 52 -101Z" />
<glyph unicode="&lt;" glyph-name="less" horiz-adv-x="598" d="M74 219Q53 230 53 252Q53 274 74 286L493 520Q504 526 514 526Q532 526 541 511Q546 501 546 494Q546 477 527 467L131 252L527 38Q546 27 546 10Q546 3 541 -7Q531 -22 514 -22Q504 -22 493 -16L74 219Z" />
<glyph unicode="=" glyph-name="equal" horiz-adv-x="518" d="M70 293T61 300T52 320Q52 348 87 348H432Q467 348 467 320Q467 307 458 300T432 293H87Q70 293 61 300ZM70 143T61 150T52 170Q52 198 87 198H432Q467 198 467 170Q467 157 458 150T432 143H87Q70
143 61 150Z" />
<glyph unicode="&gt;" glyph-name="greater" horiz-adv-x="598" d="M95 -22T84 -22Q68 -22 57 -7Q52 3 52 10Q52 27 71 38L467 252L71 467Q62 471 57 479T52 495Q52 503 57 511Q68 526 84 526Q95 526 105 520L525 286Q545 275 545 252Q545 230 525 219L105 -16Q95
-22 84 -22Z" />
<glyph unicode="?" glyph-name="question" horiz-adv-x="568" d="M263 161T255 170T247 197V216Q247 257 262 288T300 341T358 391Q405 427 428 455T451 525Q451 585 410 619T292 653Q235 653 189 633T113 575Q100 559 82 559Q74 559 67 563Q52 573 52 587Q52
594 58 603Q96 653 157 681T292 710Q398 710 457 661T517 525Q517 487 503 458T467 408T410 361Q376 334 357 316T325 273T311 216V197Q311 180 303 171T278 161Q263 161 255 170ZM256 -10T240 4T224 42Q224 65 240 80T280 96Q304 96 320 81T336 42Q336 19 320
5T280 -10Q256 -10 240 4Z" />
<glyph unicode="@" glyph-name="at" horiz-adv-x="924" d="M321 -69T234 -24T99 107T52 308Q52 434 102 524T248 663T476 711Q592 711 681 669T821 549T872 364Q872 278 850 217T788 126T700 95Q664 95 642 112T611 161Q581 126 535 108T431 90Q334 90 287 133T239
245Q239 315 290 358T434 401Q491 401 532 385T598 343V396Q598 446 569 477T460 508Q415 508 380 497T309 465Q297 458 287 458Q278 458 271 463Q263 468 263 481Q263 495 271 501Q302 526 351 542T458 559Q559 559 607 514T655 393V190Q655 166 667 155T700 144Q748
144 779 199T810 365Q810 454 767 520T649 621T477 656Q364 656 282 615T157 494T114 304Q114 206 154 135T269 25T442 -14Q531 -14 578 5Q581 6 589 9T604 12Q614 12 621 3Q627 -6 627 -16Q627 -30 612 -39Q556 -69 439 -69Q321 -69 234 -24ZM504 140T551 169T599
251Q599 297 557 324T434 351Q366 351 331 322T296 245Q296 194 331 167T432 140Q504 140 551 169Z" />
<glyph unicode="A" glyph-name="A" horiz-adv-x="729" d="M97 -10T89 -1T81 26V425Q81 559 156 634T365 710Q498 710 573 634T649 425V26Q649 9 641 0T617 -10Q602 -10 593 -1T584 26V263H145V26Q145 9 137 0T112 -10Q97 -10 89 -1ZM584 317V428Q584 536 527 595T365
654Q258 654 202 596T145 428V317H584Z" />
<glyph unicode="B" glyph-name="B" horiz-adv-x="721" d="M148 0T116 31T83 116V585Q83 639 115 669T205 700H443Q542 700 596 651T651 511Q651 460 625 423T549 364V362Q602 343 632 301T663 202Q663 108 608 54T455 0H206Q148 0 116 31ZM453 388Q513 388 549
422T586 511Q586 577 550 611T443 646H202Q178 646 163 630T147 587V388H453ZM453 55Q524 55 561 93T598 202Q598 263 559 298T452 334H147V114Q147 88 162 72T202 55H453Z" />
<glyph unicode="C" glyph-name="C" horiz-adv-x="745" d="M299 -10T221 34T101 160T58 349Q58 456 100 538T221 665T401 710Q486 710 557 682T669 602Q677 592 677 582Q677 568 665 560Q658 554 647 554Q639 554 632 557T620 567Q588 608 531 631T401 654Q316
654 253 617T157 511T123 349Q123 256 156 188T253 84T401 47Q480 47 539 69T631 134Q643 147 658 147Q669 147 676 141Q687 131 687 118Q687 106 680 98Q639 48 564 19T401 -10Q299 -10 221 34Z" />
<glyph unicode="D" glyph-name="D" horiz-adv-x="741" d="M148 0T116 31T83 116V585Q83 639 115 669T205 700H345Q447 700 523 657T641 534T683 349Q683 244 642 165T524 43T345 0H206Q148 0 116 31ZM335 55Q469 55 543 132T618 349Q618 488 543 567T335 646H202Q177
646 162 630T147 587V114Q147 87 162 71T202 55H335Z" />
<glyph unicode="E" glyph-name="E" horiz-adv-x="629" d="M148 0T116 30T83 116V585Q83 639 115 669T205 700H515Q549 700 549 672Q549 646 515 646H202Q177 646 162 630T147 587V385H439Q473 385 473 357Q473 344 464 337T439 330H147V114Q147 87 162 71T202
55H537Q571 55 571 27Q571 14 562 7T537 0H206Q148 0 116 30Z" />
<glyph unicode="F" glyph-name="F" horiz-adv-x="607" d="M100 -10T92 -1T83 26V585Q83 639 115 669T205 700H515Q549 700 549 672Q549 646 515 646H202Q177 646 162 630T147 587V375H439Q473 375 473 347Q473 334 464 327T439 320H147V26Q147 9 139 0T115 -10Q100
-10 92 -1Z" />
<glyph unicode="G" glyph-name="G" horiz-adv-x="764" d="M300 -10T222 34T101 160T58 349Q58 457 101 539T222 665T405 710Q489 710 561 682T673 602Q680 594 680 581Q680 567 669 560Q662 554 651 554Q634 554 623 567Q593 608 536 631T405 654Q318 654 255
617T157 512T123 349Q123 256 156 188T253 84T404 47Q472 47 526 69T611 132T642 223V259Q642 288 631 300T590 312H434Q400 312 400 339Q400 353 408 360T434 367H593Q650 367 678 342T706 265V227Q706 161 666 107T557 22T404 -10Q300 -10 222 34Z" />
<glyph unicode="H" glyph-name="H" horiz-adv-x="752" d="M102 -10T94 -1T85 26V674Q85 691 93 700T117 710Q132 710 140 701T149 674V387H603V674Q603 692 612 701T636 710Q651 710 659 701T667 674V26Q667 9 659 0T636 -10Q621 -10 612 -1T603 26V332H149V26Q149
9 141 0T117 -10Q102 -10 94 -1Z" />
<glyph unicode="I" glyph-name="I" horiz-adv-x="296" d="M133 -10T125 -1T116 26V674Q116 710 148 710Q163 710 171 701T180 674V26Q180 9 172 0T148 -10Q133 -10 125 -1Z" />
<glyph unicode="J" glyph-name="J" horiz-adv-x="597" d="M216 -10T158 18T56 104Q48 115 48 124Q48 135 59 146Q67 153 79 153Q96 153 105 139Q141 90 185 69T295 48Q369 48 410 91T452 214V674Q452 710 484 710Q499 710 508 701T517 674V218Q517 152 489 100T410
19T295 -10Q216 -10 158 18Z" />
<glyph unicode="K" glyph-name="K" horiz-adv-x="683" d="M589 -11T580 -4T567 17Q538 136 470 222T282 378L150 269V26Q150 9 142 0T118 -10Q103 -10 95 -1T86 26V674Q86 691 94 700T118 710Q133 710 141 701T150 674V344L562 698Q569 705 580 705Q592 705 601
696Q610 687 610 675Q610 663 600 654L326 415Q456 338 529 243T625 28Q627 14 621 3T602 -9Q589 -11 580 -4Z" />
<glyph unicode="L" glyph-name="L" horiz-adv-x="624" d="M151 0T119 31T87 116V674Q87 691 95 700T118 710Q134 710 142 701T151 674V114Q151 87 166 71T206 55H541Q576 55 576 27Q576 14 567 7T541 0H209Q151 0 119 31Z" />
<glyph unicode="M" glyph-name="M" horiz-adv-x="982" d="M97 -10T89 -1T81 26V486Q81 591 139 650T301 710Q363 710 415 678T491 593Q514 647 565 678T681 710Q784 710 842 651T901 486V26Q901 9 893 0T869 -10Q837 -10 837 26V486Q837 569 800 611T680 653Q606
653 564 609T522 486V26Q522 9 514 0T491 -10Q476 -10 468 -1T460 26V486Q460 562 417 607T302 653Q220 653 183 611T145 486V26Q145 9 137 0T112 -10Q97 -10 89 -1Z" />
<glyph unicode="N" glyph-name="N" horiz-adv-x="737" d="M97 -10T89 -1T80 26V440Q80 566 157 638T369 710Q503 710 580 638T657 440V26Q657 -10 625 -10Q610 -10 602 -1T593 26V443Q593 543 535 598T369 654Q263 654 204 598T144 443V26Q144 9 136 0T112 -10Q97
-10 89 -1Z" />
<glyph unicode="O" glyph-name="O" horiz-adv-x="820" d="M312 -10T232 34T105 160T58 350Q58 458 104 540T231 666T410 710Q508 710 588 666T716 540T763 350Q763 242 716 161T589 35T410 -10Q312 -10 232 34ZM492 47T557 82T661 186T699 350Q699 446 661 514T557
618T410 654Q328 654 263 619T160 514T122 350Q122 255 160 187T263 83T410 47Q492 47 557 82Z" />
<glyph unicode="P" glyph-name="P" horiz-adv-x="713" d="M100 -10T92 -1T83 26V585Q83 639 115 669T205 700H375Q655 700 655 463Q655 355 584 297T378 239H147V26Q147 9 139 0T115 -10Q100 -10 92 -1ZM590 294T590 463Q590 559 538 602T380 646H202Q177 646
162 630T147 587V294H379Q590 294 590 463Z" />
<glyph unicode="Q" glyph-name="Q" horiz-adv-x="820" d="M674 -40T664 -40Q648 -40 642 -27Q615 25 603 46Q514 -10 410 -10Q312 -10 232 34T105 160T58 350Q58 458 104 540T231 666T410 710Q508 710 588 666T716 540T763 350Q763 266 733 197T650 80Q662 55
670 42L688 6Q693 -4 693 -15Q693 -29 681 -36Q674 -40 664 -40ZM240 176T295 207T416 238Q544 238 618 130Q656 169 677 225T699 350Q699 446 661 514T557 618T410 654Q328 654 263 619T160 514T122 350Q122 279 144 222T206 126Q240 176 295 207ZM503 47T574
94Q516 182 418 182Q360 182 318 157T250 91Q318 47 410 47Q503 47 574 94Z" />
<glyph unicode="R" glyph-name="R" horiz-adv-x="713" d="M81 583Q81 635 112 667T205 700H384Q657 700 657 476Q657 370 589 316T383 261L589 43Q599 33 599 21Q599 7 587 -2Q577 -10 568 -10Q552 -10 535 9L298 261H150V28Q150 10 141 0T115 -10Q99 -10 90 0T81
28V583ZM388 319Q480 319 533 354T587 476Q587 566 538 604T389 642H204Q179 642 165 626T150 584V319H388Z" />
<glyph unicode="S" glyph-name="S" horiz-adv-x="677" d="M265 -10T186 23T65 112Q59 120 59 130Q59 144 72 154Q79 159 86 159Q100 159 115 142Q154 97 217 73T360 48Q453 48 503 82T554 180Q554 234 507 267T344 326Q200 357 138 405T75 531Q75 614 144 662T332
710Q424 710 497 678T599 592Q604 582 604 575Q604 560 589 551Q583 548 575 548Q554 548 544 564Q517 607 463 630T332 653Q235 653 188 623T140 531Q140 495 159 470T222 426T345 389Q490 355 554 306T619 180Q619 92 550 41T360 -10Q265 -10 186 23Z" />
<glyph unicode="T" glyph-name="T" horiz-adv-x="700" d="M318 -10T318 26V646H82Q48 646 48 672Q48 687 56 693T82 700H619Q653 700 653 672Q653 646 619 646H383V26Q383 9 374 0T350 -10Q318 -10 318 26Z" />
<glyph unicode="U" glyph-name="U" horiz-adv-x="741" d="M233 -10T157 67T80 279V674Q80 691 88 700T112 710Q127 710 135 701T144 674V276Q144 166 202 107T369 47Q476 47 536 107T596 276V674Q596 691 605 700T629 710Q644 710 652 701T660 674V279Q660 192
625 127T523 26T366 -10Q233 -10 157 67Z" />
<glyph unicode="V" glyph-name="V" horiz-adv-x="727" d="M307 -10T271 37T204 190L61 670Q58 679 58 686Q58 710 88 710Q104 710 111 703T124 677L266 196Q290 115 312 81T364 46Q392 46 414 80T462 196L603 678Q609 697 616 703T640 710Q669 710 669 687Q669
679 666 670L523 190Q491 81 455 36T364 -10Q307 -10 271 37Z" />
<glyph unicode="W" glyph-name="W" horiz-adv-x="947" d="M231 -10T206 17T170 100L60 671Q58 681 58 685Q58 710 86 710Q105 710 112 703T123 677L231 99Q237 69 245 58T271 46Q289 46 298 58T311 99L393 620Q408 710 474 710Q539 710 554 620L636 99Q640 70
649 58T676 46Q692 46 701 58T716 99L824 677Q827 695 835 702T861 710Q889 710 889 685Q889 681 887 671L777 100Q766 46 742 18T676 -10Q597 -10 581 99L499 616Q495 637 490 645T474 654Q463 654 458 646T448 616L366 99Q350 -10 271 -10Q231 -10 206 17Z" />
<glyph unicode="X" glyph-name="X" horiz-adv-x="712" d="M655 28T655 18Q655 4 643 -4Q634 -10 626 -10Q612 -10 598 8L356 312L114 8Q101 -10 86 -10Q78 -10 69 -4Q58 4 58 18Q58 28 66 39L320 358L78 661Q71 669 71 682Q71 697 82 704Q91 710 98 710Q111 710
126 692L356 403L586 692Q600 710 614 710Q623 710 630 704Q642 697 642 682Q642 672 634 661L393 358L647 39Q655 28 655 18Z" />
<glyph unicode="Y" glyph-name="Y" horiz-adv-x="690" d="M632 710T632 674V545Q632 460 600 392T510 281T378 231V26Q378 9 370 0T345 -10Q330 -10 322 -1T314 26V230Q237 237 179 278T90 387T59 545V674Q59 691 67 700T90 710Q106 710 114 701T123 674V542Q123
421 182 354T345 286Q449 286 508 354T568 542V674Q568 691 576 700T600 710Q632 710 632 674Z" />
<glyph unicode="Z" glyph-name="Z" horiz-adv-x="703" d="M113 0T86 22T58 89Q58 125 71 148T119 199L536 543Q557 559 565 574T573 610Q573 646 530 646H113Q96 646 87 652T77 672Q77 700 113 700H535Q638 700 638 611Q638 576 625 554T577 502L159 158Q139 142
131 127T123 91Q123 55 168 55H610Q627 55 636 48T646 28Q646 0 610 0H161Q113 0 86 22Z" />
<glyph unicode="[" glyph-name="bracketleft" horiz-adv-x="324" d="M81 -197T81 -137V722Q81 782 148 782H243Q278 782 278 754Q278 728 243 728H145V-143H243Q278 -143 278 -169Q278 -197 243 -197H148Q81 -197 81 -137Z" />
<glyph unicode="\" glyph-name="backslash" horiz-adv-x="547" d="M472 -108T466 -108Q457 -108 450 -103T437 -88L55 757Q52 765 52 772Q52 790 69 796Q77 799 83 799Q101 799 110 780L492 -65Q495 -73 495 -79Q495 -97 478 -105Q472 -108 466 -108Z" />
<glyph unicode="]" glyph-name="bracketright" horiz-adv-x="324" d="M46 -197T46 -169Q46 -143 81 -143H179V728H81Q46 728 46 754Q46 782 81 782H176Q243 782 243 722V-137Q243 -197 176 -197H81Q46 -197 46 -169Z" />
<glyph unicode="^" glyph-name="asciicircum" horiz-adv-x="590" d="M53 361T53 375Q53 384 57 389L270 690Q281 706 295 706Q310 706 321 690L534 389Q538 385 538 376Q538 361 525 351Q515 344 504 344Q488 344 479 357L295 627L112 357Q101 344 86 344Q76 344
66 351Q53 361 53 375Z" />
<glyph unicode="_" glyph-name="underscore" horiz-adv-x="573" d="M71 -123T62 -116T53 -96Q53 -68 88 -68H485Q521 -68 521 -96Q521 -109 512 -116T485 -123H88Q71 -123 62 -116Z" />
<glyph unicode="`" glyph-name="grave" horiz-adv-x="223" d="M158 559T154 559Q140 559 131 574L53 712Q47 721 47 730Q47 745 65 754Q73 758 81 758Q99 758 110 732L173 592Q176 586 176 579Q176 566 164 561Q158 559 154 559Z" />
<glyph unicode="a" glyph-name="a" horiz-adv-x="578" d="M159 -10T104 33T48 153Q48 229 105 273T264 317Q325 317 373 301T445 255V324Q445 383 406 414T291 445Q197 445 126 399Q112 391 102 391Q94 391 85 397Q75 405 75 418Q75 431 85 439Q122 467 176 483T289
500Q393 500 450 453T507 320V26Q507 -10 477 -10Q463 -10 455 -1T446 25V66Q415 29 367 10T257 -10Q159 -10 104 33ZM344 45T395 76T446 159Q446 208 398 235T264 263Q190 263 151 235T111 153Q111 100 149 73T262 45Q344 45 395 76Z" />
<glyph unicode="b" glyph-name="b" horiz-adv-x="672" d="M91 -10T83 -1T75 26V723Q75 759 106 759Q137 759 137 723L138 394Q223 500 358 500Q439 500 499 469T592 381T625 245Q625 123 555 57T358 -10Q286 -10 230 17T137 99V26Q137 9 129 0T106 -10Q91 -10
83 -1ZM562 46T562 245Q562 339 507 392T355 445Q293 445 243 419T165 348T137 245Q137 152 195 99T355 46Q562 46 562 245Z" />
<glyph unicode="c" glyph-name="c" horiz-adv-x="585" d="M234 -10T174 22T81 112T48 246Q48 322 81 379T174 468T313 500Q462 500 528 419Q536 409 536 400Q536 387 523 377Q517 371 507 371Q500 371 493 374T480 384Q452 415 411 430T313 445Q216 445 164 394T111
246Q111 151 164 99T313 46Q367 46 410 61T482 107Q496 121 510 121Q520 121 527 114Q538 103 538 91Q538 81 529 72Q482 30 430 10T313 -10Q234 -10 174 22Z" />
<glyph unicode="d" glyph-name="d" horiz-adv-x="672" d="M189 -10T118 57T47 242Q47 316 78 374T170 466T316 500Q390 500 442 472T534 394L535 723Q535 759 566 759Q597 759 597 723V26Q597 9 589 0T566 -10Q551 -10 543 -1T535 26V99Q499 45 443 18T314 -10Q189
-10 118 57ZM419 46T477 99T535 245Q535 307 505 352T426 421T319 445Q220 445 165 389T110 242Q110 144 164 95T317 46Q419 46 477 99Z" />
<glyph unicode="e" glyph-name="e" horiz-adv-x="623" d="M187 -10T117 57T47 249Q47 365 118 432T314 500Q391 500 450 476T543 407T576 306Q576 266 554 243T493 220H112Q112 138 165 92T316 46Q376 46 418 59T497 104Q512 118 524 118Q532 118 539 112Q551
102 551 90Q551 80 542 71Q463 -10 316 -10Q187 -10 117 57ZM475 272Q495 272 504 280T513 309Q513 348 488 379T417 427T314 445Q219 445 166 400T113 272H475Z" />
<glyph unicode="f" glyph-name="f" horiz-adv-x="433" d="M400 691T400 679Q400 668 391 659Q383 651 373 651Q362 651 345 661Q326 673 307 678T263 683Q183 683 183 599V490H330Q364 490 364 463Q364 437 330 437H183V26Q183 -10 153 -10Q138 -10 130 -1T121
26V437H68Q33 437 33 463Q33 490 68 490H121V595Q121 660 159 699T261 739Q340 739 390 698Q400 691 400 679Z" />
<glyph unicode="g" glyph-name="g" horiz-adv-x="669" d="M262 -251T205 -231T112 -170Q105 -163 105 -154Q105 -140 119 -131Q126 -125 136 -125Q149 -125 161 -138Q184 -165 225 -181T325 -198Q427 -198 480 -151T534 -14V91Q500 45 443 15T312 -16Q184 -16
116 52T47 233Q47 310 77 370T168 465T319 500Q388 500 442 472T534 391V467Q534 481 543 490T566 500Q579 500 587 491T596 467V-14Q596 -126 524 -188T332 -251Q262 -251 205 -231ZM370 41T420 63T501 130T533 242Q533 299 508 345T436 418T322 445Q219 445 165
390T110 233Q110 145 162 93T316 41Q370 41 420 63Z" />
<glyph unicode="h" glyph-name="h" horiz-adv-x="611" d="M92 -10T84 -1T76 26V723Q76 759 107 759Q138 759 138 723V399Q175 448 228 474T344 500Q440 500 490 449T541 299V26Q541 9 533 0T509 -10Q479 -10 479 26V299Q479 373 445 409T340 445Q249 445 194 392T138
251V26Q138 9 130 0T107 -10Q92 -10 84 -1Z" />
<glyph unicode="i" glyph-name="i" horiz-adv-x="249" d="M104 611T90 624T76 657Q76 676 90 690T124 704Q143 704 158 690T173 657Q173 639 158 625T124 611Q104 611 90 624ZM109 -10T101 -1T93 26V464Q93 500 124 500Q139 500 147 491T155 464V26Q155 9 147
0T124 -10Q109 -10 101 -1Z" />
<glyph unicode="j" glyph-name="j" horiz-adv-x="326" d="M180 618T166 632T152 664Q152 682 166 696T200 710Q219 710 234 696T249 664Q249 646 234 632T200 618Q180 618 166 632ZM49 -292T41 -284T32 -263Q32 -250 40 -243T63 -236Q105 -236 127 -226T159 -192T168
-120L169 464Q169 500 200 500Q231 500 231 464L230 -120Q230 -205 193 -248T63 -292Q49 -292 41 -284Z" />
<glyph unicode="k" glyph-name="k" horiz-adv-x="574" d="M93 -10T85 -1T77 26V723Q77 759 108 759Q139 759 139 723V269L470 496Q478 502 487 502Q501 502 509 489Q514 481 514 474Q514 458 499 449L321 327Q407 270 456 196T525 25Q527 10 520 0T498 -10Q470
-10 464 15Q442 116 400 176T269 293L139 203V26Q139 9 131 0T108 -10Q93 -10 85 -1Z" />
<glyph unicode="l" glyph-name="l" horiz-adv-x="254" d="M112 -10T104 -1T96 26V723Q96 759 127 759Q158 759 158 723V26Q158 9 150 0T127 -10Q112 -10 104 -1Z" />
<glyph unicode="m" glyph-name="m" horiz-adv-x="832" d="M91 -10T83 -1T75 26V464Q75 500 106 500Q121 500 129 491T137 464V400Q165 447 208 473T301 500Q349 500 385 474T439 401Q474 449 516 474T605 500Q762 500 762 312V26Q762 9 754 0T731 -10Q700 -10
700 26V313Q700 382 678 413T601 445Q554 445 517 417T457 335V26Q457 9 449 0T426 -10Q395 -10 395 26V299Q395 370 370 407T296 445Q251 445 215 421T158 353T137 256V26Q137 9 129 0T106 -10Q91 -10 83 -1Z" />
<glyph unicode="n" glyph-name="n" horiz-adv-x="611" d="M92 -10T84 -1T76 26V464Q76 500 107 500Q122 500 130 491T138 464V399Q175 448 228 474T344 500Q440 500 490 449T541 299V26Q541 9 533 0T509 -10Q479 -10 479 26V299Q479 373 445 409T340 445Q249 445
194 392T138 251V26Q138 9 130 0T107 -10Q92 -10 84 -1Z" />
<glyph unicode="o" glyph-name="o" horiz-adv-x="634" d="M230 -10T169 25T78 119T48 245Q48 312 78 370T169 464T317 500Q404 500 465 465T556 371T586 245Q586 178 556 120T465 26T317 -10Q230 -10 169 25ZM410 46T466 98T523 245Q523 339 467 392T317 445Q224
445 168 392T111 245Q111 151 167 99T317 46Q410 46 466 98Z" />
<glyph unicode="p" glyph-name="p" horiz-adv-x="672" d="M75 -299T75 -263V464Q75 500 106 500Q121 500 129 491T137 464V392Q213 500 364 500Q486 500 555 434T625 250Q625 171 593 112T502 22T362 -10Q291 -10 237 16T138 97V-263Q138 -280 130 -289T106 -299Q75
-299 75 -263ZM455 46T508 100T562 252Q562 346 510 395T359 445Q256 445 197 393T137 250Q137 190 165 144T243 72T360 46Q455 46 508 100Z" />
<glyph unicode="q" glyph-name="q" horiz-adv-x="672" d="M551 -299T543 -290T534 -263V97Q493 44 436 17T309 -10Q187 -10 117 57T47 242Q47 364 117 432T314 500Q462 500 535 392V464Q535 481 543 490T566 500Q597 500 597 464V-263Q597 -299 566 -299Q551 -299
543 -290ZM376 46T426 72T506 143T535 245Q535 338 477 391T317 445Q214 445 162 394T110 242Q110 149 163 98T313 46Q376 46 426 72Z" />
<glyph unicode="r" glyph-name="r" horiz-adv-x="430" d="M92 -10T84 -1T76 26V464Q76 500 107 500Q122 500 130 491T138 464V399Q173 445 220 467T331 490H356Q373 490 382 483T392 462Q392 435 356 435H329Q240 435 189 386T138 251V26Q138 9 130 0T107 -10Q92
-10 84 -1Z" />
<glyph unicode="s" glyph-name="s" horiz-adv-x="514" d="M211 -10T150 17T55 92Q49 101 49 110Q49 118 54 125T68 135Q76 137 79 137Q86 137 92 133T107 117Q170 47 279 47Q334 47 369 65T404 121Q404 147 390 162T346 190T247 226Q186 247 151 264T96 307T76
374Q76 430 126 465T258 500Q317 500 369 479T448 422Q455 414 455 403Q455 389 441 382Q431 377 423 377Q409 377 397 390Q370 418 339 431T257 444Q200 444 171 426T141 372Q141 346 154 331T191 307T278 277Q349 253 389 233T447 186T466 121Q466 60 414 25T279
-10Q211 -10 150 17Z" />
<glyph unicode="t" glyph-name="t" horiz-adv-x="434" d="M400 86T400 75Q400 65 392 54Q372 25 336 8T261 -10Q198 -10 162 29T125 133V437H69Q34 437 34 464Q34 490 69 490H125V665Q125 682 133 691T156 701Q171 701 179 692T187 665V490H330Q365 490 365 464Q365
437 330 437H187V128Q187 46 263 46Q289 46 308 55T347 86Q361 100 373 100Q382 100 390 93Q400 86 400 75Z" />
<glyph unicode="u" glyph-name="u" horiz-adv-x="611" d="M181 -10T126 46T71 200V464Q71 481 79 490T103 500Q133 500 133 464V200Q133 126 172 86T282 46Q338 46 381 70T449 139T474 239V464Q474 481 482 490T505 500Q536 500 536 464V26Q536 -10 505 -10Q490
-10 482 -1T474 26V91Q437 42 387 16T278 -10Q181 -10 126 46Z" />
<glyph unicode="v" glyph-name="v" horiz-adv-x="615" d="M261 -10T230 18T176 107L50 457Q48 465 48 468Q48 478 53 486T69 498Q77 500 80 500Q102 500 110 479L237 127Q254 79 269 62T308 44Q331 44 346 61T378 125L505 479Q508 488 516 493T535 499Q541 499
545 498Q555 494 561 486T568 468Q568 465 566 457L438 104Q416 44 386 17T308 -10Q261 -10 230 18Z" />
<glyph unicode="w" glyph-name="w" horiz-adv-x="776" d="M187 -10T161 13T127 72L50 469Q47 482 55 491T78 500Q96 500 103 495T113 475L188 83Q196 46 221 46Q238 46 245 54T256 83L313 432Q318 461 339 480T388 500Q416 500 437 481T463 432L520 83Q523 63
531 55T555 46Q581 46 588 83L662 475Q665 490 672 495T698 500Q713 500 721 491T726 469L648 72Q641 35 615 13T555 -10Q479 -10 465 73L408 418Q403 445 388 445Q373 445 368 418L311 73Q297 -10 221 -10Q187 -10 161 13Z" />
<glyph unicode="x" glyph-name="x" horiz-adv-x="558" d="M510 33T510 20Q510 7 499 -3Q493 -9 484 -9Q471 -9 457 6L279 208L101 6Q88 -9 74 -9Q66 -9 58 -3Q48 7 48 19Q48 33 58 44L241 252L69 447Q59 459 59 472Q59 484 69 493Q80 500 87 500Q101 500 112 486L279
296L446 486Q458 499 471 499Q481 499 488 493Q499 485 499 472Q499 457 489 447L317 252L500 44Q510 33 510 20Z" />
<glyph unicode="y" glyph-name="y" horiz-adv-x="634" d="M224 -250T166 -229T82 -169Q77 -162 77 -152Q77 -137 90 -127Q97 -123 106 -123Q123 -123 134 -137Q156 -164 200 -180T295 -196Q389 -196 444 -139T499 15V88Q467 44 418 21T305 -3Q184 -3 116 67T47
263V467Q47 481 56 490T79 499Q93 499 102 490T111 467V263Q111 162 162 106T305 50Q396 50 445 103T494 254V457Q494 477 503 488T529 500Q563 500 563 457V17Q563 -61 530 -121T436 -216T298 -250Q224 -250 166 -229Z" />
<glyph unicode="z" glyph-name="z" horiz-adv-x="544" d="M107 0T78 23T48 92Q48 123 62 144T110 185L390 344Q413 357 421 368T430 396Q430 434 375 434H94Q50 434 50 462Q50 477 60 483T94 490H369Q427 490 458 466T490 397Q490 364 476 342T429 302L149 146Q128
134 117 120T106 93Q106 57 158 57H453Q475 57 485 51T496 29Q496 0 453 0H164Q107 0 78 23Z" />
<glyph unicode="{" glyph-name="braceleft" horiz-adv-x="400" d="M204 -197T174 -166T144 -83V122Q144 174 128 199T82 243Q67 254 60 262T52 283Q52 294 59 302T81 320Q110 339 127 364T144 443V668Q144 718 174 750T264 782H314Q331 782 340 775T349 755Q349
728 314 728H263Q238 728 223 713T208 671V443Q208 384 188 347T124 283Q168 255 188 218T208 122V-86Q208 -112 223 -127T263 -143H314Q349 -143 349 -170Q349 -183 340 -190T314 -197H264Q204 -197 174 -166Z" />
<glyph unicode="|" glyph-name="bar" horiz-adv-x="224" d="M97 -197T89 -188T80 -161V746Q80 763 88 772T112 782Q127 782 135 773T144 746V-161Q144 -178 136 -187T112 -197Q97 -197 89 -188Z" />
<glyph unicode="}" glyph-name="braceright" horiz-adv-x="400" d="M70 -197T61 -190T52 -170Q52 -143 86 -143H138Q163 -143 177 -128T192 -86V122Q192 181 212 218T277 283Q233 310 213 347T192 443V671Q192 697 178 712T138 728H86Q52 728 52 755Q52 768 61
775T86 782H136Q196 782 226 750T257 668V443Q257 390 274 365T320 320Q335 310 342 302T349 283Q349 270 342 262T319 243Q290 224 274 199T257 122V-83Q257 -134 227 -165T136 -197H86Q70 -197 61 -190Z" />
<glyph unicode="~" glyph-name="asciitilde" horiz-adv-x="564" d="M52 261T52 276Q52 284 56 292Q94 373 176 373Q204 373 229 365T292 342Q320 329 340 323T380 316Q412 316 429 326T455 359Q464 384 482 384Q488 384 496 381Q511 374 511 357Q511 350 508 342Q472
260 389 260Q360 260 335 268T274 291Q241 304 221 310T180 317Q151 317 135 307T109 273Q98 249 81 249Q74 249 67 253Q52 261 52 276Z" />
<glyph unicode="&#xa0;" glyph-name="uni00A0" horiz-adv-x="268" />
<glyph unicode="&#xa1;" glyph-name="exclamdown" horiz-adv-x="271" d="M112 395T96 410T80 449Q80 472 96 486T136 500Q160 500 176 486T192 449Q192 425 176 410T136 395Q112 395 96 410ZM119 -220T110 -211T100 -184L106 295Q106 330 135 330Q164 330 164
295L170 -184Q170 -201 161 -210T135 -220Q119 -220 110 -211Z" />
<glyph unicode="&#xa2;" glyph-name="cent" horiz-adv-x="590" d="M543 103T543 92Q543 81 534 72Q453 -4 334 -10V-78Q334 -110 307 -110Q293 -110 287 -102T281 -78V-8Q210 -2 157 32T76 121T48 246Q48 308 73 362T150 454T281 499V567Q281 583 287 591T307
599Q334 599 334 567V500Q471 494 533 419Q541 409 541 399Q541 386 529 377Q522 371 512 371Q498 371 485 384Q436 439 334 445V46Q437 52 487 107Q501 121 516 121Q525 121 532 114Q543 103 543 92ZM111 165T154 111T281 48V443Q197 434 154 383T111 246Q111
165 154 111Z" />
<glyph unicode="&#xa3;" glyph-name="sterling" horiz-adv-x="612" d="M397 -10T374 -4T322 14Q294 25 275 30T233 35Q198 35 175 26T128 1Q117 -7 105 -7Q86 -7 72 11Q63 22 63 35Q63 52 80 67Q138 115 166 154T194 243Q194 265 189 286T174 321H86Q53 321 53
348Q53 376 86 376H144Q120 406 107 443T94 517Q94 608 150 659T308 710Q381 710 439 678T528 588Q532 581 532 572Q532 557 517 549Q510 545 501 545Q483 545 471 562Q443 606 404 629T308 653Q237 653 197 617T157 516Q157 484 172 447T215 376H388Q420 376 420
348Q420 321 388 321H239Q257 287 257 243Q257 192 230 151T157 70L158 68Q181 80 199 86T238 92Q261 92 279 87T330 71Q357 60 379 54T429 48Q451 48 469 55T510 83Q520 93 532 93Q540 93 549 87Q559 80 559 67Q559 55 550 44Q499 -10 424 -10Q397 -10 374 -4Z"
/>
<glyph unicode="&#xa4;" glyph-name="currency" horiz-adv-x="605" d="M53 86T53 99Q53 114 68 129L108 170Q54 237 54 324Q54 412 108 479L68 520Q54 534 54 548Q54 561 65 574Q76 584 90 584Q108 584 121 569L161 527Q227 572 303 572Q340 572 376 560T444 527L485
569Q499 584 516 584Q529 584 540 574Q552 564 552 550Q552 536 538 520L498 479Q551 413 551 324Q551 236 498 170L538 128Q552 114 552 99Q552 86 540 75Q527 64 516 64Q501 64 485 80L444 122Q413 100 377 89T303 77Q225 77 161 122L121 80Q107 64 90 64Q77
64 66 74Q53 86 53 99ZM389 133T438 184T488 324Q488 414 439 464T303 515Q216 515 167 465T117 324Q117 235 166 184T303 133Q389 133 438 184Z" />
<glyph unicode="&#xa5;" glyph-name="yen" horiz-adv-x="678" d="M626 710T626 674V545Q626 460 594 392T504 281T372 231V223H479Q495 223 503 218T512 198Q512 174 479 174H372V130H479Q495 130 503 125T512 105Q512 81 479 81H372V26Q372 9 364 0T339 -10Q324
-10 316 -1T308 26V81H204Q171 81 171 105Q171 119 179 124T204 130H308V174H204Q171 174 171 198Q171 212 179 217T204 223H308V230Q231 237 173 278T84 387T53 545V674Q53 691 61 700T84 710Q100 710 108 701T117 674V542Q117 421 176 354T339 286Q443 286 502
354T562 542V674Q562 691 570 700T594 710Q626 710 626 674Z" />
<glyph unicode="&#xa6;" glyph-name="brokenbar" horiz-adv-x="224" d="M97 368T89 378T80 404V746Q80 763 88 772T112 782Q127 782 135 773T144 746V404Q144 387 136 378T112 368Q97 368 89 378ZM97 -197T89 -188T80 -161V181Q80 198 88 207T112 217Q127 217
135 208T144 181V-161Q144 -178 136 -187T112 -197Q97 -197 89 -188Z" />
<glyph unicode="&#xa7;" glyph-name="section" horiz-adv-x="548" d="M215 -75T174 -53T109 9T86 97Q86 130 121 130Q134 130 142 121T151 96Q151 42 182 11T270 -20Q322 -20 351 2T381 65Q381 116 330 145L125 263Q90 284 71 315T52 386Q52 425 76 458T145 510Q106
545 106 598Q106 660 152 696T275 732Q357 732 403 692T449 580Q449 566 441 558T420 549Q406 549 398 557T390 580Q390 677 273 677Q224 677 196 656T167 598Q167 577 177 560T205 533L441 394Q496 362 496 287Q496 248 469 214T398 160Q419 142 431 117T443 67Q443
3 395 -36T270 -75Q215 -75 174 -53ZM391 207T414 232T438 287Q438 315 427 332T389 366L190 479Q111 450 111 386Q111 357 124 337T165 302L354 194Q391 207 414 232Z" />
<glyph unicode="&#xa8;" glyph-name="dieresis" horiz-adv-x="390" d="M76 579T62 592T48 624Q48 643 62 657T95 671Q114 671 127 657T141 624Q141 606 128 593T95 579Q76 579 62 592ZM278 579T264 592T250 624Q250 643 264 657T297 671Q315 671 329 657T343 624Q343
606 329 593T297 579Q278 579 264 592Z" />
<glyph unicode="&#xa9;" glyph-name="copyright" horiz-adv-x="849" d="M323 -14T238 34T103 165T53 350Q53 451 103 534T238 666T425 714Q527 714 612 666T747 535T797 350Q797 249 747 166T612 34T425 -14Q323 -14 238 34ZM512 43T583 83T696 193T738 350Q738
437 697 508T584 619T425 660Q338 660 266 620T153 508T111 350Q111 264 152 194T266 83T425 43Q512 43 583 83ZM322 108T256 171T189 344Q189 453 255 516T434 579Q495 579 547 556T636 488Q643 480 643 471Q643 459 632 448Q625 442 616 442Q602 442 590 454Q526
524 434 524Q349 524 299 478T249 344Q249 257 299 210T434 163Q528 163 589 232Q600 244 613 244Q624 244 632 237Q642 230 642 217Q642 206 633 198Q586 154 535 131T434 108Q322 108 256 171Z" />
<glyph unicode="&#xaa;" glyph-name="ordfeminine" horiz-adv-x="425" d="M117 384T84 416T51 495Q51 544 88 574T189 605Q226 605 256 594T303 564V594Q303 627 279 646T205 665Q145 665 100 637Q93 632 86 632Q77 632 71 640Q65 648 65 655Q65 665 73 670Q96
688 132 699T204 710Q273 710 312 680T351 596V406Q351 396 344 390T327 384Q318 384 311 390T304 406V432Q263 384 183 384Q117 384 84 416ZM239 428T271 445T303 496Q303 525 272 543T189 561Q144 561 122 543T100 495Q100 463 122 446T187 428Q239 428 271 445Z"
/>
<glyph unicode="&#xab;" glyph-name="guillemotleft" horiz-adv-x="467" d="M245 51T237 51Q224 51 213 63L61 249Q54 258 54 266Q54 276 61 286L213 472Q224 485 238 485Q245 485 252 481Q266 473 266 456Q266 446 260 440L116 267L260 95Q266 88 266 79Q266
64 252 55Q245 51 237 51ZM391 50T384 50Q371 50 360 63L208 249Q201 257 201 266Q201 277 208 286L360 472Q371 485 385 485Q392 485 399 481Q413 473 413 456Q413 446 407 440L263 267L407 95Q413 88 413 80Q413 64 399 55Q391 50 384 50Z" />
<glyph unicode="&#xac;" glyph-name="logicalnot" horiz-adv-x="501" d="M406 109T399 118T391 143V246H87Q70 246 61 253T52 273Q52 301 87 301H413Q449 301 449 273V143Q449 109 420 109Q406 109 399 118Z" />
<glyph unicode="&#xad;" glyph-name="uni00AD" horiz-adv-x="470" d="M70 216T61 223T52 243Q52 271 87 271H383Q418 271 418 243Q418 230 409 223T383 216H87Q70 216 61 223Z" />
<glyph unicode="&#xae;" glyph-name="registered" horiz-adv-x="849" d="M322 -16T236 32T100 164T50 350Q50 451 100 535T236 667T425 716Q528 716 613 668T749 535T799 350Q799 248 749 165T614 33T425 -16Q322 -16 236 32ZM512 45T583 84T695 194T736 350Q736
437 695 507T583 618T425 658Q337 658 266 618T153 508T112 350Q112 264 153 194T265 85T425 45Q512 45 583 84ZM256 480Q256 520 281 545T353 571H455Q544 571 592 537T640 432Q640 366 594 332T464 298L588 164Q596 154 596 146Q596 136 587 128Q579 120 568
120Q556 120 545 132L395 297L311 296V153Q311 139 304 131T284 123Q270 123 263 131T256 153V480ZM469 347Q520 347 552 367T584 432Q584 482 552 503T458 524H351Q333 524 322 513T311 483V348L469 347Z" />
<glyph unicode="&#xaf;" glyph-name="overscore" horiz-adv-x="402" d="M47 561T47 584Q47 598 55 603T80 608H323Q340 608 348 603T356 584Q356 561 323 561H80Q47 561 47 584Z" />
<glyph unicode="&#xb0;" glyph-name="degree" horiz-adv-x="349" d="M123 589T88 621T52 705Q52 757 87 789T175 821Q227 821 262 789T297 705Q298 654 263 622T175 589Q123 589 88 621ZM206 636T225 655T244 705Q244 736 225 755T175 774Q144 774 125 755T106
705Q105 675 124 656T175 636Q206 636 225 655Z" />
<glyph unicode="&#xb1;" glyph-name="plusminus" horiz-adv-x="507" d="M43 254T34 261T25 281Q25 309 60 309H226V432Q226 466 254 466Q283 466 283 432V309H448Q482 309 482 281Q482 268 473 261T448 254H283V134Q283 100 254 100Q226 100 226 134V254H60Q43
254 34 261ZM482 55T482 27Q482 14 473 7T448 0H60Q43 0 34 7T25 27Q25 55 60 55H448Q482 55 482 27Z" />
<glyph unicode="&#xb2;" glyph-name="uni00B2" horiz-adv-x="448" d="M68 400T61 408T53 427Q53 442 65 452L286 635Q311 656 321 674T332 721Q332 757 307 778T234 799Q195 799 163 784T109 742Q100 731 84 731Q74 731 69 735Q59 742 59 755Q59 766 66 776Q93
811 137 829T234 847Q309 847 351 813T393 721Q393 685 374 655T316 593L141 447H366Q396 447 396 425Q396 412 389 406T366 400H81Q68 400 61 408Z" />
<glyph unicode="&#xb3;" glyph-name="uni00B3" horiz-adv-x="458" d="M177 394T131 413T60 468Q52 478 52 489Q52 501 64 508Q71 512 80 512Q95 512 104 500Q125 473 158 458T230 443Q285 443 315 464T345 524Q345 566 324 585T262 605H194Q181 605 174 612T166
630Q166 656 194 656H262Q295 656 315 674T335 724Q335 760 309 779T231 799Q200 799 170 786T116 749Q105 738 91 738Q83 738 76 743Q66 750 66 764Q66 775 73 782Q104 813 144 830T232 847Q310 847 352 813T395 725Q395 696 379 672T330 633V632Q406 603 406
522Q406 463 358 429T230 394Q177 394 131 413Z" />
<glyph unicode="&#xb4;" glyph-name="acute" horiz-adv-x="223" d="M47 567T47 580Q47 586 50 592L113 732Q126 759 143 759Q149 759 159 754Q176 746 176 731Q176 723 170 712L93 574Q84 559 70 559Q66 559 60 561Q47 567 47 580Z" />
<glyph unicode="&#xb5;" glyph-name="uni00B5" horiz-adv-x="624" d="M80 -250T80 -214V464Q80 500 112 500Q142 500 142 464V200Q142 126 181 86T291 46Q343 46 387 68T457 135T483 239V464Q483 500 514 500Q545 500 545 464V26Q545 9 537 0T514 -10Q499 -10
491 -1T483 26V91Q449 46 399 18T289 -10Q195 -10 142 54V-214Q142 -250 112 -250Q80 -250 80 -214Z" />
<glyph unicode="&#xb6;" glyph-name="paragraph" horiz-adv-x="650" d="M267 -264T259 -255T251 -228V351Q157 351 105 398T53 527Q53 613 105 658T256 704H564Q598 704 598 676Q598 663 589 656T564 649H530V-228Q530 -245 522 -254T497 -264Q482 -264 474 -255T466
-228V649H315V-228Q315 -245 307 -254T282 -264Q267 -264 259 -255Z" />
<glyph unicode="&#xb7;" glyph-name="middot" horiz-adv-x="208" d="M84 290T69 305T53 340Q53 361 68 376T105 392Q125 392 140 377T156 340Q156 320 141 305T105 290Q84 290 69 305Z" />
<glyph unicode="&#xb8;" glyph-name="cedilla" horiz-adv-x="294" d="M120 -210T94 -196T53 -161Q47 -154 47 -146Q47 -138 57 -129Q65 -124 71 -124Q81 -124 88 -135Q110 -165 151 -165Q173 -165 184 -155T196 -126Q196 -109 187 -99T159 -89Q151 -89 146 -90Q132
-92 123 -85T113 -67Q113 -61 116 -55L140 -4Q145 8 150 13T163 19Q165 19 173 17Q193 11 193 -2Q193 -8 190 -12L166 -59Q207 -58 227 -77T247 -128Q247 -164 222 -187T152 -210Q120 -210 94 -196Z" />
<glyph unicode="&#xb9;" glyph-name="uni00B9" horiz-adv-x="295" d="M171 394T163 402T154 424V782L85 756Q78 753 69 753Q52 753 46 766Q42 776 42 781Q42 797 60 803L176 845Q180 847 188 847Q199 847 207 840T215 817V424Q215 394 184 394Q171 394 163 402Z" />
<glyph unicode="&#xba;" glyph-name="ordmasculine" horiz-adv-x="445" d="M146 384T99 429T51 547Q51 620 98 665T223 710Q299 710 346 665T394 547Q394 474 347 429T223 384Q146 384 99 429ZM278 429T311 461T344 547Q344 601 312 633T223 665Q167 665 135 634T102
547Q102 492 134 461T223 429Q278 429 311 461Z" />
<glyph unicode="&#xbb;" glyph-name="guillemotright" horiz-adv-x="467" d="M54 64T54 80Q54 88 60 95L204 267L60 440Q54 448 54 456Q54 472 68 481Q75 485 82 485Q96 485 107 472L259 286Q266 276 266 266Q266 257 259 249L107 63Q96 50 83 50Q76 50 68 55Q54
64 54 80ZM201 64T201 79Q201 88 207 95L351 267L207 440Q201 448 201 456Q201 472 215 481Q222 485 229 485Q243 485 254 472L406 286Q413 276 413 266Q413 257 406 249L254 63Q244 50 230 50Q223 50 215 55Q201 64 201 79Z" />
<glyph unicode="&#xbc;" glyph-name="onequarter" horiz-adv-x="757" d="M118 2T118 16Q118 26 125 36L579 698Q588 712 603 712Q613 712 622 706Q636 698 636 685Q636 675 629 665L174 2Q165 -12 149 -12Q140 -12 131 -6Q118 2 118 16ZM185 256T177 264T168 286V644L99
618Q92 615 83 615Q66 615 60 628Q56 638 56 643Q56 659 74 665L190 707Q194 709 202 709Q213 709 221 702T229 679V286Q229 256 198 256Q185 256 177 264ZM588 -10T581 -2T574 21V92H361Q348 92 341 99T333 117Q333 127 339 134L580 434Q588 443 603 443Q631 443
631 417V144H671Q686 144 693 137T701 118Q701 107 693 100T671 92H631V21Q631 -10 600 -10Q588 -10 581 -2ZM575 144V350L409 144H575Z" />
<glyph unicode="&#xbd;" glyph-name="onehalf" horiz-adv-x="864" d="M118 2T118 16Q118 26 124 36L579 698Q588 712 603 712Q611 712 622 706Q635 699 635 685Q635 676 629 665L174 2Q165 -12 149 -12Q139 -12 130 -6Q118 2 118 16ZM185 256T177 264T168 286V644L99
618Q90 615 83 615Q65 615 59 628Q55 638 55 642Q55 659 74 665L189 707Q193 709 201 709Q212 709 220 702T228 679V286Q228 256 197 256Q185 256 177 264ZM480 0T473 8T465 27Q465 42 478 52L699 235Q723 255 733 273T744 321Q744 357 719 378T646 399Q607 399
575 385T522 343Q513 331 497 331Q487 331 482 335Q471 342 471 356Q471 367 478 376Q505 411 549 429T646 447Q721 447 763 413T805 321Q805 284 786 254T729 193L554 47H779Q808 47 808 25Q808 0 779 0H493Q480 0 473 8Z" />
<glyph unicode="&#xbe;" glyph-name="threequarters" horiz-adv-x="884" d="M246 2T246 17Q246 26 252 35L707 698Q716 712 730 712Q740 712 749 706Q763 699 763 684Q763 676 757 665L302 2Q293 -12 276 -12Q267 -12 258 -6Q246 2 246 17ZM181 256T136 275T64
330Q56 342 56 351Q56 363 68 370Q75 374 84 374Q99 374 107 363Q129 335 161 320T234 305Q289 305 319 326T349 386Q349 428 328 447T266 467H198Q185 467 178 474T170 492Q170 518 198 518H266Q299 518 319 536T339 586Q339 622 313 641T235 661Q170 661 120
611Q109 600 95 600Q88 600 80 605Q70 612 70 626Q70 637 77 644Q108 675 148 692T236 709Q314 709 356 676T399 587Q399 559 383 535T334 495V494Q410 465 410 384Q410 325 362 291T234 256Q181 256 136 275ZM715 -10T708 -2T701 21V92H489Q476 92 468 99T460
118Q460 127 466 134L708 434Q716 443 731 443Q758 443 758 417V144H799Q813 144 820 137T828 118Q828 107 821 100T799 92H758V21Q758 6 750 -2T728 -10Q715 -10 708 -2ZM703 144V350L536 144H703Z" />
<glyph unicode="&#xbf;" glyph-name="questiondown" horiz-adv-x="568" d="M264 395T248 410T232 449Q232 472 248 486T288 500Q312 500 328 486T344 449Q344 425 328 410T288 395Q264 395 248 410ZM171 -220T112 -171T52 -35Q52 4 67 33T103 82T159 130Q192 156
211 174T244 217T257 274V294Q257 311 265 320T290 330Q305 330 313 321T321 294V274Q321 233 306 202T269 150T210 100Q163 64 140 36T117 -35Q117 -95 159 -129T276 -163Q332 -163 379 -143T455 -85Q468 -69 486 -69Q494 -69 501 -73Q516 -83 516 -97Q516 -104
510 -113Q473 -164 411 -192T276 -220Q171 -220 112 -171Z" />
<glyph unicode="&#xc0;" glyph-name="Agrave" horiz-adv-x="729" d="M97 -10T89 -1T81 26V425Q81 559 156 634T365 710Q498 710 573 634T649 425V26Q649 9 641 0T617 -10Q602 -10 593 -1T584 26V263H145V26Q145 9 137 0T112 -10Q97 -10 89 -1ZM584 317V428Q584
536 527 595T365 654Q258 654 202 596T145 428V317H584ZM370 789T366 789Q352 789 343 804L265 942Q259 951 259 960Q259 975 277 984Q285 988 293 988Q311 988 322 962L385 822Q388 816 388 809Q388 796 376 791Q370 789 366 789Z" />
<glyph unicode="&#xc1;" glyph-name="Aacute" horiz-adv-x="729" d="M97 -10T89 -1T81 26V425Q81 559 156 634T365 710Q498 710 573 634T649 425V26Q649 9 641 0T617 -10Q602 -10 593 -1T584 26V263H145V26Q145 9 137 0T112 -10Q97 -10 89 -1ZM584 317V428Q584
536 527 595T365 654Q258 654 202 596T145 428V317H584ZM342 797T342 810Q342 816 345 822L408 962Q421 989 438 989Q444 989 454 984Q471 976 471 961Q471 953 465 942L388 804Q379 789 365 789Q361 789 355 791Q342 797 342 810Z" />
<glyph unicode="&#xc2;" glyph-name="Acircumflex" horiz-adv-x="729" d="M97 -10T89 -1T81 26V425Q81 559 156 634T365 710Q498 710 573 634T649 425V26Q649 9 641 0T617 -10Q602 -10 593 -1T584 26V263H145V26Q145 9 137 0T112 -10Q97 -10 89 -1ZM584 317V428Q584
536 527 595T365 654Q258 654 202 596T145 428V317H584ZM222 803T222 816Q222 826 230 837L336 963Q349 979 365 979Q380 979 394 963L500 837Q508 826 508 816Q508 805 496 794Q487 788 479 788Q464 788 451 806L365 920L279 806Q263 787 250 787Q242 787 235
793Q222 803 222 816Z" />
<glyph unicode="&#xc3;" glyph-name="Atilde" horiz-adv-x="729" d="M97 -10T89 -1T81 26V425Q81 559 156 634T365 710Q498 710 573 634T649 425V26Q649 9 641 0T617 -10Q602 -10 593 -1T584 26V263H145V26Q145 9 137 0T112 -10Q97 -10 89 -1ZM584 317V428Q584
536 527 595T365 654Q258 654 202 596T145 428V317H584ZM203 811T203 832Q203 840 204 845Q212 878 236 899T295 921Q319 921 337 913T378 888Q394 876 406 870T432 864Q468 864 479 908Q484 928 501 928Q508 928 511 927Q526 923 526 906Q526 898 525 894Q517
860 493 839T434 817Q413 817 396 825T358 848Q336 862 324 868T297 874Q262 874 251 831Q245 811 229 811Q203 811 203 832Z" />
<glyph unicode="&#xc4;" glyph-name="Adieresis" horiz-adv-x="729" d="M97 -10T89 -1T81 26V425Q81 559 156 634T365 710Q498 710 573 634T649 425V26Q649 9 641 0T617 -10Q602 -10 593 -1T584 26V263H145V26Q145 9 137 0T112 -10Q97 -10 89 -1ZM584 317V428Q584
536 527 595T365 654Q258 654 202 596T145 428V317H584ZM246 809T232 822T218 854Q218 873 232 887T265 901Q284 901 297 887T311 854Q311 836 298 823T265 809Q246 809 232 822ZM448 809T434 822T420 854Q420 873 434 887T467 901Q486 901 499 887T513 854Q513
836 500 823T467 809Q448 809 434 822Z" />
<glyph unicode="&#xc5;" glyph-name="Aring" horiz-adv-x="729" d="M97 -10T89 -1T81 26V425Q81 559 156 634T365 710Q498 710 573 634T649 425V26Q649 9 641 0T617 -10Q602 -10 593 -1T584 26V263H145V26Q145 9 137 0T112 -10Q97 -10 89 -1ZM584 317V428Q584
536 527 595T365 654Q258 654 202 596T145 428V317H584ZM315 756T284 784T253 857Q253 900 284 928T365 957Q415 957 445 929T475 857Q475 813 445 785T365 756Q315 756 284 784ZM394 797T411 813T429 857Q429 885 412 901T365 917Q336 917 319 901T301 857Q301
829 318 813T365 797Q394 797 411 813Z" />
<glyph unicode="&#xc6;" glyph-name="AE" horiz-adv-x="1125" d="M97 -10T89 -1T81 26V425Q81 559 156 634T365 710Q515 710 589 604Q595 651 625 675T704 700H1011Q1029 700 1037 693T1045 672Q1045 646 1011 646H701Q676 646 662 630T647 587V385H935Q953 385
961 378T969 357Q969 330 935 330H647V114Q647 87 661 71T701 55H1033Q1067 55 1067 27Q1067 14 1058 7T1033 0H704Q647 0 616 30T584 116V263H145V26Q145 9 137 0T112 -10Q97 -10 89 -1ZM584 317V428Q584 536 527 595T365 654Q258 654 202 596T145 428V317H584Z"
/>
<glyph unicode="&#xc7;" glyph-name="Ccedilla" horiz-adv-x="745" d="M687 131T687 118Q687 106 680 98Q643 52 575 24T424 -9L423 -12L398 -59Q439 -58 459 -77T480 -128Q480 -164 455 -187T385 -210Q353 -210 327 -196T286 -161Q280 -154 280 -147Q280 -138
290 -129Q295 -124 303 -124Q313 -124 321 -135Q344 -165 383 -165Q406 -165 417 -155T429 -126Q429 -89 392 -89Q384 -89 379 -90Q365 -92 356 -85T346 -67Q346 -61 349 -55L371 -9Q277 -3 207 43T97 169T58 349Q58 456 100 538T221 665T401 710Q486 710 557 682T669
602Q677 592 677 582Q677 568 665 560Q658 554 647 554Q639 554 632 557T620 567Q588 608 531 631T401 654Q316 654 253 617T157 511T123 349Q123 256 156 188T253 84T401 47Q480 47 539 69T631 134Q643 147 658 147Q669 147 676 141Q687 131 687 118Z" />
<glyph unicode="&#xc8;" glyph-name="Egrave" horiz-adv-x="629" d="M148 0T116 30T83 116V585Q83 639 115 669T205 700H515Q549 700 549 672Q549 646 515 646H202Q177 646 162 630T147 587V385H439Q473 385 473 357Q473 344 464 337T439 330H147V114Q147 87 162
71T202 55H537Q571 55 571 27Q571 14 562 7T537 0H206Q148 0 116 30ZM344 789T340 789Q326 789 317 804L239 942Q233 951 233 960Q233 975 251 984Q259 988 267 988Q285 988 296 962L359 822Q362 816 362 809Q362 796 350 791Q344 789 340 789Z" />
<glyph unicode="&#xc9;" glyph-name="Eacute" horiz-adv-x="629" d="M148 0T116 30T83 116V585Q83 639 115 669T205 700H515Q549 700 549 672Q549 646 515 646H202Q177 646 162 630T147 587V385H439Q473 385 473 357Q473 344 464 337T439 330H147V114Q147 87 162
71T202 55H537Q571 55 571 27Q571 14 562 7T537 0H206Q148 0 116 30ZM313 797T313 810Q313 816 316 822L379 962Q392 989 409 989Q415 989 425 984Q442 976 442 961Q442 953 436 942L359 804Q350 789 336 789Q332 789 326 791Q313 797 313 810Z" />
<glyph unicode="&#xca;" glyph-name="Ecircumflex" horiz-adv-x="629" d="M148 0T116 30T83 116V585Q83 639 115 669T205 700H515Q549 700 549 672Q549 646 515 646H202Q177 646 162 630T147 587V385H439Q473 385 473 357Q473 344 464 337T439 330H147V114Q147
87 162 71T202 55H537Q571 55 571 27Q571 14 562 7T537 0H206Q148 0 116 30ZM193 803T193 816Q193 826 201 837L307 963Q320 979 336 979Q352 979 365 963L470 837Q479 827 479 816Q479 804 466 794Q457 788 450 788Q436 788 422 806L336 920L250 806Q236 787 221
787Q214 787 206 793Q193 803 193 816Z" />
<glyph unicode="&#xcb;" glyph-name="Edieresis" horiz-adv-x="629" d="M148 0T116 30T83 116V585Q83 639 115 669T205 700H515Q549 700 549 672Q549 646 515 646H202Q177 646 162 630T147 587V385H439Q473 385 473 357Q473 344 464 337T439 330H147V114Q147 87
162 71T202 55H537Q571 55 571 27Q571 14 562 7T537 0H206Q148 0 116 30ZM217 809T203 822T189 854Q189 873 203 887T236 901Q255 901 268 887T282 854Q282 836 269 823T236 809Q217 809 203 822ZM419 809T405 822T391 854Q391 873 405 887T438 901Q456 901 470
887T484 854Q484 836 470 823T438 809Q419 809 405 822Z" />
<glyph unicode="&#xcc;" glyph-name="Igrave" horiz-adv-x="296" d="M133 -10T125 -1T116 26V674Q116 710 148 710Q163 710 171 701T180 674V26Q180 9 172 0T148 -10Q133 -10 125 -1ZM156 789T152 789Q138 789 129 804L51 942Q45 951 45 960Q45 975 63 984Q71
988 79 988Q97 988 108 962L171 822Q174 816 174 809Q174 796 162 791Q156 789 152 789Z" />
<glyph unicode="&#xcd;" glyph-name="Iacute" horiz-adv-x="296" d="M133 -10T125 -1T116 26V674Q116 710 148 710Q163 710 171 701T180 674V26Q180 9 172 0T148 -10Q133 -10 125 -1ZM125 797T125 810Q125 816 128 822L191 962Q204 989 221 989Q227 989 237 984Q254
976 254 961Q254 953 248 942L171 804Q162 789 148 789Q144 789 138 791Q125 797 125 810Z" />
<glyph unicode="&#xce;" glyph-name="Icircumflex" horiz-adv-x="296" d="M133 -10T125 -1T116 26V674Q116 710 148 710Q163 710 171 701T180 674V26Q180 9 172 0T148 -10Q133 -10 125 -1ZM5 803T5 816Q5 826 13 837L119 963Q132 979 148 979Q164 979 177 963L282
837Q291 827 291 816Q291 804 278 794Q269 788 262 788Q248 788 234 806L148 920L62 806Q48 787 33 787Q26 787 18 793Q5 803 5 816Z" />
<glyph unicode="&#xcf;" glyph-name="Idieresis" horiz-adv-x="296" d="M133 -10T125 -1T116 26V674Q116 710 148 710Q163 710 171 701T180 674V26Q180 9 172 0T148 -10Q133 -10 125 -1ZM29 809T15 822T1 854Q1 873 15 887T48 901Q67 901 80 887T94 854Q94 836
81 823T48 809Q29 809 15 822ZM231 809T217 822T203 854Q203 873 217 887T250 901Q268 901 282 887T296 854Q296 836 282 823T250 809Q231 809 217 822Z" />
<glyph unicode="&#xd0;" glyph-name="Eth" horiz-adv-x="787" d="M199 0T167 30T134 116V325H72Q55 325 46 331T37 351Q37 378 72 378H134V585Q134 639 166 669T256 700H397Q498 700 574 657T692 534T734 349Q734 244 693 165T575 43T397 0H257Q199 0 167 30ZM387
55Q520 55 594 132T669 349Q669 488 594 567T387 646H254Q229 646 214 630T199 587V378H367Q385 378 393 372T402 351Q402 325 367 325H199V114Q199 87 214 71T254 55H387Z" />
<glyph unicode="&#xd1;" glyph-name="Ntilde" horiz-adv-x="737" d="M97 -10T89 -1T80 26V440Q80 566 157 638T369 710Q503 710 580 638T657 440V26Q657 -10 625 -10Q610 -10 602 -1T593 26V443Q593 543 535 598T369 654Q263 654 204 598T144 443V26Q144 9 136
0T112 -10Q97 -10 89 -1ZM204 804T204 826Q204 833 205 838Q213 872 237 893T296 915Q320 915 338 907T379 882Q395 870 407 864T433 858Q469 858 480 901Q485 921 502 921Q528 921 528 900Q528 896 526 888Q518 853 494 832T435 811Q414 811 397 819T359 842Q337
856 325 862T298 868Q264 868 252 825Q246 804 229 804Q204 804 204 826Z" />
<glyph unicode="&#xd2;" glyph-name="Ograve" horiz-adv-x="820" d="M312 -10T232 34T105 160T58 350Q58 458 104 540T231 666T410 710Q508 710 588 666T716 540T763 350Q763 242 716 161T589 35T410 -10Q312 -10 232 34ZM492 47T557 82T661 186T699 350Q699 446
661 514T557 618T410 654Q328 654 263 619T160 514T122 350Q122 255 160 187T263 83T410 47Q492 47 557 82ZM418 789T414 789Q400 789 391 804L313 942Q307 951 307 960Q307 975 325 984Q333 988 341 988Q359 988 370 962L433 822Q436 816 436 809Q436 796 424
791Q418 789 414 789Z" />
<glyph unicode="&#xd3;" glyph-name="Oacute" horiz-adv-x="820" d="M312 -10T232 34T105 160T58 350Q58 458 104 540T231 666T410 710Q508 710 588 666T716 540T763 350Q763 242 716 161T589 35T410 -10Q312 -10 232 34ZM492 47T557 82T661 186T699 350Q699 446
661 514T557 618T410 654Q328 654 263 619T160 514T122 350Q122 255 160 187T263 83T410 47Q492 47 557 82ZM387 797T387 810Q387 816 390 822L453 962Q466 989 483 989Q489 989 499 984Q516 976 516 961Q516 953 510 942L433 804Q424 789 410 789Q406 789 400
791Q387 797 387 810Z" />
<glyph unicode="&#xd4;" glyph-name="Ocircumflex" horiz-adv-x="820" d="M312 -10T232 34T105 160T58 350Q58 458 104 540T231 666T410 710Q508 710 588 666T716 540T763 350Q763 242 716 161T589 35T410 -10Q312 -10 232 34ZM492 47T557 82T661 186T699 350Q699
446 661 514T557 618T410 654Q328 654 263 619T160 514T122 350Q122 255 160 187T263 83T410 47Q492 47 557 82ZM268 803T268 816Q268 826 276 837L382 963Q395 979 411 979Q427 979 440 963L545 837Q554 827 554 816Q554 804 541 794Q532 788 525 788Q511 788
497 806L411 920L325 806Q311 787 296 787Q289 787 281 793Q268 803 268 816Z" />
<glyph unicode="&#xd5;" glyph-name="Otilde" horiz-adv-x="820" d="M312 -10T232 34T105 160T58 350Q58 458 104 540T231 666T410 710Q508 710 588 666T716 540T763 350Q763 242 716 161T589 35T410 -10Q312 -10 232 34ZM492 47T557 82T661 186T699 350Q699 446
661 514T557 618T410 654Q328 654 263 619T160 514T122 350Q122 255 160 187T263 83T410 47Q492 47 557 82ZM248 804T248 826Q248 833 249 838Q257 872 281 893T340 915Q364 915 382 907T423 882Q439 870 451 864T477 858Q513 858 524 901Q529 921 546 921Q572
921 572 900Q572 896 570 888Q562 853 538 832T479 811Q458 811 441 819T403 842Q381 856 369 862T342 868Q308 868 296 825Q290 804 273 804Q248 804 248 826Z" />
<glyph unicode="&#xd6;" glyph-name="Odieresis" horiz-adv-x="820" d="M312 -10T232 34T105 160T58 350Q58 458 104 540T231 666T410 710Q508 710 588 666T716 540T763 350Q763 242 716 161T589 35T410 -10Q312 -10 232 34ZM492 47T557 82T661 186T699 350Q699
446 661 514T557 618T410 654Q328 654 263 619T160 514T122 350Q122 255 160 187T263 83T410 47Q492 47 557 82ZM291 809T277 822T263 854Q263 873 277 887T310 901Q329 901 342 887T356 854Q356 836 343 823T310 809Q291 809 277 822ZM493 809T479 822T465 854Q465
873 479 887T512 901Q530 901 544 887T558 854Q558 836 544 823T512 809Q493 809 479 822Z" />
<glyph unicode="&#xd7;" glyph-name="multiply" horiz-adv-x="507" d="M438 93Q451 80 451 68Q451 58 442 49Q434 41 424 41Q410 41 397 54L253 200L109 54Q96 41 84 41Q75 41 64 50Q55 59 55 68Q55 80 68 93L213 240L70 385Q57 398 57 410Q57 420 66 429Q76 438
86 438Q97 438 111 424L253 280L397 425Q410 438 424 438Q434 438 442 430Q451 422 451 411Q451 399 438 386L293 240L438 93Z" />
<glyph unicode="&#xd8;" glyph-name="Oslash" horiz-adv-x="808" d="M663 625T710 541T758 350Q758 246 713 164T588 36T404 -10Q336 -10 277 11L248 -52Q245 -59 237 -64T221 -69Q214 -69 208 -66Q190 -60 190 -41Q190 -34 193 -28L222 36Q142 81 96 163T50 350Q50
454 95 536T221 664T404 710Q469 710 523 692L551 752Q555 760 562 765T579 770Q585 770 591 767Q609 760 609 742Q609 735 607 731L579 669Q663 625 710 541ZM118 262T151 195T247 90L498 637Q453 651 402 651Q317 651 253 614T154 508T118 350Q118 262 151 195ZM490
49T554 86T654 192T690 350Q690 441 654 509T553 614L302 65Q347 49 404 49Q490 49 554 86Z" />
<glyph unicode="&#xd9;" glyph-name="Ugrave" horiz-adv-x="741" d="M233 -10T157 67T80 279V674Q80 691 88 700T112 710Q127 710 135 701T144 674V276Q144 166 202 107T369 47Q476 47 536 107T596 276V674Q596 691 605 700T629 710Q644 710 652 701T660 674V279Q660
192 625 127T523 26T366 -10Q233 -10 157 67ZM378 789T374 789Q360 789 351 804L273 942Q267 951 267 960Q267 975 285 984Q293 988 301 988Q319 988 330 962L393 822Q396 816 396 809Q396 796 384 791Q378 789 374 789Z" />
<glyph unicode="&#xda;" glyph-name="Uacute" horiz-adv-x="741" d="M233 -10T157 67T80 279V674Q80 691 88 700T112 710Q127 710 135 701T144 674V276Q144 166 202 107T369 47Q476 47 536 107T596 276V674Q596 691 605 700T629 710Q644 710 652 701T660 674V279Q660
192 625 127T523 26T366 -10Q233 -10 157 67ZM347 797T347 810Q347 816 350 822L413 962Q426 989 443 989Q449 989 459 984Q476 976 476 961Q476 953 470 942L393 804Q384 789 370 789Q366 789 360 791Q347 797 347 810Z" />
<glyph unicode="&#xdb;" glyph-name="Ucircumflex" horiz-adv-x="741" d="M233 -10T157 67T80 279V674Q80 691 88 700T112 710Q127 710 135 701T144 674V276Q144 166 202 107T369 47Q476 47 536 107T596 276V674Q596 691 605 700T629 710Q644 710 652 701T660
674V279Q660 192 625 127T523 26T366 -10Q233 -10 157 67ZM228 803T228 816Q228 826 236 837L342 963Q355 979 371 979Q387 979 400 963L505 837Q514 827 514 816Q514 804 501 794Q492 788 485 788Q471 788 457 806L371 920L285 806Q271 787 256 787Q249 787 241
793Q228 803 228 816Z" />
<glyph unicode="&#xdc;" glyph-name="Udieresis" horiz-adv-x="741" d="M233 -10T157 67T80 279V674Q80 691 88 700T112 710Q127 710 135 701T144 674V276Q144 166 202 107T369 47Q476 47 536 107T596 276V674Q596 691 605 700T629 710Q644 710 652 701T660 674V279Q660
192 625 127T523 26T366 -10Q233 -10 157 67ZM251 809T237 822T223 854Q223 873 237 887T270 901Q289 901 302 887T316 854Q316 836 303 823T270 809Q251 809 237 822ZM453 809T439 822T425 854Q425 873 439 887T472 901Q490 901 504 887T518 854Q518 836 504 823T472
809Q453 809 439 822Z" />
<glyph unicode="&#xdd;" glyph-name="Yacute" horiz-adv-x="690" d="M632 710T632 674V545Q632 460 600 392T510 281T378 231V26Q378 9 370 0T345 -10Q330 -10 322 -1T314 26V230Q237 237 179 278T90 387T59 545V674Q59 691 67 700T90 710Q106 710 114 701T123
674V542Q123 421 182 354T345 286Q449 286 508 354T568 542V674Q568 691 576 700T600 710Q632 710 632 674ZM322 797T322 810Q322 816 325 822L388 962Q401 989 418 989Q424 989 434 984Q451 976 451 961Q451 953 445 942L368 804Q359 789 345 789Q341 789 335
791Q322 797 322 810Z" />
<glyph unicode="&#xde;" glyph-name="Thorn" horiz-adv-x="618" d="M96 -10T87 0T78 28V674Q78 711 112 711Q129 711 138 702T147 674V580H345Q447 580 507 523T568 368Q568 271 508 214T345 156H147V28Q147 10 138 0T112 -10Q96 -10 87 0ZM345 214Q417 214 457
254T498 368Q498 441 458 481T345 522H147V214H345Z" />
<glyph unicode="&#xdf;" glyph-name="germandbls" horiz-adv-x="635" d="M319 -11T276 6T210 49Q201 59 201 70Q201 82 213 91Q223 99 231 99Q244 99 261 85Q280 68 307 58T365 48Q438 48 477 91T517 215Q517 373 325 373H278Q241 373 241 400Q241 429 278 429H338Q460
429 460 560Q460 614 416 647T299 680Q226 680 183 638T140 524V26Q140 15 130 7T107 -1Q94 -1 84 7T73 26V531Q73 589 102 636T183 711T299 739Q366 739 418 717T499 654T528 560Q528 498 504 461T428 406V404Q502 388 543 340T585 221Q585 113 527 51T365 -11Q319
-11 276 6Z" />
<glyph unicode="&#xe0;" glyph-name="agrave" horiz-adv-x="585" d="M159 -10T104 33T48 153Q48 229 105 273T264 317Q325 317 373 301T445 255V324Q445 383 406 414T291 445Q197 445 126 399Q112 391 102 391Q94 391 85 397Q75 405 75 418Q75 431 85 439Q122
467 176 483T289 500Q393 500 450 453T507 320V26Q507 -10 477 -10Q463 -10 455 -1T446 25V66Q415 29 367 10T257 -10Q159 -10 104 33ZM344 45T395 76T446 159Q446 208 398 235T264 263Q190 263 151 235T111 153Q111 100 149 73T262 45Q344 45 395 76ZM310 569T306
569Q292 569 283 584L205 722Q199 731 199 740Q199 755 217 764Q225 768 233 768Q251 768 262 742L325 602Q328 596 328 589Q328 576 316 571Q310 569 306 569Z" />
<glyph unicode="&#xe1;" glyph-name="aacute" horiz-adv-x="585" d="M159 -10T104 33T48 153Q48 229 105 273T264 317Q325 317 373 301T445 255V324Q445 383 406 414T291 445Q197 445 126 399Q112 391 102 391Q94 391 85 397Q75 405 75 418Q75 431 85 439Q122
467 176 483T289 500Q393 500 450 453T507 320V26Q507 -10 477 -10Q463 -10 455 -1T446 25V66Q415 29 367 10T257 -10Q159 -10 104 33ZM344 45T395 76T446 159Q446 208 398 235T264 263Q190 263 151 235T111 153Q111 100 149 73T262 45Q344 45 395 76ZM280 577T280
590Q280 596 283 602L346 742Q359 769 376 769Q382 769 392 764Q409 756 409 741Q409 733 403 722L326 584Q317 569 303 569Q299 569 293 571Q280 577 280 590Z" />
<glyph unicode="&#xe2;" glyph-name="acircumflex" horiz-adv-x="585" d="M159 -10T104 33T48 153Q48 229 105 273T264 317Q325 317 373 301T445 255V324Q445 383 406 414T291 445Q197 445 126 399Q112 391 102 391Q94 391 85 397Q75 405 75 418Q75 431 85 439Q122
467 176 483T289 500Q393 500 450 453T507 320V26Q507 -10 477 -10Q463 -10 455 -1T446 25V66Q415 29 367 10T257 -10Q159 -10 104 33ZM344 45T395 76T446 159Q446 208 398 235T264 263Q190 263 151 235T111 153Q111 100 149 73T262 45Q344 45 395 76ZM159 583T159
596Q159 606 167 617L273 743Q286 759 302 759Q318 759 331 743L436 617Q445 607 445 596Q445 584 432 574Q423 568 416 568Q402 568 388 586L302 700L216 586Q202 567 187 567Q180 567 172 573Q159 583 159 596Z" />
<glyph unicode="&#xe3;" glyph-name="atilde" horiz-adv-x="585" d="M159 -10T104 33T48 153Q48 229 105 273T264 317Q325 317 373 301T445 255V324Q445 383 406 414T291 445Q197 445 126 399Q112 391 102 391Q94 391 85 397Q75 405 75 418Q75 431 85 439Q122
467 176 483T289 500Q393 500 450 453T507 320V26Q507 -10 477 -10Q463 -10 455 -1T446 25V66Q415 29 367 10T257 -10Q159 -10 104 33ZM344 45T395 76T446 159Q446 208 398 235T264 263Q190 263 151 235T111 153Q111 100 149 73T262 45Q344 45 395 76ZM140 584T140
606Q140 613 141 618Q149 652 173 673T232 695Q256 695 274 687T315 662Q331 650 343 644T369 638Q405 638 416 681Q421 701 438 701Q464 701 464 680Q464 676 462 668Q454 633 430 612T371 591Q350 591 333 599T295 622Q273 636 261 642T234 648Q200 648 188 605Q182
584 165 584Q140 584 140 606Z" />
<glyph unicode="&#xe4;" glyph-name="adieresis" horiz-adv-x="585" d="M159 -10T104 33T48 153Q48 229 105 273T264 317Q325 317 373 301T445 255V324Q445 383 406 414T291 445Q197 445 126 399Q112 391 102 391Q94 391 85 397Q75 405 75 418Q75 431 85 439Q122
467 176 483T289 500Q393 500 450 453T507 320V26Q507 -10 477 -10Q463 -10 455 -1T446 25V66Q415 29 367 10T257 -10Q159 -10 104 33ZM344 45T395 76T446 159Q446 208 398 235T264 263Q190 263 151 235T111 153Q111 100 149 73T262 45Q344 45 395 76ZM183 589T169
602T155 634Q155 653 169 667T202 681Q221 681 234 667T248 634Q248 616 235 603T202 589Q183 589 169 602ZM385 589T371 602T357 634Q357 653 371 667T404 681Q422 681 436 667T450 634Q450 616 436 603T404 589Q385 589 371 602Z" />
<glyph unicode="&#xe5;" glyph-name="aring" horiz-adv-x="585" d="M159 -10T104 33T48 153Q48 229 105 273T264 317Q325 317 373 301T445 255V324Q445 383 406 414T291 445Q197 445 126 399Q112 391 102 391Q94 391 85 397Q75 405 75 418Q75 431 85 439Q122 467
176 483T289 500Q393 500 450 453T507 320V26Q507 -10 477 -10Q463 -10 455 -1T446 25V66Q415 29 367 10T257 -10Q159 -10 104 33ZM344 45T395 76T446 159Q446 208 398 235T264 263Q190 263 151 235T111 153Q111 100 149 73T262 45Q344 45 395 76ZM252 536T221
564T190 637Q190 680 221 708T302 737Q352 737 382 709T413 637Q413 593 383 565T302 536Q252 536 221 564ZM331 577T348 593T366 637Q366 665 349 681T302 697Q273 697 256 681T239 637Q239 609 256 593T302 577Q331 577 348 593Z" />
<glyph unicode="&#xe6;" glyph-name="ae" horiz-adv-x="1007" d="M159 -10T104 35T48 159Q48 236 106 282T263 328Q323 328 369 312T442 266V312Q442 373 401 409T289 445Q241 445 202 434T124 399Q110 390 101 390Q91 390 83 397Q74 405 74 418Q74 431 83 438Q121
467 175 483T287 500Q437 500 481 387Q510 440 567 470T699 500Q776 500 835 476T927 407T960 304Q960 264 939 242T877 220H505Q505 137 557 92T706 47Q765 47 808 61T888 109Q905 124 915 124Q922 124 931 117Q943 108 943 96Q943 86 934 77Q851 -9 706 -9Q556
-9 482 94Q402 -10 257 -10Q159 -10 104 35ZM859 272Q880 272 888 280T897 308Q897 348 872 379T802 427T699 445Q610 445 559 399T507 272H859ZM343 45T393 77T443 165Q443 217 396 245T262 274Q192 274 152 243T111 159Q111 103 149 74T260 45Q343 45 393 77Z"
/>
<glyph unicode="&#xe7;" glyph-name="ccedilla" horiz-adv-x="591" d="M538 103T538 91Q538 81 529 72Q485 33 437 13T330 -10L329 -12L305 -59Q346 -58 366 -77T386 -128Q386 -164 361 -187T291 -210Q259 -210 233 -196T192 -161Q186 -154 186 -146Q186 -138
196 -129Q204 -124 210 -124Q220 -124 227 -135Q249 -165 290 -165Q312 -165 323 -155T335 -126Q335 -109 326 -99T298 -89Q290 -89 285 -90Q271 -92 262 -85T252 -67Q252 -61 255 -55L277 -8Q172 3 110 71T48 246Q48 322 81 379T174 468T313 500Q462 500 528 419Q536
409 536 400Q536 387 523 377Q517 371 507 371Q500 371 493 374T480 384Q452 415 411 430T313 445Q216 445 164 394T111 246Q111 151 164 99T313 46Q367 46 410 61T482 107Q496 121 510 121Q520 121 527 114Q538 103 538 91Z" />
<glyph unicode="&#xe8;" glyph-name="egrave" horiz-adv-x="630" d="M187 -10T117 57T47 249Q47 365 118 432T314 500Q391 500 450 476T543 407T576 306Q576 266 554 243T493 220H112Q112 138 165 92T316 46Q376 46 418 59T497 104Q512 118 524 118Q532 118 539
112Q551 102 551 90Q551 80 542 71Q463 -10 316 -10Q187 -10 117 57ZM475 272Q495 272 504 280T513 309Q513 348 488 379T417 427T314 445Q219 445 166 400T113 272H475ZM326 569T322 569Q308 569 299 584L221 722Q215 731 215 740Q215 755 233 764Q241 768 249
768Q267 768 278 742L341 602Q344 596 344 589Q344 576 332 571Q326 569 322 569Z" />
<glyph unicode="&#xe9;" glyph-name="eacute" horiz-adv-x="630" d="M187 -10T117 57T47 249Q47 365 118 432T314 500Q391 500 450 476T543 407T576 306Q576 266 554 243T493 220H112Q112 138 165 92T316 46Q376 46 418 59T497 104Q512 118 524 118Q532 118 539
112Q551 102 551 90Q551 80 542 71Q463 -10 316 -10Q187 -10 117 57ZM475 272Q495 272 504 280T513 309Q513 348 488 379T417 427T314 445Q219 445 166 400T113 272H475ZM295 577T295 590Q295 596 298 602L361 742Q374 769 391 769Q397 769 407 764Q424 756 424
741Q424 733 418 722L341 584Q332 569 318 569Q314 569 308 571Q295 577 295 590Z" />
<glyph unicode="&#xea;" glyph-name="ecircumflex" horiz-adv-x="630" d="M187 -10T117 57T47 249Q47 365 118 432T314 500Q391 500 450 476T543 407T576 306Q576 266 554 243T493 220H112Q112 138 165 92T316 46Q376 46 418 59T497 104Q512 118 524 118Q532 118
539 112Q551 102 551 90Q551 80 542 71Q463 -10 316 -10Q187 -10 117 57ZM475 272Q495 272 504 280T513 309Q513 348 488 379T417 427T314 445Q219 445 166 400T113 272H475ZM175 583T175 596Q175 606 183 617L289 743Q302 759 318 759Q334 759 347 743L452 617Q461
607 461 596Q461 584 448 574Q439 568 432 568Q418 568 404 586L318 700L232 586Q218 567 203 567Q196 567 188 573Q175 583 175 596Z" />
<glyph unicode="&#xeb;" glyph-name="edieresis" horiz-adv-x="630" d="M187 -10T117 57T47 249Q47 365 118 432T314 500Q391 500 450 476T543 407T576 306Q576 266 554 243T493 220H112Q112 138 165 92T316 46Q376 46 418 59T497 104Q512 118 524 118Q532 118
539 112Q551 102 551 90Q551 80 542 71Q463 -10 316 -10Q187 -10 117 57ZM475 272Q495 272 504 280T513 309Q513 348 488 379T417 427T314 445Q219 445 166 400T113 272H475ZM198 589T184 602T170 634Q170 653 184 667T217 681Q236 681 249 667T263 634Q263 616
250 603T217 589Q198 589 184 602ZM400 589T386 602T372 634Q372 653 386 667T419 681Q437 681 451 667T465 634Q465 616 451 603T419 589Q400 589 386 602Z" />
<glyph unicode="&#xec;" glyph-name="igrave" horiz-adv-x="249" d="M110 -10T102 -1T94 26V464Q94 500 125 500Q140 500 148 491T156 464V26Q156 9 148 0T125 -10Q110 -10 102 -1ZM131 559T127 559Q113 559 104 574L26 712Q20 721 20 730Q20 745 38 754Q46 758
54 758Q72 758 83 732L146 592Q149 586 149 579Q149 566 137 561Q131 559 127 559Z" />
<glyph unicode="&#xed;" glyph-name="iacute" horiz-adv-x="249" d="M110 -10T102 -1T94 26V464Q94 500 125 500Q140 500 148 491T156 464V26Q156 9 148 0T125 -10Q110 -10 102 -1ZM103 567T103 580Q103 586 106 592L169 732Q182 759 199 759Q205 759 215 754Q232
746 232 731Q232 723 226 712L149 574Q140 559 126 559Q122 559 116 561Q103 567 103 580Z" />
<glyph unicode="&#xee;" glyph-name="icircumflex" horiz-adv-x="249" d="M110 -10T102 -1T94 26V464Q94 500 125 500Q140 500 148 491T156 464V26Q156 9 148 0T125 -10Q110 -10 102 -1ZM-17 573T-17 586Q-17 596 -9 607L97 733Q110 749 126 749Q141 749 155 733L261
607Q269 596 269 586Q269 575 257 564Q248 558 240 558Q225 558 212 576L126 690L40 576Q24 557 11 557Q3 557 -4 563Q-17 573 -17 586Z" />
<glyph unicode="&#xef;" glyph-name="idieresis" horiz-adv-x="249" d="M110 -10T102 -1T94 26V464Q94 500 125 500Q140 500 148 491T156 464V26Q156 9 148 0T125 -10Q110 -10 102 -1ZM7 579T-7 592T-21 624Q-21 643 -7 657T26 671Q45 671 58 657T72 624Q72 606
59 593T26 579Q7 579 -7 592ZM209 579T195 592T181 624Q181 643 195 657T228 671Q247 671 260 657T274 624Q274 606 261 593T228 579Q209 579 195 592Z" />
<glyph unicode="&#xf0;" glyph-name="eth" horiz-adv-x="644" d="M592 517T592 347Q592 178 517 84T305 -10Q228 -10 171 21T83 107T52 233Q52 300 81 353T167 438T304 469Q384 469 443 432T536 332L538 333Q536 417 516 475T449 576L397 523Q388 514 377 514Q368
514 360 520Q353 527 353 537Q353 547 361 557L409 607Q364 637 291 663Q275 669 275 684Q275 693 280 701Q287 715 302 715Q310 715 325 710Q403 680 448 647L514 715Q523 724 534 724Q542 724 551 717Q559 709 559 699Q559 689 550 681L487 616Q592 517 592 347ZM361
47T407 70T481 134T508 229Q508 281 481 323T408 388T305 412Q217 412 167 364T116 230Q116 145 166 96T305 47Q361 47 407 70Z" />
<glyph unicode="&#xf1;" glyph-name="ntilde" horiz-adv-x="611" d="M92 -10T84 -1T76 26V464Q76 500 107 500Q122 500 130 491T138 464V399Q175 448 228 474T344 500Q440 500 490 449T541 299V26Q541 9 533 0T509 -10Q479 -10 479 26V299Q479 373 445 409T340
445Q249 445 194 392T138 251V26Q138 9 130 0T107 -10Q92 -10 84 -1ZM145 594T145 616Q145 623 146 628Q154 662 178 683T237 705Q261 705 279 697T320 672Q336 660 348 654T374 648Q410 648 421 691Q426 711 443 711Q469 711 469 690Q469 686 467 678Q459 643
435 622T376 601Q355 601 338 609T300 632Q278 646 266 652T239 658Q205 658 193 615Q187 594 170 594Q145 594 145 616Z" />
<glyph unicode="&#xf2;" glyph-name="ograve" horiz-adv-x="634" d="M230 -10T169 25T78 119T48 245Q48 312 78 370T169 464T317 500Q404 500 465 465T556 371T586 245Q586 178 556 120T465 26T317 -10Q230 -10 169 25ZM410 46T466 98T523 245Q523 339 467 392T317
445Q224 445 168 392T111 245Q111 151 167 99T317 46Q410 46 466 98ZM325 579T321 579Q307 579 298 594L220 732Q214 741 214 750Q214 765 232 774Q240 778 248 778Q266 778 277 752L340 612Q343 606 343 599Q343 586 331 581Q325 579 321 579Z" />
<glyph unicode="&#xf3;" glyph-name="oacute" horiz-adv-x="634" d="M230 -10T169 25T78 119T48 245Q48 312 78 370T169 464T317 500Q404 500 465 465T556 371T586 245Q586 178 556 120T465 26T317 -10Q230 -10 169 25ZM410 46T466 98T523 245Q523 339 467 392T317
445Q224 445 168 392T111 245Q111 151 167 99T317 46Q410 46 466 98ZM294 587T294 600Q294 606 297 612L360 752Q373 779 390 779Q396 779 406 774Q423 766 423 751Q423 743 417 732L340 594Q331 579 317 579Q313 579 307 581Q294 587 294 600Z" />
<glyph unicode="&#xf4;" glyph-name="ocircumflex" horiz-adv-x="634" d="M230 -10T169 25T78 119T48 245Q48 312 78 370T169 464T317 500Q404 500 465 465T556 371T586 245Q586 178 556 120T465 26T317 -10Q230 -10 169 25ZM410 46T466 98T523 245Q523 339 467
392T317 445Q224 445 168 392T111 245Q111 151 167 99T317 46Q410 46 466 98ZM175 593T175 606Q175 616 183 627L289 753Q302 769 318 769Q334 769 347 753L452 627Q461 617 461 606Q461 594 448 584Q439 578 432 578Q418 578 404 596L318 710L232 596Q218 577
203 577Q196 577 188 583Q175 593 175 606Z" />
<glyph unicode="&#xf5;" glyph-name="otilde" horiz-adv-x="634" d="M230 -10T169 25T78 119T48 245Q48 312 78 370T169 464T317 500Q404 500 465 465T556 371T586 245Q586 178 556 120T465 26T317 -10Q230 -10 169 25ZM410 46T466 98T523 245Q523 339 467 392T317
445Q224 445 168 392T111 245Q111 151 167 99T317 46Q410 46 466 98ZM155 594T155 616Q155 623 156 628Q164 662 188 683T247 705Q271 705 289 697T330 672Q346 660 358 654T384 648Q420 648 431 691Q436 711 453 711Q479 711 479 690Q479 686 477 678Q469 643
445 622T386 601Q365 601 348 609T310 632Q288 646 276 652T249 658Q215 658 203 615Q197 594 180 594Q155 594 155 616Z" />
<glyph unicode="&#xf6;" glyph-name="odieresis" horiz-adv-x="634" d="M230 -10T169 25T78 119T48 245Q48 312 78 370T169 464T317 500Q404 500 465 465T556 371T586 245Q586 178 556 120T465 26T317 -10Q230 -10 169 25ZM410 46T466 98T523 245Q523 339 467
392T317 445Q224 445 168 392T111 245Q111 151 167 99T317 46Q410 46 466 98ZM198 599T184 612T170 644Q170 663 184 677T217 691Q236 691 249 677T263 644Q263 626 250 613T217 599Q198 599 184 612ZM400 599T386 612T372 644Q372 663 386 677T419 691Q437 691
451 677T465 644Q465 626 451 613T419 599Q400 599 386 612Z" />
<glyph unicode="&#xf7;" glyph-name="divide" horiz-adv-x="497" d="M229 351T216 364T203 395Q203 413 216 426T247 440Q266 440 279 427T292 395Q292 378 279 365T247 351Q229 351 216 364ZM76 216T67 223T58 243Q58 271 93 271H405Q440 271 440 243Q440 230
431 223T405 216H93Q76 216 67 223ZM229 47T216 60T203 91Q203 109 216 122T247 136Q266 136 279 123T292 91Q292 74 279 61T247 47Q229 47 216 60Z" />
<glyph unicode="&#xf8;" glyph-name="oslash" horiz-adv-x="642" d="M518 443T554 381T590 245Q590 178 560 120T469 26T321 -10Q272 -10 231 2L206 -52Q203 -60 196 -65T181 -70Q175 -70 169 -67Q152 -61 152 -44Q152 -38 155 -32L180 22Q117 54 85 114T52 245Q52
312 82 370T173 464T321 500Q359 500 396 492L420 543Q423 551 430 555T445 560Q450 560 456 557Q473 551 473 534Q473 526 471 522L449 474Q518 443 554 381ZM115 185T138 142T204 74L373 440Q345 445 321 445Q227 445 171 393T115 245Q115 185 138 142ZM415 46T471
98T527 245Q527 309 500 354T425 423L255 54Q287 46 321 46Q415 46 471 98Z" />
<glyph unicode="&#xf9;" glyph-name="ugrave" horiz-adv-x="611" d="M181 -10T126 46T71 200V464Q71 481 79 490T103 500Q133 500 133 464V200Q133 126 172 86T282 46Q338 46 381 70T449 139T474 239V464Q474 481 482 490T505 500Q536 500 536 464V26Q536 -10
505 -10Q490 -10 482 -1T474 26V91Q437 42 387 16T278 -10Q181 -10 126 46ZM313 579T309 579Q295 579 286 594L208 732Q202 741 202 750Q202 765 220 774Q228 778 236 778Q254 778 265 752L328 612Q331 606 331 599Q331 586 319 581Q313 579 309 579Z" />
<glyph unicode="&#xfa;" glyph-name="uacute" horiz-adv-x="611" d="M181 -10T126 46T71 200V464Q71 481 79 490T103 500Q133 500 133 464V200Q133 126 172 86T282 46Q338 46 381 70T449 139T474 239V464Q474 481 482 490T505 500Q536 500 536 464V26Q536 -10
505 -10Q490 -10 482 -1T474 26V91Q437 42 387 16T278 -10Q181 -10 126 46ZM282 587T282 600Q282 606 285 612L348 752Q361 779 378 779Q384 779 394 774Q411 766 411 751Q411 743 405 732L328 594Q319 579 305 579Q301 579 295 581Q282 587 282 600Z" />
<glyph unicode="&#xfb;" glyph-name="ucircumflex" horiz-adv-x="611" d="M181 -10T126 46T71 200V464Q71 481 79 490T103 500Q133 500 133 464V200Q133 126 172 86T282 46Q338 46 381 70T449 139T474 239V464Q474 481 482 490T505 500Q536 500 536 464V26Q536
-10 505 -10Q490 -10 482 -1T474 26V91Q437 42 387 16T278 -10Q181 -10 126 46ZM163 593T163 606Q163 616 171 627L277 753Q290 769 306 769Q322 769 335 753L440 627Q449 617 449 606Q449 594 436 584Q427 578 420 578Q406 578 392 596L306 710L220 596Q206 577
191 577Q184 577 176 583Q163 593 163 606Z" />
<glyph unicode="&#xfc;" glyph-name="udieresis" horiz-adv-x="611" d="M181 -10T126 46T71 200V464Q71 481 79 490T103 500Q133 500 133 464V200Q133 126 172 86T282 46Q338 46 381 70T449 139T474 239V464Q474 481 482 490T505 500Q536 500 536 464V26Q536 -10
505 -10Q490 -10 482 -1T474 26V91Q437 42 387 16T278 -10Q181 -10 126 46ZM186 599T172 612T158 644Q158 663 172 677T205 691Q224 691 237 677T251 644Q251 626 238 613T205 599Q186 599 172 612ZM388 599T374 612T360 644Q360 663 374 677T407 691Q425 691 439
677T453 644Q453 626 439 613T407 599Q388 599 374 612Z" />
<glyph unicode="&#xfd;" glyph-name="yacute" horiz-adv-x="634" d="M224 -250T166 -229T82 -169Q77 -162 77 -152Q77 -137 90 -127Q97 -123 106 -123Q123 -123 134 -137Q156 -164 200 -180T295 -196Q389 -196 444 -139T499 15V88Q467 44 418 21T305 -3Q184 -3
116 67T47 263V467Q47 481 56 490T79 499Q93 499 102 490T111 467V263Q111 162 162 106T305 50Q396 50 445 103T494 254V457Q494 477 503 488T529 500Q563 500 563 457V17Q563 -61 530 -121T436 -216T298 -250Q224 -250 166 -229ZM274 587T274 600Q274 606 277
612L340 752Q353 779 370 779Q376 779 386 774Q403 766 403 751Q403 743 397 732L320 594Q311 579 297 579Q293 579 287 581Q274 587 274 600Z" />
<glyph unicode="&#xfe;" glyph-name="thorn" horiz-adv-x="680" d="M79 -299T79 -263V753Q79 789 110 789Q125 789 133 780T142 753V394Q227 500 361 500Q489 500 559 434T629 245Q629 168 597 110T504 21T361 -10Q227 -10 142 97V-263Q142 -280 134 -289T110
-299Q79 -299 79 -263ZM455 46T510 99T566 245Q566 445 359 445Q258 445 200 392T141 245Q141 188 169 143T247 72T359 46Q455 46 510 99Z" />
<glyph unicode="&#xff;" glyph-name="ydieresis" horiz-adv-x="634" d="M224 -250T166 -229T82 -169Q77 -162 77 -152Q77 -137 90 -127Q97 -123 106 -123Q123 -123 134 -137Q156 -164 200 -180T295 -196Q389 -196 444 -139T499 15V88Q467 44 418 21T305 -3Q184
-3 116 67T47 263V467Q47 481 56 490T79 499Q93 499 102 490T111 467V263Q111 162 162 106T305 50Q396 50 445 103T494 254V457Q494 477 503 488T529 500Q563 500 563 457V17Q563 -61 530 -121T436 -216T298 -250Q224 -250 166 -229ZM178 599T164 612T150 644Q150
663 164 677T197 691Q216 691 229 677T243 644Q243 626 230 613T197 599Q178 599 164 612ZM380 599T366 612T352 644Q352 663 366 677T399 691Q417 691 431 677T445 644Q445 626 431 613T399 599Q380 599 366 612Z" />
<glyph unicode="&#x2013;" glyph-name="endash" horiz-adv-x="670" d="M70 216T61 223T52 243Q52 271 87 271H583Q618 271 618 243Q618 230 609 223T583 216H87Q70 216 61 223Z" />
<glyph unicode="&#x2014;" glyph-name="emdash" horiz-adv-x="925" d="M70 216T61 223T52 243Q52 271 87 271H838Q873 271 873 243Q873 230 864 223T838 216H87Q70 216 61 223Z" />
<glyph unicode="&#x2018;" glyph-name="quoteleft" horiz-adv-x="236" d="M87 465T70 485T52 542Q52 582 74 623T135 698Q144 705 152 710T165 715Q173 715 179 707Q185 700 185 693Q185 685 170 672Q147 652 130 626T111 579Q119 581 124 581Q145 581 162 565T179
525Q179 497 162 481T116 465Q87 465 70 485Z" />
<glyph unicode="&#x2019;" glyph-name="quoteright" horiz-adv-x="236" d="M52 481T52 486Q52 497 66 508Q91 529 107 554T126 601Q118 599 113 599Q92 599 75 615T58 655Q58 683 75 699T121 715Q150 715 167 695T184 638Q184 599 162 557T102 482Q81 466 72 466Q64
466 57 474Q52 481 52 486Z" />
<glyph unicode="&#x201a;" glyph-name="quotesinglbase" horiz-adv-x="236" d="M52 -125T52 -118Q52 -109 66 -97Q90 -78 107 -52T126 -4Q118 -6 113 -6Q92 -6 75 11T58 51Q58 79 75 94T121 110Q150 110 167 90T184 33Q184 -5 162 -47T102 -123Q83 -139 72 -139Q64
-139 58 -132Q52 -125 52 -118Z" />
<glyph unicode="&#x201c;" glyph-name="quotedblleft" horiz-adv-x="414" d="M88 465T71 485T54 542Q54 582 76 623T137 698Q157 715 166 715Q174 715 180 707Q186 700 186 693Q186 684 172 672Q148 653 131 627T112 579Q120 581 125 581Q146 581 163 565T180
525Q180 497 163 481T117 465Q88 465 71 485ZM263 465T246 485T228 542Q228 581 250 623T311 698Q330 714 341 714Q350 714 355 706Q361 699 361 693Q361 683 347 672Q323 652 306 626T287 579Q295 581 300 581Q321 581 338 565T355 525Q355 497 338 481T292 465Q263
465 246 485Z" />
<glyph unicode="&#x201d;" glyph-name="quotedblright" horiz-adv-x="414" d="M53 480T53 487Q53 496 68 508Q93 529 109 554T127 601Q119 599 114 599Q93 599 76 615T59 655Q59 683 76 699T122 715Q151 715 168 695T186 638Q186 600 164 558T103 482Q82 466 74
466Q66 466 59 474Q53 480 53 487ZM228 481T228 487Q228 497 242 508Q266 527 283 554T302 601Q294 599 289 599Q267 599 251 615T234 655Q234 683 251 699T297 715Q326 715 343 695T361 638Q361 600 339 558T278 482Q257 466 248 466Q240 466 234 473Q228 481
228 487Z" />
<glyph unicode="&#x201e;" glyph-name="quotedblbase" horiz-adv-x="414" d="M54 -125T54 -118Q54 -108 68 -97Q91 -78 108 -52T127 -4Q119 -6 114 -6Q93 -6 76 11T59 51Q59 79 76 94T122 110Q151 110 168 90T186 33Q186 -5 164 -47T103 -123Q84 -139 73 -139Q66
-139 60 -132Q54 -125 54 -118ZM228 -125T228 -118Q228 -110 243 -97Q265 -79 283 -52T302 -4Q294 -6 289 -6Q268 -6 251 11T234 51Q234 78 251 94T297 110Q326 110 343 90T361 33Q361 -6 339 -48T278 -123Q261 -139 248 -139Q239 -139 234 -131Q228 -125 228 -118Z"
/>
<glyph unicode="&#x2022;" glyph-name="bullet" horiz-adv-x="303" d="M111 187T82 215T52 286Q52 327 81 355T153 383Q194 383 222 355T251 286Q251 245 223 216T153 187Q111 187 82 215Z" />
<glyph unicode="&#x2039;" glyph-name="guilsinglleft" horiz-adv-x="318" d="M243 50T236 50Q222 50 212 63L60 249Q52 259 52 266Q52 276 60 286L212 472Q223 485 237 485Q244 485 251 481Q266 471 266 455Q266 446 260 440L116 267L260 95Q266 89 266 80Q266
65 251 55Q243 50 236 50Z" />
<glyph unicode="&#x203a;" glyph-name="guilsinglright" horiz-adv-x="318" d="M53 64T53 79Q53 88 59 95L202 267L59 440Q53 448 53 456Q53 472 67 481Q74 485 82 485Q96 485 107 472L259 286Q266 277 266 266Q266 257 259 249L107 63Q96 50 83 50Q75 50 67 55Q53
64 53 79Z" />
</font>
</defs>
</svg>
