<?xml version="1.0" standalone="no"?>
<!DOCTYPE svg PUBLIC "-//W3C//DTD SVG 1.1//EN" "http://www.w3.org/Graphics/SVG/1.1/DTD/svg11.dtd">
<svg xmlns="http://www.w3.org/2000/svg">
<defs >
<font id="Kodchasan" horiz-adv-x="613" ><font-face
    font-family="Kodchasan"
    units-per-em="1000"
    panose-1="0 0 5 0 0 0 0 0 0 0"
    ascent="1024"
    descent="-276"
    alphabetic="0" />
<glyph unicode=" " glyph-name="space" horiz-adv-x="268" />
<glyph unicode="!" glyph-name="exclam" horiz-adv-x="270" d="M107 163T101 171T94 192Q94 198 95 201L171 671Q174 689 187 699T218 710Q233 710 243 702T253 679Q253 673 252 670L163 202Q155 163 122 163Q107 163 101 171ZM68 -10T54 2T39 35Q39 63 60 83T111
103Q134 103 148 90T163 56Q163 27 142 9T91 -10Q68 -10 54 2Z" />
<glyph unicode="&quot;" glyph-name="quotedbl" horiz-adv-x="349" d="M230 493T230 510Q230 519 234 527L300 682Q315 717 341 717Q345 717 353 715Q375 708 375 691Q375 685 368 669L286 512Q279 498 269 492T246 489Q230 493 230 510ZM112 488T106 493T100
508Q100 515 105 527L171 682Q186 717 212 717Q215 717 223 715Q244 709 244 692Q244 680 237 669L156 512Q143 488 123 488Q112 488 106 493Z" />
<glyph unicode="#" glyph-name="numbersign" horiz-adv-x="802" d="M794 507T794 483Q794 465 783 455T749 444H648L562 265H660Q694 265 694 241Q694 223 683 213T649 202H532L442 15Q428 -12 404 -12Q390 -12 383 -6T375 11Q375 21 379 29L462 202H231L141 15Q127
-12 103 -12Q89 -12 82 -6T74 11Q74 21 78 29L161 202H83Q63 202 55 211T49 233Q55 265 94 265H191L277 444H183Q163 444 155 453T149 475Q155 507 194 507H307L392 683Q405 710 432 710Q461 710 461 689Q461 682 456 670L378 507H609L694 683Q707 710 734 710Q762
710 762 689Q762 682 757 670L679 507H760Q794 507 794 483ZM579 444H347L261 265H493L579 444Z" />
<glyph unicode="$" glyph-name="dollar" horiz-adv-x="689" d="M670 573T670 568Q670 554 658 543T629 531Q610 531 600 548Q581 581 547 604T447 633L404 386Q482 366 528 344T598 288T622 205Q622 143 587 97T487 26T336 0L322 -77Q320 -92 312 -101T289 -110Q263
-110 263 -85L264 -77L278 3Q195 11 134 43T46 122Q41 131 41 137Q41 152 53 164T85 176Q90 176 95 172T109 158Q151 113 193 92T289 66L335 328Q223 360 173 397T123 503Q123 562 159 606T259 674T401 700L418 796Q424 829 452 829Q465 829 471 822T477 804Q477
799 476 796L459 698Q540 691 595 659T667 582Q670 573 670 568ZM201 465T234 443T348 400L390 635Q303 632 252 601T201 511Q201 465 234 443ZM545 227T529 248T481 283T391 313L347 65Q439 69 492 101T545 194Q545 227 529 248Z" />
<glyph unicode="%" glyph-name="percent" horiz-adv-x="739" d="M65 3T65 15Q65 30 77 43L641 696Q655 712 672 712Q681 712 692 706Q705 699 705 685Q705 672 694 659L128 4Q114 -12 96 -12Q85 -12 75 -5Q65 3 65 15ZM181 409T142 445T102 536Q102 582 126 622T192
687T282 712Q340 712 378 676T416 586Q416 539 392 499T326 434T238 409Q181 409 142 445ZM287 472T317 503T348 579Q348 611 329 631T276 651Q231 651 200 619T169 542Q169 511 189 492T244 472Q287 472 317 503ZM440 -10T401 26T362 117Q362 163 386 203T452
268T541 293Q599 293 637 257T676 167Q676 120 652 80T586 15T497 -10Q440 -10 401 26ZM547 53T577 84T607 160Q607 192 588 212T535 232Q490 232 459 199T428 123Q428 92 448 73T504 53Q547 53 577 84Z" />
<glyph unicode="&amp;" glyph-name="ampersand" horiz-adv-x="762" d="M164 -10T101 37T38 162Q38 243 95 307T259 410Q194 469 194 532Q194 612 247 661T389 710Q454 710 493 676T533 585Q533 526 493 477T374 391L539 197Q566 231 586 269T622 364Q626 379 636
388T661 397Q677 397 686 390T695 369Q695 362 693 356Q671 287 645 237T584 146L668 49Q676 39 676 30Q676 16 663 4T634 -9Q622 -9 615 -1L533 96Q482 48 411 19T268 -10Q164 -10 101 37ZM458 488T458 577Q458 609 437 627T378 646Q329 646 298 616T267 539Q267
516 280 495T332 438Q458 488 458 577ZM343 54T397 77T491 144L305 362Q113 304 113 172Q113 118 158 86T279 54Q343 54 397 77Z" />
<glyph unicode="&apos;" glyph-name="quotesingle" horiz-adv-x="212" d="M97 493T97 510Q97 519 101 527L167 682Q174 698 185 707T208 717Q212 717 220 715Q242 708 242 692Q242 683 235 669L154 512Q147 498 136 492T113 489Q97 493 97 510Z" />
<glyph unicode="(" glyph-name="parenleft" horiz-adv-x="292" d="M148 -133T141 -133Q130 -133 122 -127T108 -110Q48 5 48 163Q48 234 61 305Q82 424 132 531T256 722Q263 731 273 737T295 743Q304 743 312 738Q326 730 326 716Q326 704 315 692Q249 617 203
516T137 303Q124 232 124 162Q124 13 179 -82Q183 -89 183 -96Q183 -106 177 -114T160 -128Q148 -133 141 -133Z" />
<glyph unicode=")" glyph-name="parenright" horiz-adv-x="294" d="M-10 -119T-10 -106Q-10 -95 2 -81Q64 -13 111 88T179 305Q191 376 191 442Q191 592 137 692Q133 699 133 707Q133 725 155 737Q167 743 177 743Q196 743 208 720Q237 664 252 594T268 446Q268
379 256 308Q235 187 184 79T61 -111Q42 -133 21 -133Q12 -133 4 -128Q-10 -119 -10 -106Z" />
<glyph unicode="*" glyph-name="asterisk" horiz-adv-x="451" d="M227 326T220 334T215 356L234 461L125 390Q113 383 104 383Q90 383 83 395Q78 403 78 410Q78 426 95 437L225 517L124 595Q114 602 114 614Q114 624 126 639Q139 652 152 652Q162 652 171 645L254
573L272 679Q274 692 284 699T308 707Q322 707 329 700T334 679L316 573L424 645Q434 652 444 652Q459 652 467 639Q471 632 471 624Q471 616 467 608T453 595L324 517L426 437Q435 430 435 419Q435 408 424 395Q414 383 398 383Q388 383 379 390L296 461L277 356Q275
343 265 335T241 326Q227 326 220 334Z" />
<glyph unicode="+" glyph-name="plus" horiz-adv-x="508" d="M490 282T490 258Q490 241 478 230T444 219H284L259 78Q253 40 218 40Q203 40 197 48T190 70Q190 75 191 78L216 219H55Q38 219 30 225T21 244Q21 263 33 272T66 282H227L253 427Q256 445 266 455T292
465Q308 465 315 457T322 436L321 427L295 282H455Q490 282 490 258Z" />
<glyph unicode="," glyph-name="comma" horiz-adv-x="233" d="M-4 -131T-9 -126T-14 -113Q-14 -101 6 -87Q72 -39 82 -2Q73 -5 66 -5Q46 -5 33 8T19 42Q19 71 41 90T97 110Q122 110 136 95T151 53Q151 11 121 -33T36 -115Q13 -131 2 -131Q-4 -131 -9 -126Z" />
<glyph unicode="-" glyph-name="hyphen" horiz-adv-x="474" d="M63 212T55 220T49 243Q55 275 94 275H390Q426 275 426 250Q426 233 414 223T379 212H83Q63 212 55 220Z" />
<glyph unicode="." glyph-name="period" horiz-adv-x="215" d="M44 1T30 15T15 49Q15 75 37 95T86 116Q106 116 120 102T135 67Q135 42 113 22T65 1Q44 1 30 15Z" />
<glyph unicode="/" glyph-name="slash" horiz-adv-x="545" d="M-8 -95T-8 -79Q-8 -67 -1 -57L523 776Q536 798 558 798Q574 798 582 791T591 773Q591 763 583 750L59 -84Q52 -94 42 -100T21 -107Q14 -107 8 -104Q-8 -95 -8 -79Z" />
<glyph unicode="0" glyph-name="zero" horiz-adv-x="678" d="M185 -10T123 59T61 251Q61 384 106 488T233 651T418 710Q530 710 592 641T655 448Q655 316 609 212T482 49T297 -10Q185 -10 123 59ZM384 54T447 105T545 248T581 452Q581 547 538 596T410 646Q332
646 269 595T171 453T135 250Q135 154 179 104T306 54Q384 54 447 105Z" />
<glyph unicode="1" glyph-name="one" horiz-adv-x="371" d="M182 -10T182 19Q182 26 183 30L287 624L154 576Q145 572 133 572Q110 572 104 592Q103 595 103 602Q103 628 135 640L326 707Q335 710 343 710Q356 710 364 702T372 680Q372 674 371 671L258 30Q255
11 243 1T213 -10Q182 -10 182 19Z" />
<glyph unicode="2" glyph-name="two" horiz-adv-x="628" d="M29 0T20 8T11 28Q11 38 17 48T34 67L453 375Q500 409 524 448T548 541Q548 591 511 618T402 646Q339 646 280 622T180 554Q165 538 147 538Q137 538 127 545Q117 553 117 566Q117 582 131 596Q188 653
260 681T412 710Q510 710 567 665T624 546Q624 477 586 423T477 318L131 62H510Q543 62 543 38Q543 20 532 10T499 0H45Q29 0 20 8Z" />
<glyph unicode="3" glyph-name="three" horiz-adv-x="644" d="M204 -10T136 21T35 106Q29 116 29 125Q29 141 43 152T74 164Q81 164 86 161T98 148Q128 105 171 80T292 54Q395 54 455 100T515 227Q515 335 392 335H281Q246 335 246 361Q246 379 258 388T292 398H403Q468
398 510 438T553 540Q553 646 401 646Q330 646 281 623T192 565Q174 549 159 549Q147 549 138 557T128 577Q128 592 143 607Q188 652 260 681T409 710Q475 710 525 690T602 632T630 547Q630 488 594 442T497 368V367Q545 346 567 312T590 229Q590 154 550 100T440
18T288 -10Q204 -10 136 21Z" />
<glyph unicode="4" glyph-name="four" horiz-adv-x="643" d="M378 -10T378 21Q378 27 379 31L403 162H61Q46 162 38 168T29 186Q29 199 43 215L506 695Q521 710 541 710Q556 710 563 701T569 678L488 225H561Q595 225 595 200Q595 181 583 172T550 162H478L454
31Q450 11 438 1T409 -10Q378 -10 378 21ZM416 225L478 581L136 225H416Z" />
<glyph unicode="5" glyph-name="five" horiz-adv-x="649" d="M199 -10T136 19T37 106Q31 115 31 125Q31 142 45 153T74 164Q92 164 101 147Q126 102 174 78T287 54Q359 54 413 84T498 168T528 291Q528 357 485 392T365 428Q317 428 270 410T191 362Q174 346 162
339T138 332Q122 332 113 339T103 360Q103 371 106 379L189 635Q199 666 224 683T285 700H607Q642 700 642 676Q642 658 630 648T596 638H292Q275 638 266 631T250 604L193 429Q236 460 286 476T388 493Q450 493 499 470T577 402T605 299Q605 209 563 139T446 29T277
-10Q199 -10 136 19Z" />
<glyph unicode="6" glyph-name="six" horiz-adv-x="650" d="M186 -10T123 61T59 260Q59 383 105 486T235 649T423 710Q492 710 549 685T642 613Q648 606 648 594Q648 579 636 568T609 556Q594 556 579 572Q544 610 509 628T416 646Q308 646 238 570T143 354L144
353Q189 413 251 446T387 480Q489 480 546 428T604 285Q604 201 564 134T454 29T295 -10Q186 -10 123 61ZM370 54T420 83T499 162T528 274Q528 340 487 378T373 416Q312 416 258 386T172 306T139 200Q139 135 186 95T308 54Q370 54 420 83Z" />
<glyph unicode="7" glyph-name="seven" horiz-adv-x="585" d="M98 4T98 17Q98 30 111 48L535 638H149Q110 638 115 668Q121 700 160 700H585Q620 700 620 672Q620 666 619 663Q615 641 602 623L165 10Q158 0 149 -5T129 -10Q119 -10 111 -5Q98 4 98 17Z" />
<glyph unicode="8" glyph-name="eight" horiz-adv-x="656" d="M171 -10T105 36T38 162Q38 230 87 286T219 368V370Q171 389 147 421T123 501Q123 561 159 608T260 683T407 710Q510 710 571 667T632 550Q632 489 592 440T481 368V367Q542 343 571 306T600 216Q600
151 559 100T446 19T284 -10Q171 -10 105 36ZM413 397T458 415T530 466T556 540Q556 590 516 618T402 646Q342 646 296 629T224 579T198 506Q198 455 239 426T355 397Q413 397 458 415ZM361 54T413 73T495 129T524 212Q524 272 478 304T348 336Q280 336 227 316T144
259T114 175Q114 116 160 85T292 54Q361 54 413 73Z" />
<glyph unicode="9" glyph-name="nine" horiz-adv-x="652" d="M215 -10T154 16T65 83Q58 94 58 102Q58 116 71 129T99 142Q106 142 112 139T127 126Q168 86 205 70T289 54Q393 54 458 126T549 346L547 347Q504 284 443 252T308 219Q241 219 191 245T113 318T85
429Q85 508 126 572T240 673T401 710Q632 710 632 445Q632 317 587 213T462 50T284 -10Q215 -10 154 16ZM384 283T437 312T520 391T551 502Q551 570 509 608T391 646Q326 646 274 618T192 541T162 431Q162 361 204 322T320 283Q384 283 437 312Z" />
<glyph unicode=":" glyph-name="colon" horiz-adv-x="218" d="M106 351T93 364T79 397Q79 425 99 445T149 466Q171 466 185 453T200 418Q200 391 178 371T128 351Q106 351 93 364ZM45 5T31 18T17 52Q17 80 38 100T88 120Q110 120 124 107T139 73Q139 45 117 25T67
5Q45 5 31 18Z" />
<glyph unicode=";" glyph-name="semicolon" horiz-adv-x="226" d="M115 351T102 363T89 396Q89 425 109 445T158 466Q180 466 194 453T209 418Q209 391 187 371T137 351Q115 351 102 363ZM-4 -124T-8 -117T-13 -106Q-13 -95 6 -82Q66 -40 77 -3Q67 -5 62 -5Q44
-5 32 5T19 38Q19 67 40 84T91 102Q115 102 128 89T142 50Q142 10 114 -31T35 -108Q11 -124 2 -124Q-4 -124 -8 -117Z" />
<glyph unicode="&lt;" glyph-name="less" horiz-adv-x="604" d="M69 215Q51 228 51 245Q51 258 59 270T82 289L545 524Q557 530 567 530Q588 530 597 510Q600 504 600 497Q600 485 593 475T573 458L145 247L498 36Q514 26 514 11Q514 1 505 -11Q491 -28 473 -28Q460
-28 449 -20L69 215Z" />
<glyph unicode="=" glyph-name="equal" horiz-adv-x="520" d="M81 289T72 297T63 320Q63 335 75 343T109 352H452Q486 352 486 328Q486 310 474 300T440 289H97Q81 289 72 297ZM55 139T46 146T36 165Q36 183 48 192T82 202H425Q442 202 451 196T461 178Q461 160
449 150T414 139H71Q55 139 46 146Z" />
<glyph unicode="&gt;" glyph-name="greater" horiz-adv-x="603" d="M51 -26T41 -26Q20 -26 11 -6Q8 0 8 7Q8 19 15 29T36 46L462 257L110 468Q94 477 94 492Q94 503 103 515Q116 532 134 532Q146 532 159 524L538 289Q556 279 556 259Q556 231 525 215L63 -20Q51
-26 41 -26Z" />
<glyph unicode="?" glyph-name="question" horiz-adv-x="571" d="M250 163T243 172T235 194L236 203L239 221Q246 265 270 297T319 348T398 404Q448 438 473 470T498 550Q498 596 465 620T363 645Q307 645 259 625T174 567Q157 550 138 550Q126 550 118 559T109
579Q109 591 119 602Q166 653 232 681T373 710Q465 710 520 669T575 555Q575 491 541 449T440 362Q399 335 377 318T337 277T314 221L311 203Q308 184 296 174T266 163Q250 163 243 172ZM214 -10T200 2T185 35Q185 63 206 83T257 103Q280 103 294 90T309 56Q309
27 288 9T237 -10Q214 -10 200 2Z" />
<glyph unicode="@" glyph-name="at" horiz-adv-x="926" d="M287 -69T211 -33T94 69T53 227Q53 368 116 478T294 649T556 711Q661 711 740 676T862 577T905 427Q905 339 874 263T792 142T681 96Q645 96 624 113T599 162Q563 128 514 109T406 90Q328 90 283 124T238
217Q238 270 266 312T345 377T461 400Q510 400 550 386T612 345L620 391Q623 409 623 423Q623 462 595 481T508 500Q468 500 433 491T354 458Q338 450 328 450Q318 450 312 456T305 472Q305 480 309 487T320 499Q358 526 411 541T517 557Q599 557 644 522T689 423Q689
407 686 389L652 195Q651 191 651 185Q651 169 660 160T687 151Q722 151 755 190T810 293T831 422Q831 528 757 588T550 648Q426 648 330 596T180 449T126 233Q126 120 198 57T401 -6Q488 -6 536 11Q556 18 568 18Q581 18 587 8Q591 0 591 -7Q591 -26 568 -38Q506
-69 391 -69Q287 -69 211 -33ZM469 146T510 161T574 204T597 266Q597 303 560 323T455 344Q388 344 347 311T306 225Q306 187 334 167T418 146Q469 146 510 161Z" />
<glyph unicode="A" glyph-name="A" horiz-adv-x="737" d="M58 -10T50 -3T41 19Q41 26 42 30L111 421Q136 562 222 636T446 710Q563 710 629 650T695 485Q695 454 689 421L620 30Q616 10 604 0T575 -10Q543 -10 543 20Q543 27 544 30L584 255H157L117 30Q113 10
101 0T72 -10Q58 -10 50 -3ZM595 317L614 424Q620 459 620 487Q620 646 440 646Q335 646 271 590T187 424L168 317H595Z" />
<glyph unicode="B" glyph-name="B" horiz-adv-x="732" d="M119 -3T90 23T60 95Q60 111 62 119L144 580Q154 637 191 668T289 700H529Q615 700 663 660T712 547Q712 482 677 431T581 356V354Q623 337 646 305T669 230Q669 164 637 111T548 28T421 -3H170Q119 -3
90 23ZM483 388Q551 388 593 431T636 544Q636 638 518 638H282Q259 638 241 622T219 580L185 388H483ZM424 60Q499 60 545 106T592 227Q592 274 560 300T470 327H174L136 117Q135 113 135 105Q135 84 147 72T180 60H424Z" />
<glyph unicode="C" glyph-name="C" horiz-adv-x="754" d="M273 -10T208 24T107 122T71 271Q71 397 124 497T273 653T487 710Q573 710 641 681T740 600Q745 590 745 583Q745 569 733 558T705 546Q685 546 675 561Q649 605 601 625T476 646Q383 646 308 597T189
462T146 269Q146 165 204 110T373 54Q449 54 510 76T612 139Q628 155 648 155Q659 155 667 147T676 127Q676 113 663 100Q613 49 533 20T361 -10Q273 -10 208 24Z" />
<glyph unicode="D" glyph-name="D" horiz-adv-x="755" d="M119 0T91 25T62 95Q62 113 64 122L145 580Q155 638 193 669T292 700H432Q521 700 586 667T687 573T722 429Q722 306 670 209T525 56T317 0H172Q119 0 91 25ZM311 62Q412 62 487 107T604 237T646 433Q646
638 412 638H283Q259 638 242 622T220 580L139 119Q138 115 138 106Q138 86 149 74T182 62H311Z" />
<glyph unicode="E" glyph-name="E" horiz-adv-x="641" d="M120 0T91 26T61 96Q61 113 63 122L144 580Q155 639 190 669T283 700H601Q636 700 636 676Q636 638 591 638H282Q259 638 241 622T219 580L186 389H471Q487 389 496 383T506 365Q506 346 494 336T460 326H175L138
120Q137 115 137 105Q137 85 148 74T181 62H511Q546 62 546 39Q546 20 534 10T500 0H171Q120 0 91 26Z" />
<glyph unicode="F" glyph-name="F" horiz-adv-x="619" d="M64 -10T56 -3T47 19Q47 26 48 30L145 579Q155 639 191 669T285 700H602Q637 700 637 676Q637 638 591 638H283Q259 638 242 623T220 581L184 379H469Q504 379 504 355Q504 336 492 326T459 316H174L123
30Q120 12 108 1T78 -10Q64 -10 56 -3Z" />
<glyph unicode="G" glyph-name="G" horiz-adv-x="772" d="M279 -10T212 25T107 123T70 272Q70 397 123 497T272 653T486 710Q572 710 642 681T742 601Q747 593 747 583Q747 569 735 558T707 546Q687 546 678 561Q652 604 603 625T479 646Q383 646 307 598T189
465T146 273Q146 169 207 112T378 54Q444 54 499 75T589 135T634 223L640 257Q642 273 642 277Q642 294 632 301T599 308H448Q414 308 414 331Q414 370 459 370H624Q720 370 720 294Q720 281 718 268L711 230Q698 158 651 104T530 20T370 -10Q279 -10 212 25Z"
/>
<glyph unicode="H" glyph-name="H" horiz-adv-x="755" d="M61 -10T53 -3T44 19Q44 26 45 30L158 670Q162 690 173 700T202 710Q216 710 225 702T234 680Q234 674 233 670L184 391H622L671 670Q674 688 686 699T716 710Q730 710 739 703T748 680Q748 674 747 670L634
30Q630 10 618 0T589 -10Q574 -10 566 -3T557 20Q557 26 558 30L611 328H173L120 30Q117 12 105 1T75 -10Q61 -10 53 -3Z" />
<glyph unicode="I" glyph-name="I" horiz-adv-x="305" d="M93 -10T85 -3T76 19Q76 26 77 30L190 670Q193 689 205 699T234 710Q248 710 257 702T266 680Q266 674 265 670L152 30Q149 12 137 1T107 -10Q93 -10 85 -3Z" />
<glyph unicode="J" glyph-name="J" horiz-adv-x="607" d="M185 -10T125 20T33 104Q28 112 28 120Q28 139 47 152Q56 160 70 160Q89 160 98 144Q123 97 163 76T267 55Q340 55 386 97T447 217L527 670Q531 690 542 700T571 710Q587 710 595 702T604 679Q604 673
603 670L523 221Q503 113 434 52T259 -10Q185 -10 125 20Z" />
<glyph unicode="K" glyph-name="K" horiz-adv-x="690" d="M540 -9T532 -2T523 19Q518 105 497 165T431 274T307 370L164 271L122 30Q119 12 107 1T77 -10Q63 -10 55 -3T46 19Q46 26 47 30L160 670Q164 690 175 700T204 710Q219 710 227 702T236 680Q236 673 235
670L180 353L639 697Q651 706 662 706Q678 706 685 694Q691 685 691 676Q691 660 675 647L367 414Q484 332 539 243T594 32Q594 14 582 3T553 -9Q540 -9 532 -2Z" />
<glyph unicode="L" glyph-name="L" horiz-adv-x="635" d="M122 0T93 26T63 97Q63 113 65 122L162 670Q166 690 177 700T206 710Q222 710 230 702T239 680Q239 674 238 671L140 120Q139 115 139 107Q139 86 150 74T183 62H516Q551 62 551 38Q551 20 539 10T505
0H173Q122 0 93 26Z" />
<glyph unicode="M" glyph-name="M" horiz-adv-x="989" d="M57 -10T49 -2T41 20Q41 26 42 30L121 482Q141 594 207 652T382 710Q442 710 488 679T551 595Q587 648 643 679T763 710Q855 710 905 662T956 533Q956 512 951 482L872 30Q869 12 857 1T826 -10Q812 -10
804 -3T795 20Q795 26 796 30L876 482Q881 514 881 533Q881 588 851 616T753 645Q683 645 635 602T573 482L494 30Q491 12 480 1T449 -10Q436 -10 428 -3T419 19Q419 26 420 30L500 482Q503 502 503 519Q503 577 470 611T376 645Q300 645 256 605T197 482L117 30Q114
12 102 1T72 -10Q57 -10 49 -2Z" />
<glyph unicode="N" glyph-name="N" horiz-adv-x="739" d="M56 -10T48 -3T39 19Q39 26 40 30L112 438Q135 568 222 639T445 710Q564 710 632 652T700 493Q700 470 695 438L623 30Q619 10 608 0T579 -10Q547 -10 547 20Q547 27 548 30L620 441Q625 471 625 492Q625
567 578 606T441 646Q340 646 273 592T188 441L115 30Q112 12 100 1T70 -10Q56 -10 48 -3Z" />
<glyph unicode="O" glyph-name="O" horiz-adv-x="828" d="M284 -10T215 26T108 130T70 288Q70 403 126 500T278 653T490 710Q582 710 651 674T757 570T795 411Q795 297 739 200T587 47T376 -10Q284 -10 215 26ZM474 54T552 101T675 230T720 410Q720 521 658 583T486
646Q391 646 313 599T191 469T146 289Q146 178 207 116T379 54Q474 54 552 101Z" />
<glyph unicode="P" glyph-name="P" horiz-adv-x="725" d="M62 -10T53 2T47 30L144 580Q154 638 192 669T291 700H462Q583 700 646 653T710 515Q710 382 626 307T394 232H158L122 30Q118 10 107 0T78 -10Q62 -10 53 2ZM512 295T572 349T632 508Q632 577 587 607T456
638H282Q258 638 241 622T219 580L169 295H395Q512 295 572 349Z" />
<glyph unicode="Q" glyph-name="Q" horiz-adv-x="828" d="M599 -40T594 -25L586 -3L569 43Q522 17 475 4T373 -10Q290 -10 221 26T112 128T71 281Q71 400 125 498T275 653T490 710Q581 710 650 675T757 576T796 424Q796 327 752 235T630 81L643 44Q645 38 647
32T653 16Q657 4 657 -5Q657 -20 645 -30T618 -40Q599 -40 594 -25ZM235 186T294 215T418 245Q482 245 529 217T602 140Q658 191 689 265T720 421Q720 528 657 587T485 646Q386 646 309 597T189 463T146 279Q146 191 191 137Q235 186 294 215ZM466 54T545 98Q524
139 494 160T409 181Q354 181 309 157T234 95Q294 54 381 54Q466 54 545 98Z" />
<glyph unicode="R" glyph-name="R" horiz-adv-x="725" d="M139 575Q161 700 292 700H479Q597 700 655 655T714 523Q714 391 638 322T407 253L565 52Q572 43 572 34Q572 14 550 0Q535 -9 522 -9Q501 -9 486 11L300 253H167L128 34Q124 14 111 3T77 -9Q60 -9 51
-1T42 24Q42 30 43 34L139 575ZM417 322Q520 322 573 370T627 516Q627 581 586 606T471 631H284Q261 631 245 616T224 575L179 322H417Z" />
<glyph unicode="S" glyph-name="S" horiz-adv-x="689" d="M264 -10T205 6T102 51T44 111Q40 119 40 128Q40 147 59 160Q70 168 77 168Q83 168 89 164T107 148Q153 98 202 77T322 55Q425 55 484 92T544 195Q544 228 530 248T477 284T362 321Q270 345 219 370T146
426T124 504Q124 564 161 611T263 684T412 710Q506 710 578 677T668 592Q671 583 671 576Q671 558 649 545Q641 541 632 541Q612 541 601 558Q580 599 528 622T402 645Q310 645 256 610T202 515Q202 484 215 466T265 431T379 393Q475 366 526 342T599 286T622 206Q622
143 585 94T480 18T326 -10Q264 -10 205 6Z" />
<glyph unicode="T" glyph-name="T" horiz-adv-x="707" d="M295 -10T287 -2T279 20Q279 27 280 30L386 638H157Q141 638 132 645T123 666Q123 682 135 691T168 700H702Q736 700 736 674Q736 657 724 648T691 638H462L355 30Q351 10 339 0T310 -10Q295 -10 287 -2Z" />
<glyph unicode="U" glyph-name="U" horiz-adv-x="746" d="M216 -10T148 51T80 219Q80 249 86 283L155 670Q159 690 170 700T199 710Q213 710 222 702T232 679Q232 673 231 670L161 280Q155 246 155 216Q155 54 338 54Q448 54 513 111T599 280L668 670Q671 689
683 699T713 710Q728 710 736 703T744 680Q744 674 743 670L674 283Q649 144 560 67T337 -10Q216 -10 148 51Z" />
<glyph unicode="V" glyph-name="V" horiz-adv-x="740" d="M271 -10T238 36T192 191L137 665Q132 710 176 710Q195 710 202 702T212 674L266 198Q275 118 291 86T336 53Q368 53 395 87T458 198L680 674Q689 694 699 702T729 710Q759 710 759 688Q759 679 753 665L530
191Q480 84 438 37T335 -10Q271 -10 238 36Z" />
<glyph unicode="W" glyph-name="W" horiz-adv-x="955" d="M191 -10T169 19T145 105L135 666Q133 710 175 710Q194 710 202 702T210 674L216 102Q216 75 222 65T243 54Q260 54 270 65T288 102L457 617Q488 710 560 710Q632 710 630 617L618 102Q617 54 646 54Q662
54 671 66T690 103L898 673Q905 693 915 701T946 710Q974 710 974 687Q974 677 970 666L762 105Q741 47 711 19T638 -10Q555 -10 558 104L569 609Q570 629 566 637T552 646Q542 646 536 638T522 609L354 104Q335 46 306 18T233 -10Q191 -10 169 19Z" />
<glyph unicode="X" glyph-name="X" horiz-adv-x="719" d="M725 696T725 680Q725 664 714 653L424 357L618 47Q623 40 623 29Q623 8 604 -3Q594 -9 585 -9Q570 -9 558 11L374 305L86 11Q66 -9 46 -9Q38 -9 30 -4Q18 4 18 19Q18 34 31 47L339 361L156 653Q151 663
151 672Q151 692 170 704Q180 710 189 710Q204 710 216 690L389 413L661 690Q680 709 697 709Q708 709 714 704Q725 696 725 680Z" />
<glyph unicode="Y" glyph-name="Y" horiz-adv-x="705" d="M704 710T713 703T722 680Q722 674 721 670L698 545Q673 410 591 326T389 230L354 30Q351 12 339 1T308 -10Q293 -10 285 -3T277 20Q277 26 278 30L314 230Q218 241 163 306T107 474Q107 501 114 545L136
670Q139 688 150 699T180 710Q196 710 204 702T213 679Q213 673 212 670L189 542Q182 503 182 466Q182 292 362 292Q465 292 533 356T623 542L645 670Q648 689 660 699T690 710Q704 710 713 703Z" />
<glyph unicode="Z" glyph-name="Z" horiz-adv-x="711" d="M84 0T58 21T32 76Q32 112 52 143T116 205L588 541Q634 574 634 606Q634 638 597 638H189Q172 638 163 646T153 667Q153 682 165 691T200 700H613Q659 700 685 679T711 617Q711 583 692 555T628 495L155
158Q131 140 120 125T108 90Q108 62 149 62H581Q598 62 608 56T618 37Q618 20 605 10T570 0H126Q84 0 58 21Z" />
<glyph unicode="[" glyph-name="bracketleft" horiz-adv-x="331" d="M9 -197T9 -148Q9 -143 11 -131L161 717Q173 782 244 782H339Q357 782 366 775T375 757Q375 739 362 730T328 720H236L85 -135H177Q212 -135 212 -159Q212 -197 166 -197H71Q9 -197 9 -148Z" />
<glyph unicode="\" glyph-name="backslash" horiz-adv-x="546" d="M408 -107T401 -107Q391 -107 383 -101T372 -84L141 750Q140 753 140 760Q140 775 151 786T183 798Q205 798 211 776L441 -57Q442 -60 442 -67Q442 -79 436 -89T415 -104Q408 -107 401 -107Z" />
<glyph unicode="]" glyph-name="bracketright" horiz-adv-x="332" d="M-25 -197T-25 -172Q-25 -153 -12 -144T22 -135H113L264 720H173Q137 720 137 744Q137 763 149 772T183 782H278Q341 782 341 733Q341 729 339 717L189 -131Q177 -197 105 -197H10Q-25 -197 -25 -172Z" />
<glyph unicode="^" glyph-name="asciicircum" horiz-adv-x="593" d="M73 356T73 372Q73 384 80 392L345 692Q361 710 378 710Q395 710 405 692L565 392Q568 386 568 379Q568 370 563 362T549 347Q538 340 526 340Q517 340 510 344T499 356L368 619L142 355Q128
339 108 339Q96 339 85 347Q73 356 73 372Z" />
<glyph unicode="_" glyph-name="underscore" horiz-adv-x="579" d="M7 -127T-2 -119T-9 -96Q-3 -64 38 -64H435Q471 -64 471 -90Q471 -95 470 -98Q468 -111 455 -119T424 -127H27Q7 -127 -2 -119Z" />
<glyph unicode="`" glyph-name="grave" horiz-adv-x="225" d="M214 555T208 555Q191 555 185 572L131 710Q128 718 128 724Q128 746 153 757Q163 762 174 762Q193 762 201 734L238 593Q239 590 239 584Q239 565 220 558Q214 555 208 555Z" />
<glyph unicode="a" glyph-name="a" horiz-adv-x="584" d="M129 -10T79 27T29 126Q29 182 59 225T146 291T275 315Q330 315 375 299T443 256L455 320Q458 335 458 349Q458 437 327 437Q234 437 158 393Q140 383 130 383Q119 383 111 390T103 408Q103 417 107 425T120
439Q161 468 218 484T336 500Q428 500 479 461T530 352Q530 336 527 318L477 29Q470 -10 433 -10Q403 -10 403 17Q403 24 404 28L411 64Q336 -10 211 -10Q129 -10 79 27ZM287 51T332 66T402 109T427 171Q427 211 386 233T269 255Q192 255 148 222T103 132Q103 92
135 72T231 51Q287 51 332 66Z" />
<glyph unicode="b" glyph-name="b" horiz-adv-x="675" d="M52 -10T44 -2T36 20Q36 27 37 30L158 719Q166 759 202 759Q216 759 224 751T233 727L232 719L177 401Q273 500 408 500Q513 500 574 446T635 298Q635 206 596 137T486 29T321 -10Q252 -10 201 17T122
94L110 30Q106 11 95 1T66 -10Q52 -10 44 -2ZM433 53T496 118T560 293Q560 363 517 400T391 437Q323 437 267 406T178 323T145 206Q145 135 192 94T324 53Q433 53 496 118Z" />
<glyph unicode="c" glyph-name="c" horiz-adv-x="596" d="M214 -10T161 15T76 89T45 209Q45 291 84 357T193 462T354 500Q431 500 488 476T564 418Q569 411 569 400Q569 381 552 370Q542 363 532 363Q518 363 505 379Q483 404 451 420T357 437Q285 437 231 407T148
325T119 209Q119 133 163 93T293 53Q347 53 383 68T459 114Q481 130 493 130Q502 130 512 122Q523 112 523 102Q523 88 507 72Q473 37 412 14T281 -10Q214 -10 161 15Z" />
<glyph unicode="d" glyph-name="d" horiz-adv-x="675" d="M163 -10T103 43T42 198Q42 280 83 349T196 459T358 500Q425 500 473 475T555 395L613 719Q617 739 628 749T657 759Q672 759 679 751T687 729Q687 722 686 719L565 30Q557 -10 522 -10Q491 -10 491 21Q491
27 492 30L503 94Q412 -10 270 -10Q163 -10 103 43ZM358 53T414 83T501 163T532 274Q532 351 484 394T355 437Q286 437 232 406T147 321T117 202Q117 53 282 53Q358 53 414 83Z" />
<glyph unicode="e" glyph-name="e" horiz-adv-x="628" d="M169 -9T106 47T43 203Q43 290 81 357T190 462T349 500Q419 500 474 478T562 417T594 328Q594 278 565 248T488 217H118Q116 206 116 186Q116 122 161 88T292 54Q342 54 384 66T470 107Q493 122 505 122Q513
122 520 115Q530 105 530 96Q530 84 514 68Q480 34 417 13T282 -9Q169 -9 106 47ZM476 276Q497 276 508 287T519 320Q519 373 474 405T353 437Q263 437 204 394T130 276H476Z" />
<glyph unicode="f" glyph-name="f" horiz-adv-x="457" d="M493 687T493 676Q493 663 483 652T463 641Q454 641 444 648T432 656Q404 674 362 674Q277 674 263 594L246 497H387Q422 497 422 471Q422 455 410 446T376 436H235L164 30Q160 10 149 0T121 -10Q106 -10
98 -2T89 21Q89 27 90 30L162 436H113Q78 436 78 461Q78 477 91 487T124 497H173L189 590Q202 661 245 699T357 738Q397 738 435 725T486 695Q493 687 493 676Z" />
<glyph unicode="g" glyph-name="g" horiz-adv-x="670" d="M177 -251T123 -230T38 -171Q32 -164 32 -154Q32 -140 44 -128T72 -116Q80 -116 88 -121T100 -132Q142 -190 250 -190Q349 -190 408 -143T484 -7L501 87Q453 37 393 11T266 -15Q163 -15 102 39T40 186Q40
278 80 348T194 458T362 498Q426 498 476 471T555 394L567 462Q570 479 583 489T611 500Q625 500 633 492T641 470Q641 465 640 462L558 -7Q538 -122 456 -186T247 -251Q177 -251 123 -230ZM353 50T409 80T498 164T531 284Q531 354 485 394T358 435Q286 435 231
405T146 319T115 191Q115 122 158 86T284 50Q353 50 409 80Z" />
<glyph unicode="h" glyph-name="h" horiz-adv-x="620" d="M37 -10T37 19Q37 26 38 30L159 719Q167 759 203 759Q217 759 225 752T234 729Q234 723 233 719L177 401Q216 449 274 474T397 500Q476 500 519 459T563 343Q563 318 559 295L513 30Q510 12 499 1T468
-10Q439 -10 439 18Q439 26 440 30L486 295Q490 318 490 340Q490 390 463 413T378 437Q289 437 227 385T150 247L111 30Q107 10 96 0T67 -10Q37 -10 37 19Z" />
<glyph unicode="i" glyph-name="i" horiz-adv-x="258" d="M173 606T160 618T147 648Q147 671 166 689T210 707Q230 707 243 695T257 665Q257 642 238 624T193 606Q173 606 160 618ZM54 -10T54 21L55 30L131 460Q135 480 146 490T174 500Q190 500 198 492T206 469Q206
463 205 460L128 30Q124 10 113 0T84 -10Q54 -10 54 21Z" />
<glyph unicode="j" glyph-name="j" horiz-adv-x="341" d="M255 609T242 621T229 651Q229 674 248 692T292 710Q311 710 325 698T339 667Q339 644 319 627T274 609Q255 609 242 621ZM-35 -292T-43 -285T-52 -266Q-52 -250 -40 -239T-10 -228Q32 -228 55 -218T90
-184T110 -117L213 460Q220 500 256 500Q288 500 288 473Q288 465 287 460L184 -116Q167 -211 120 -251T-21 -292Q-35 -292 -43 -285Z" />
<glyph unicode="k" glyph-name="k" horiz-adv-x="591" d="M40 -10T40 19Q40 26 41 30L162 719Q170 759 206 759Q220 759 228 752T237 729Q237 723 236 719L157 271L528 495Q539 502 551 502Q568 502 574 487Q577 481 577 474Q577 457 553 442L351 320Q427 263
463 193T502 30Q503 13 493 2T465 -10Q434 -10 432 17Q428 87 414 134T369 216T287 283L144 196L114 30Q111 12 100 1T70 -10Q40 -10 40 19Z" />
<glyph unicode="l" glyph-name="l" horiz-adv-x="264" d="M57 -10T57 19Q57 26 58 30L179 719Q187 759 223 759Q237 759 245 752T254 729Q254 723 253 719L131 30Q128 12 117 1T87 -10Q57 -10 57 19Z" />
<glyph unicode="m" glyph-name="m" horiz-adv-x="833" d="M34 -10T34 19Q34 26 35 30L111 460Q115 480 126 490T154 500Q168 500 176 493T185 470Q185 464 184 460L174 403Q210 450 255 475T346 500Q392 500 423 475T463 402Q507 449 554 474T648 500Q714 500
748 466T782 365Q782 334 777 308L728 30Q725 12 714 1T683 -10Q653 -10 653 19Q653 26 654 30L704 310Q709 342 709 360Q709 400 691 418T632 437Q587 437 548 411T479 334L425 30Q421 10 409 0T381 -10Q351 -10 351 18Q351 26 352 30L398 295Q403 327 403 347Q403
437 329 437Q286 437 248 414T184 350T148 256L108 30Q104 10 93 0T64 -10Q34 -10 34 19Z" />
<glyph unicode="n" glyph-name="n" horiz-adv-x="619" d="M36 -10T36 19Q36 26 37 30L113 460Q116 478 126 489T155 500Q186 500 186 471Q186 464 185 460L174 401Q268 500 396 500Q476 500 519 460T562 344Q562 318 558 295L512 30Q509 12 498 1T467 -10Q438
-10 438 18Q438 26 439 30L485 295Q490 323 490 341Q490 388 464 412T377 437Q288 437 226 385T149 247L110 30Q107 12 96 1T66 -10Q36 -10 36 19Z" />
<glyph unicode="o" glyph-name="o" horiz-adv-x="645" d="M213 -10T160 16T76 91T46 201Q46 286 87 354T201 461T365 500Q435 500 488 474T571 399T601 289Q601 204 560 136T447 29T282 -10Q213 -10 160 16ZM359 53T413 83T497 167T527 289Q527 359 482 398T358
437Q289 437 235 407T151 324T120 203Q120 133 165 93T291 53Q359 53 413 83Z" />
<glyph unicode="p" glyph-name="p" horiz-adv-x="674" d="M0 -299T-8 -291T-16 -269Q-16 -262 -15 -259L112 461Q115 479 126 489T155 500Q187 500 187 472Q187 464 186 460L174 396Q216 446 276 473T407 500Q514 500 574 448T634 302Q634 210 595 139T484 29T319
-10Q254 -10 204 16T122 92L58 -259Q54 -278 43 -288T14 -299Q0 -299 -8 -291ZM393 53T447 83T530 170T560 298Q560 437 390 437Q319 437 263 408T176 326T144 208Q144 138 193 96T323 53Q393 53 447 83Z" />
<glyph unicode="q" glyph-name="q" horiz-adv-x="675" d="M456 -299T448 -290T439 -268Q439 -262 440 -259L502 92Q453 41 396 16T265 -10Q161 -10 102 44T42 193Q42 284 81 353T193 461T359 500Q502 500 556 396L567 460Q571 480 582 490T611 500Q642 500 642
469Q642 463 641 460L514 -259Q510 -279 499 -289T471 -299Q456 -299 448 -290ZM350 53T408 84T499 168T533 285Q533 357 487 397T355 437Q282 437 229 407T146 324T117 200Q117 129 159 91T280 53Q350 53 408 84Z" />
<glyph unicode="r" glyph-name="r" horiz-adv-x="439" d="M36 -10T36 19Q36 26 37 30L113 460Q116 478 126 489T155 500Q186 500 186 471Q186 464 185 460L174 400Q216 445 266 467T378 490H402Q420 490 429 483T439 464Q439 446 426 437T392 427H364Q279 427
222 379T149 247L110 30Q107 12 96 1T66 -10Q36 -10 36 19Z" />
<glyph unicode="s" glyph-name="s" horiz-adv-x="526" d="M178 -9T119 18T31 91Q26 99 26 107Q26 117 32 126T49 139Q57 143 66 143Q82 143 94 125Q121 90 160 73T255 55Q314 55 348 76T383 132Q383 150 373 162T335 188T249 222Q166 252 132 281T98 354Q98 397
123 430T195 481T302 500Q361 500 414 479T489 421Q493 414 493 406Q493 397 488 389T473 376Q461 370 451 370Q435 370 423 385Q401 412 370 424T294 436Q238 436 206 416T174 361Q174 343 183 332T217 310T296 279Q358 258 392 238T442 193T458 135Q458 68 402
30T248 -9Q178 -9 119 18Z" />
<glyph unicode="t" glyph-name="t" horiz-adv-x="461" d="M188 130Q185 115 185 104Q185 53 246 53Q270 53 290 61T333 91Q350 107 365 107Q375 107 383 99T392 82Q392 69 378 53Q353 24 314 7T232 -10Q177 -10 145 21T113 106Q113 120 116 136L168 436H114Q97
436 88 443T79 463Q79 497 125 497H179L208 662Q211 680 222 691T252 702Q266 702 274 694T283 670L282 662L253 497H388Q423 497 423 474Q423 436 377 436H242L188 130Z" />
<glyph unicode="u" glyph-name="u" horiz-adv-x="620" d="M152 -10T106 34T59 154Q59 179 63 202L109 460Q113 480 124 490T153 500Q183 500 183 471Q183 464 182 460L137 202Q132 174 132 155Q132 103 162 78T254 53Q337 53 396 106T471 243L510 460Q514 480
525 490T554 500Q568 500 576 493T585 471Q585 464 584 460L508 30Q501 -10 464 -10Q434 -10 434 19Q434 26 435 30L445 89Q401 41 347 16T234 -10Q152 -10 106 34Z" />
<glyph unicode="v" glyph-name="v" horiz-adv-x="622" d="M222 -10T192 21T151 110L88 452Q85 466 94 479T117 497Q122 499 131 499Q142 499 150 493T160 476L224 129Q232 85 243 69T275 52Q296 52 313 68T353 127L541 476Q547 487 557 493T579 499Q595 499 604
490T614 468Q614 459 610 452L424 107Q392 47 355 19T267 -10Q222 -10 192 21Z" />
<glyph unicode="w" glyph-name="w" horiz-adv-x="795" d="M148 -10T125 16T100 82L91 463Q91 480 101 490T131 500Q150 500 159 493T168 469L172 88Q172 72 179 63T197 53Q211 53 219 60T234 88L347 425Q373 500 442 500Q473 500 493 479T512 425L506 88Q506 70
511 62T532 53Q556 53 568 88L706 470Q711 486 722 493T753 500Q768 500 776 494T784 477Q784 471 781 463L637 80Q620 36 591 13T524 -10Q484 -10 464 13T444 82L448 411Q448 437 434 437Q419 437 410 411L300 82Q269 -10 188 -10Q148 -10 125 16Z" />
<glyph unicode="x" glyph-name="x" horiz-adv-x="565" d="M548 483T548 470Q548 453 534 439L329 247L471 49Q478 39 478 28Q478 11 462 -2Q451 -10 442 -10Q428 -10 416 6L278 199L71 6Q53 -10 37 -10Q26 -10 18 -2Q9 7 9 20Q9 37 24 50L240 252L106 439Q99 449
99 461Q99 480 116 492Q126 499 135 499Q150 499 161 483L291 301L486 484Q501 499 520 499Q532 499 539 492Q548 483 548 470Z" />
<glyph unicode="y" glyph-name="y" horiz-adv-x="634" d="M140 -250T86 -229T9 -168Q5 -161 5 -154Q5 -144 10 -135T25 -121Q35 -115 46 -115Q64 -115 74 -130Q93 -158 131 -173T220 -188Q309 -188 371 -135T449 12L461 80Q423 39 372 18T262 -4Q161 -4 103 51T44
202Q44 234 49 259L85 463Q88 479 100 489T130 499Q145 499 154 489T160 463L124 259Q118 228 118 201Q118 128 157 92T273 56Q358 56 414 107T486 252L522 454Q530 500 570 500Q585 500 593 491T602 465Q602 457 601 453L524 17Q502 -107 419 -178T212 -250Q140
-250 86 -229Z" />
<glyph unicode="z" glyph-name="z" horiz-adv-x="556" d="M77 0T50 20T22 77Q22 111 43 141T105 192L410 350Q435 363 446 376T458 406Q458 421 448 427T413 433H135Q92 433 92 460Q92 477 106 487T146 497H421Q473 497 502 477T531 419Q531 382 509 352T447 301L142
146Q93 121 93 91Q93 64 134 64H428Q450 64 460 59T471 40Q471 21 457 11T417 0H128Q77 0 50 20Z" />
<glyph unicode="{" glyph-name="braceleft" horiz-adv-x="402" d="M137 -197T110 -171T82 -103Q82 -95 84 -79L120 122Q123 142 123 157Q123 189 112 207T80 241Q65 254 60 262T56 283Q59 298 67 306T96 328Q127 347 147 370T176 443L215 664Q235 782 353 782H410Q444
782 444 758Q444 720 400 720H352Q327 720 312 706T291 667L251 443Q241 385 214 345T138 278Q171 254 185 228T199 166Q199 143 195 122L159 -82Q158 -87 158 -95Q158 -135 201 -135H249Q282 -135 282 -159Q282 -177 270 -187T237 -197H187Q137 -197 110 -171Z"
/>
<glyph unicode="|" glyph-name="bar" horiz-adv-x="225" d="M20 -197T12 -189T4 -167Q4 -160 5 -157L163 742Q166 760 178 771T208 782Q223 782 231 774T240 752Q240 745 239 742L80 -157Q77 -175 65 -186T35 -197Q20 -197 12 -189Z" />
<glyph unicode="}" glyph-name="braceright" horiz-adv-x="403" d="M-8 -197T-16 -190T-23 -167Q-17 -135 21 -135H69Q94 -135 110 -120T130 -82L166 122Q175 176 201 217T279 288Q246 311 232 338T218 400Q218 423 222 443L262 667Q263 671 263 679Q263 698 253
709T220 720H172Q138 720 138 744Q138 761 149 771T183 782H233Q282 782 310 756T339 687Q339 680 337 664L297 443Q294 424 294 409Q294 378 305 361T336 328Q350 316 356 309T362 289Q362 284 361 281Q358 264 348 255T319 234Q288 215 269 193T241 122L206 -79Q185
-197 67 -197H10Q-8 -197 -16 -190Z" />
<glyph unicode="~" glyph-name="asciitilde" horiz-adv-x="571" d="M56 256T56 270Q56 282 64 293Q117 377 203 377Q233 377 258 369T317 345Q344 333 362 327T401 320Q429 320 447 329T477 360Q494 388 513 388Q518 388 528 384Q542 376 542 363Q542 353 534
340Q482 256 395 256Q366 256 342 264T285 287Q255 300 237 306T197 313Q170 313 152 303T120 271Q102 245 84 245Q76 245 69 249Q56 256 56 270Z" />
<glyph unicode="&#xa0;" glyph-name="uni00A0" horiz-adv-x="268" />
<glyph unicode="&#xa1;" glyph-name="exclamdown" horiz-adv-x="270" d="M137 387T123 400T108 434Q108 463 129 481T180 500Q203 500 217 488T232 455Q232 427 211 407T160 387Q137 387 123 400ZM35 -220T27 -211T18 -189Q18 -183 19 -180L108 288Q112 308 121
317T148 327Q177 327 177 299Q177 292 176 288L101 -180Q98 -198 84 -209T52 -220Q35 -220 27 -211Z" />
<glyph unicode="&#xa2;" glyph-name="cent" horiz-adv-x="597" d="M572 409T572 401Q572 388 560 376T534 364Q514 364 503 380Q466 432 373 436L305 54Q354 57 394 72T462 113Q479 129 497 129Q509 129 516 121T524 102Q524 95 520 87T510 74Q412 -4 294 -9L282
-77Q277 -110 247 -110Q235 -110 229 -104T223 -86Q223 -80 224 -77L236 -8Q147 2 95 56T43 195Q43 278 78 344T178 451T325 498L337 566Q343 599 372 599Q386 599 391 594T397 577Q397 570 396 566L384 499Q449 496 496 476T567 417Q572 409 572 401ZM117 137T148
100T247 55L314 435Q222 423 170 358T117 197Q117 137 148 100Z" />
<glyph unicode="&#xa3;" glyph-name="sterling" horiz-adv-x="619" d="M359 -10T340 -5T296 12Q269 24 249 29T201 35Q167 35 144 27T91 0Q80 -7 67 -7Q43 -7 32 13Q27 21 27 33Q27 55 52 74Q128 129 162 171T196 269Q196 299 188 317H101Q82 317 75 325T69 347Q76
380 113 380H165Q139 430 139 481Q139 498 142 517Q158 608 223 659T392 710Q466 710 521 677T599 585Q601 577 601 574Q601 553 579 542Q567 537 559 537Q538 537 528 556Q506 599 474 622T383 645Q316 645 271 611T216 516Q214 507 214 488Q214 434 248 380H420Q434
380 442 375T450 357Q450 337 439 327T408 317H264Q270 289 270 270Q270 212 237 168T141 77L142 75Q188 98 224 98Q247 98 263 93T303 78Q331 66 351 61T401 55Q421 55 441 62T485 89Q500 101 513 101Q524 101 532 94Q539 88 539 77Q539 58 525 46Q493 17 457
4T384 -10Q359 -10 340 -5Z" />
<glyph unicode="&#xa4;" glyph-name="currency" horiz-adv-x="610" d="M23 84T23 95Q23 113 45 133L90 172Q60 219 60 277Q60 302 64 325Q80 415 143 478L113 516Q103 527 103 541Q103 557 122 575Q136 588 152 588Q171 588 184 570L212 532Q248 553 286 563T362
574Q437 574 494 531L539 570Q559 587 577 587Q591 587 603 575Q612 565 612 553Q612 535 590 516L547 477Q575 429 575 371Q575 346 571 323Q555 235 494 171L523 133Q534 119 534 106Q534 89 513 72Q498 60 484 60Q467 60 452 78L422 116Q350 74 274 74Q198 74
141 117L97 78Q77 60 58 60Q44 60 33 72Q23 84 23 95ZM369 138T425 187T498 324Q502 345 502 369Q502 435 463 472T351 510Q266 510 210 461T137 324Q133 303 133 279Q133 213 172 176T285 138Q369 138 425 187Z" />
<glyph unicode="&#xa5;" glyph-name="yen" horiz-adv-x="685" d="M692 710T701 703T710 680Q710 674 709 670L686 545Q661 410 579 326T377 230L375 222H483Q500 222 507 218T514 202Q514 170 474 170H366L359 128H466Q481 128 489 125T498 109Q498 76 458 76H350L342
30Q339 12 327 1T296 -10Q281 -10 273 -3T265 20Q265 26 266 30L274 76H176Q140 76 144 101Q147 117 156 122T184 128H284L291 170H192Q177 170 169 174T160 190Q160 209 171 215T201 222H300L302 230Q206 241 151 306T95 474Q95 501 102 545L124 670Q127 688 138
699T168 710Q184 710 192 702T201 679Q201 673 200 670L177 542Q170 503 170 466Q170 292 350 292Q453 292 521 356T611 542L633 670Q636 689 648 699T678 710Q692 710 701 703Z" />
<glyph unicode="&#xa6;" glyph-name="brokenbar" horiz-adv-x="226" d="M120 368T112 376T104 398Q104 405 105 408L163 742Q166 760 178 771T208 782Q224 782 232 774T240 751Q240 745 239 742L180 408Q177 390 165 379T135 368Q120 368 112 376ZM20 -197T12
-189T4 -167Q4 -160 5 -157L64 177Q67 195 79 206T108 217Q124 217 132 209T140 186Q140 180 139 177L80 -157Q77 -175 65 -186T35 -197Q20 -197 12 -189Z" />
<glyph unicode="&#xa7;" glyph-name="section" horiz-adv-x="553" d="M173 -75T135 -56T76 -4T54 72Q54 105 65 121T104 137Q117 137 125 130T134 109Q134 105 133 94T131 73Q131 32 156 10T227 -12Q282 -12 314 13T347 81Q347 120 312 142L127 260Q72 295 72
359Q72 407 102 446T188 510Q174 525 168 539T162 572Q162 619 187 655T257 712T359 732Q432 732 475 698T518 605Q518 590 515 576Q511 558 500 550T475 541Q461 541 453 548T444 569Q444 574 445 577Q447 588 447 599Q447 669 351 669Q299 669 268 645T236 581Q236
550 261 534L473 396Q492 383 502 362T513 313Q513 266 482 225T393 159Q421 128 421 87Q421 40 396 3T325 -54T221 -75Q173 -75 135 -56ZM390 213T417 241T444 307Q444 341 410 362L233 473Q192 459 167 433T142 367Q142 346 151 332T181 305L348 199Q390 213
417 241Z" />
<glyph unicode="&#xa8;" glyph-name="dieresis" horiz-adv-x="399" d="M136 575T124 587T111 616Q111 639 129 656T172 674Q189 674 200 662T212 633Q212 611 194 593T154 575Q136 575 124 587ZM343 575T331 587T318 616Q318 638 337 656T379 674Q397 674 408
662T420 632Q420 610 402 593T361 575Q343 575 331 587Z" />
<glyph unicode="&#xa9;" glyph-name="copyright" horiz-adv-x="855" d="M291 -18T219 21T105 129T63 285Q63 402 123 501T287 659T511 718Q602 718 675 679T789 570T830 414Q830 299 769 200T604 41T382 -18Q291 -18 219 21ZM493 47T577 97T712 231T762 412Q762
484 731 539T640 624T501 655Q400 655 315 605T181 470T131 288Q131 216 162 162T253 77T394 47Q493 47 577 97ZM320 108T262 158T204 296Q204 379 241 443T344 543T496 579Q556 579 604 556T680 489Q686 480 686 472Q686 460 675 449T650 437Q634 437 623 451Q597
484 564 500T484 517Q418 517 371 489T298 410T272 296Q272 169 424 169Q514 169 584 235Q600 249 614 249Q625 249 633 241T641 223Q641 208 628 197Q576 153 521 131T413 108Q320 108 262 158Z" />
<glyph unicode="&#xaa;" glyph-name="ordfeminine" horiz-adv-x="424" d="M157 384T125 409T92 477Q92 532 136 567T248 603Q283 603 313 593T358 564L363 592Q364 597 364 606Q364 633 343 647T280 661Q223 661 173 633Q164 628 156 628Q146 628 140 636Q136
642 136 648Q136 662 149 670Q177 688 214 699T288 710Q348 710 383 685T418 614Q418 608 416 594L384 408Q382 396 374 390T354 384Q343 384 337 391T332 408L336 431Q289 384 210 384Q157 384 125 409ZM279 431T313 451T347 505Q347 529 320 543T247 558Q202
558 176 538T149 483Q149 458 169 445T224 431Q279 431 313 451Z" />
<glyph unicode="&#xab;" glyph-name="guillemotleft" horiz-adv-x="479" d="M216 47T206 47Q190 47 181 62L61 248Q56 256 56 264Q56 277 69 290L254 477Q266 489 281 489Q293 489 301 482Q311 475 311 461Q311 447 299 435L128 265L240 100Q244 95 244 85Q244
76 239 68T223 52Q216 47 206 47ZM368 47T359 47Q345 47 335 62L215 248Q210 256 210 264Q210 277 223 290L408 477Q420 489 435 489Q447 489 455 482Q465 475 465 461Q465 447 453 435L282 265L394 100Q399 92 399 85Q399 66 378 53Q368 47 359 47Z" />
<glyph unicode="&#xac;" glyph-name="logicalnot" horiz-adv-x="506" d="M370 105T370 133Q370 140 371 143L389 242H89Q70 242 61 250T55 273Q58 291 69 298T100 305H426Q468 305 462 273L439 143Q433 105 398 105Q370 105 370 133Z" />
<glyph unicode="&#xad;" glyph-name="uni00AD" horiz-adv-x="474" d="M63 212T55 220T49 243Q55 275 94 275H390Q426 275 426 250Q426 233 414 223T379 212H83Q63 212 55 220Z" />
<glyph unicode="&#xae;" glyph-name="registered" horiz-adv-x="855" d="M287 -21T214 17T100 125T59 282Q59 402 119 502T282 662T512 721Q607 721 680 682T794 574T835 417Q835 301 776 200T613 39T382 -21Q287 -21 214 17ZM492 51T575 99T708 230T757 410Q757
520 690 585T500 651Q398 651 315 603T184 472T136 291Q136 180 202 116T394 51Q492 51 575 99ZM291 477Q299 520 330 545T410 571H514Q589 571 631 540T674 452Q674 380 621 337T483 294L575 175Q581 168 581 159Q581 144 564 131Q553 123 542 123Q527 123 517
136L401 292H327L303 158Q300 143 289 134T263 124Q247 124 240 133T235 158L291 477ZM489 352Q542 351 573 377T604 451Q604 515 507 515H400Q385 515 374 506T360 480L338 354L489 352Z" />
<glyph unicode="&#xaf;" glyph-name="overscore" horiz-adv-x="404" d="M102 558T102 578Q102 611 143 611H388Q403 611 411 607T420 591Q420 558 379 558H134Q102 558 102 578Z" />
<glyph unicode="&#xb0;" glyph-name="degree" horiz-adv-x="353" d="M194 586T162 613T129 684Q129 723 148 755T201 805T276 824Q324 824 356 798T388 728Q388 665 347 626T242 586Q194 586 162 613ZM281 639T303 662T325 721Q325 744 310 757T270 771Q237 771
215 748T192 690Q192 666 206 653T248 639Q281 639 303 662Z" />
<glyph unicode="&#xb1;" glyph-name="plusminus" horiz-adv-x="508" d="M497 312T497 288Q497 270 485 260T452 249H292L272 138Q266 100 231 100Q216 100 210 108T203 130Q203 135 204 138L224 249H63Q28 249 28 276Q28 293 41 302T74 312H235L255 427Q259 445
269 455T295 465Q324 465 324 436L323 427L303 312H463Q497 312 497 288ZM453 63T453 39Q453 21 441 11T408 0H19Q-16 0 -16 26Q-16 43 -3 53T30 63H419Q453 63 453 39Z" />
<glyph unicode="&#xb2;" glyph-name="uni00B2" horiz-adv-x="451" d="M97 400T90 407T82 425Q82 435 87 444T103 461L348 634Q381 657 396 679T411 732Q411 760 390 775T330 791Q254 791 201 736Q187 722 171 722Q160 722 152 728T144 745Q144 759 158 775Q227
847 340 847Q405 847 444 818T484 739Q484 697 458 661T377 587L191 454H405Q419 454 427 448T435 430Q435 416 425 408T396 400H109Q97 400 90 407Z" />
<glyph unicode="&#xb3;" glyph-name="uni00B3" horiz-adv-x="462" d="M205 394T162 413T98 469Q93 477 93 488Q93 501 105 511T131 521Q146 521 155 507Q190 450 269 450Q329 450 360 475T392 547Q392 601 326 601H260Q247 601 241 608T234 629Q234 644 243 651T271
659H336Q371 659 393 680T416 735Q416 762 394 776T329 791Q298 791 267 778T211 744Q194 730 179 730Q170 730 163 737T155 754Q155 771 169 782Q245 847 341 847Q408 847 448 819T488 743Q488 709 467 679T406 632L405 631Q464 606 464 547Q464 476 409 435T261
394Q205 394 162 413Z" />
<glyph unicode="&#xb4;" glyph-name="acute" horiz-adv-x="225" d="M102 564T102 575Q102 584 108 593L195 734Q213 762 233 762Q243 762 251 757Q267 748 267 734Q267 725 257 710L154 572Q140 555 125 555Q119 555 114 558Q102 564 102 575Z" />
<glyph unicode="&#xb5;" glyph-name="uni00B5" horiz-adv-x="624" d="M11 -250T3 -243T-6 -221Q-6 -214 -5 -210L113 460Q116 479 128 489T157 500Q187 500 187 471Q187 464 186 460L141 202Q137 174 137 163Q137 109 168 81T258 53Q309 53 355 75T433 141T476
243L514 460Q518 480 529 490T558 500Q589 500 589 470Q589 464 588 460L512 30Q505 -10 468 -10Q438 -10 438 19Q438 26 439 30L449 89Q407 44 355 17T242 -10Q153 -10 114 49L68 -210Q61 -250 25 -250Q11 -250 3 -243Z" />
<glyph unicode="&#xb6;" glyph-name="paragraph" horiz-adv-x="655" d="M177 -268T170 -259T163 -236Q163 -230 164 -227L266 347Q184 347 140 385T96 489Q96 556 126 605T212 681T340 708H649Q665 708 674 702T683 683Q683 665 671 655T638 645H608L455 -227Q451
-247 439 -257T409 -268Q394 -268 386 -260T378 -237Q378 -230 379 -227L533 645H393L240 -227Q236 -247 224 -257T194 -268Q177 -268 170 -259Z" />
<glyph unicode="&#xb7;" glyph-name="middot" horiz-adv-x="215" d="M95 283T81 297T66 331Q66 357 88 378T137 399Q157 399 171 385T186 349Q186 324 164 304T116 283Q95 283 81 297Z" />
<glyph unicode="&#xb8;" glyph-name="cedilla" horiz-adv-x="296" d="M39 -211T14 -197T-22 -161Q-26 -154 -26 -148Q-26 -137 -11 -126Q-2 -120 5 -120Q15 -120 22 -132Q30 -146 44 -154T79 -162Q102 -162 116 -150T130 -116Q130 -89 99 -89Q91 -89 86 -90Q73
-92 64 -86T55 -69Q55 -60 60 -52L93 -1Q107 22 123 22Q126 22 134 20Q151 14 151 2Q151 -4 146 -12L115 -57Q150 -56 168 -71T187 -113Q187 -155 155 -183T73 -211Q39 -211 14 -197Z" />
<glyph unicode="&#xb9;" glyph-name="uni00B9" horiz-adv-x="297" d="M198 394T189 403T183 428L243 771L178 748Q169 744 158 744Q139 744 134 759Q132 767 132 771Q132 793 159 802L283 845Q288 847 297 847Q310 847 317 838T322 813L254 428Q251 411 240 403T212
394Q198 394 189 403Z" />
<glyph unicode="&#xba;" glyph-name="ordmasculine" horiz-adv-x="452" d="M186 384T145 421T103 518Q103 573 129 616T201 685T305 710Q373 710 414 673T456 576Q456 521 430 478T358 409T254 384Q186 384 145 421ZM320 434T359 473T398 574Q398 615 373 637T300
660Q239 660 200 621T161 521Q161 479 187 457T260 434Q320 434 359 473Z" />
<glyph unicode="&#xbb;" glyph-name="guillemotright" horiz-adv-x="479" d="M21 60T21 73Q21 86 33 98L204 267L93 436Q88 444 88 452Q88 472 108 484Q117 490 126 490Q142 490 152 475L271 288Q276 280 276 271Q276 264 274 259T263 246L79 60Q66 45 49 45Q39
45 32 51Q21 60 21 73ZM175 60T175 72Q175 86 187 98L358 267L247 436Q242 444 242 452Q242 472 262 484Q271 490 280 490Q296 490 306 475L425 288Q430 280 430 271Q430 263 427 258T417 246L232 60Q215 45 202 45Q194 45 186 51Q175 60 175 72Z" />
<glyph unicode="&#xbc;" glyph-name="onequarter" horiz-adv-x="787" d="M91 3T91 15Q91 28 103 43L667 696Q681 712 698 712Q707 712 718 706Q731 697 731 684Q731 673 720 659L154 4Q141 -12 122 -12Q111 -12 101 -5Q91 3 91 15ZM191 256T184 266T178 290L238
633L173 610Q164 606 153 606Q134 606 129 621L127 633Q127 654 154 664L278 707Q286 709 291 709Q302 709 309 703T317 683L316 675L249 290Q246 273 235 265T207 256Q191 256 184 266ZM553 -10T553 15Q553 21 554 25L565 88H357Q344 88 337 95T329 112Q329 125
340 136L634 432Q645 443 663 443Q695 443 690 413L644 147H679Q709 147 709 123Q709 108 698 98T669 88H633L622 25Q619 8 608 -1T580 -10Q553 -10 553 15ZM578 147L612 339L422 147H578Z" />
<glyph unicode="&#xbd;" glyph-name="onehalf" horiz-adv-x="892" d="M108 -12T99 -4T90 15Q90 30 102 43L666 696Q680 712 697 712Q708 712 719 704T730 685Q730 672 719 659L153 4Q139 -12 121 -12Q108 -12 99 -4ZM190 256T183 266T177 290L237 633L172 609Q165
606 153 606Q139 606 133 614T126 634Q126 643 133 651T153 664L277 707Q282 709 291 709Q305 709 311 699T316 675L248 290Q245 273 234 265T206 256Q190 256 183 266ZM459 0T452 7T445 25Q445 46 466 61L710 234Q743 258 758 279T774 332Q774 360 754 375T694
391Q617 391 564 336Q550 322 533 322Q524 322 516 329T507 346Q507 361 520 376Q554 410 603 428T704 447Q770 447 808 418T847 340Q847 297 820 261T740 186L554 54H769Q802 54 798 29Q795 13 785 7T759 0H472Q459 0 452 7Z" />
<glyph unicode="&#xbe;" glyph-name="threequarters" horiz-adv-x="915" d="M237 -12T228 -4T219 15Q219 30 230 43L795 696Q809 712 826 712Q838 712 848 704T858 685Q858 671 847 659L281 4Q267 -12 250 -12Q237 -12 228 -4ZM187 256T145 276T83 330Q77 341
77 350Q77 363 89 373T116 383Q130 383 139 370Q174 313 252 313Q312 313 344 338T377 409Q377 463 310 463H245Q233 463 226 469T218 485Q218 502 228 511T255 521H320Q355 521 377 542T400 597Q400 653 313 653Q283 653 252 641T195 606Q179 592 163 592Q153
592 146 599T139 616Q139 624 143 631T153 644Q229 709 326 709Q394 709 433 682T473 607Q473 570 451 541T390 495V494Q419 482 434 460T449 409Q449 340 393 298T242 256Q187 256 145 276ZM693 -10T686 0T681 25L693 88H484Q471 88 463 94T455 112Q455 124 467
136L761 432Q772 443 790 443Q806 443 813 435T818 413L771 147H807Q836 147 836 123Q836 108 825 98T797 88H761L749 25Q746 8 735 -1T707 -10Q693 -10 686 0ZM705 147L739 339L549 147H705Z" />
<glyph unicode="&#xbf;" glyph-name="questiondown" horiz-adv-x="570" d="M292 387T278 400T263 433Q263 463 283 481T335 500Q358 500 372 488T387 456Q387 428 366 408T315 387Q292 387 278 400ZM107 -220T52 -178T-3 -65Q-3 -2 30 40T126 125Q133 130 169
154T229 208T257 269L260 287Q263 306 274 316T305 327Q321 327 328 318T336 296L335 287L332 269Q323 214 290 178T199 103Q153 72 131 55T91 9T74 -57Q74 -104 108 -129T208 -155Q263 -155 312 -134T397 -77Q414 -60 433 -60Q445 -60 453 -69T462 -89Q462 -101
452 -112Q406 -164 340 -192T196 -220Q107 -220 52 -178Z" />
<glyph unicode="&#xc0;" glyph-name="Agrave" horiz-adv-x="737" d="M58 -10T50 -3T41 19Q41 26 42 30L111 421Q136 562 222 636T446 710Q563 710 629 650T695 485Q695 454 689 421L620 30Q616 10 604 0T575 -10Q543 -10 543 20Q543 27 544 30L584 255H157L117
30Q113 10 101 0T72 -10Q58 -10 50 -3ZM595 317L614 424Q620 459 620 487Q620 646 440 646Q335 646 271 590T187 424L168 317H595ZM470 785T464 785Q447 785 441 802L387 940Q384 948 384 954Q384 976 409 987Q419 992 430 992Q449 992 457 964L494 823Q495 820
495 814Q495 795 476 788Q470 785 464 785Z" />
<glyph unicode="&#xc1;" glyph-name="Aacute" horiz-adv-x="737" d="M58 -10T50 -3T41 19Q41 26 42 30L111 421Q136 562 222 636T446 710Q563 710 629 650T695 485Q695 454 689 421L620 30Q616 10 604 0T575 -10Q543 -10 543 20Q543 27 544 30L584 255H157L117
30Q113 10 101 0T72 -10Q58 -10 50 -3ZM595 317L614 424Q620 459 620 487Q620 646 440 646Q335 646 271 590T187 424L168 317H595ZM443 794T443 805Q443 814 449 823L536 964Q554 992 574 992Q585 992 592 987Q608 978 608 964Q608 955 598 940L495 802Q481 785
466 785Q459 785 455 788Q443 794 443 805Z" />
<glyph unicode="&#xc2;" glyph-name="Acircumflex" horiz-adv-x="737" d="M58 -10T50 -3T41 19Q41 26 42 30L111 421Q136 562 222 636T446 710Q563 710 629 650T695 485Q695 454 689 421L620 30Q616 10 604 0T575 -10Q543 -10 543 20Q543 27 544 30L584 255H157L117
30Q113 10 101 0T72 -10Q58 -10 50 -3ZM595 317L614 424Q620 459 620 487Q620 646 440 646Q335 646 271 590T187 424L168 317H595ZM322 800T322 811Q322 825 336 839L464 965Q481 982 499 982Q517 982 528 965L612 839Q618 830 618 821Q618 804 599 791Q588 784
578 784Q561 784 551 803L487 915L383 803Q364 784 348 784Q340 784 332 790Q322 800 322 811Z" />
<glyph unicode="&#xc3;" glyph-name="Atilde" horiz-adv-x="737" d="M58 -10T50 -3T41 19Q41 26 42 30L111 421Q136 562 222 636T446 710Q563 710 629 650T695 485Q695 454 689 421L620 30Q616 10 604 0T575 -10Q543 -10 543 20Q543 27 544 30L584 255H157L117
30Q113 10 101 0T72 -10Q58 -10 50 -3ZM595 317L614 424Q620 459 620 487Q620 646 440 646Q335 646 271 590T187 424L168 317H595ZM304 814T304 826Q304 834 310 846Q325 880 353 902T418 924Q442 924 459 916T498 891Q513 879 523 873T547 867Q580 867 600 909Q610
930 629 930Q654 930 654 911Q654 903 649 893Q633 857 605 836T540 814Q517 814 502 821T466 845Q450 858 438 864T411 871Q379 871 359 830Q348 808 330 808Q323 808 319 809Q304 814 304 826Z" />
<glyph unicode="&#xc4;" glyph-name="Adieresis" horiz-adv-x="737" d="M58 -10T50 -3T41 19Q41 26 42 30L111 421Q136 562 222 636T446 710Q563 710 629 650T695 485Q695 454 689 421L620 30Q616 10 604 0T575 -10Q543 -10 543 20Q543 27 544 30L584 255H157L117
30Q113 10 101 0T72 -10Q58 -10 50 -3ZM595 317L614 424Q620 459 620 487Q620 646 440 646Q335 646 271 590T187 424L168 317H595ZM346 805T334 817T322 846Q322 869 340 886T383 904Q400 904 411 892T423 863Q423 841 405 823T365 805Q346 805 334 817ZM554 805T542
817T529 846Q529 868 548 886T590 904Q608 904 619 892T631 862Q631 840 613 823T572 805Q554 805 542 817Z" />
<glyph unicode="&#xc5;" glyph-name="Aring" horiz-adv-x="737" d="M58 -10T50 -3T41 19Q41 26 42 30L111 421Q136 562 222 636T446 710Q563 710 629 650T695 485Q695 454 689 421L620 30Q616 10 604 0T575 -10Q543 -10 543 20Q543 27 544 30L584 255H157L117
30Q113 10 101 0T72 -10Q58 -10 50 -3ZM595 317L614 424Q620 459 620 487Q620 646 440 646Q335 646 271 590T187 424L168 317H595ZM414 755T388 778T361 839Q361 872 379 900T427 944T495 960Q539 960 564 937T590 877Q590 844 573 816T525 772T459 755Q414 755
388 778ZM497 801T518 820T539 870Q539 891 525 903T487 915Q456 915 436 895T415 846Q415 825 429 813T467 801Q497 801 518 820Z" />
<glyph unicode="&#xc6;" glyph-name="AE" horiz-adv-x="1129" d="M58 -10T50 -3T41 19Q41 26 42 30L111 422Q136 561 223 635T447 710Q516 710 571 684T655 608Q668 654 701 677T785 700H1090Q1107 700 1115 695T1124 676Q1124 638 1079 638H776Q751 638 734 623T713
581L679 389H959Q994 389 994 365Q994 346 982 336T948 326H669L632 119Q631 114 631 105Q631 85 642 74T675 62H999Q1034 62 1034 39Q1034 20 1022 10T989 0H669Q617 0 587 25T557 95Q557 109 560 122L584 255H157L117 30Q114 12 102 1T72 -10Q58 -10 50 -3ZM595
317L614 424Q619 450 619 482Q619 562 574 604T440 646Q335 646 271 589T187 424L168 317H595Z" />
<glyph unicode="&#xc7;" glyph-name="Ccedilla" horiz-adv-x="754" d="M745 590T745 583Q745 569 733 558T705 546Q685 546 675 561Q649 605 601 625T476 646Q383 646 308 597T189 462T146 269Q146 165 204 110T373 54Q449 54 510 76T612 139Q628 155 648 155Q659
155 667 147T676 127Q676 113 663 100Q617 53 544 24T388 -9L386 -12L354 -57Q390 -56 408 -71T427 -113Q427 -155 394 -183T312 -211Q279 -211 254 -197T217 -161Q214 -155 214 -149Q214 -137 228 -126Q237 -120 244 -120Q255 -120 262 -132Q270 -146 284 -154T318
-162Q341 -162 355 -150T369 -115Q369 -89 339 -89Q332 -89 327 -90Q313 -92 304 -86T295 -69Q295 -60 300 -52L328 -9Q209 1 140 75T71 271Q71 397 124 497T273 653T487 710Q573 710 641 681T740 600Q745 590 745 583Z" />
<glyph unicode="&#xc8;" glyph-name="Egrave" horiz-adv-x="641" d="M120 0T91 26T61 96Q61 113 63 122L144 580Q155 639 190 669T283 700H601Q636 700 636 676Q636 638 591 638H282Q259 638 241 622T219 580L186 389H471Q487 389 496 383T506 365Q506 346 494
336T460 326H175L138 120Q137 115 137 105Q137 85 148 74T181 62H511Q546 62 546 39Q546 20 534 10T500 0H171Q120 0 91 26ZM450 785T444 785Q427 785 421 802L367 940Q364 948 364 954Q364 976 389 987Q399 992 410 992Q429 992 437 964L474 823Q475 820 475 814Q475
795 456 788Q450 785 444 785Z" />
<glyph unicode="&#xc9;" glyph-name="Eacute" horiz-adv-x="641" d="M120 0T91 26T61 96Q61 113 63 122L144 580Q155 639 190 669T283 700H601Q636 700 636 676Q636 638 591 638H282Q259 638 241 622T219 580L186 389H471Q487 389 496 383T506 365Q506 346 494
336T460 326H175L138 120Q137 115 137 105Q137 85 148 74T181 62H511Q546 62 546 39Q546 20 534 10T500 0H171Q120 0 91 26ZM418 794T418 805Q418 814 424 823L511 964Q529 992 549 992Q559 992 567 987Q583 978 583 964Q583 955 573 940L470 802Q456 785 441 785Q435
785 430 788Q418 794 418 805Z" />
<glyph unicode="&#xca;" glyph-name="Ecircumflex" horiz-adv-x="641" d="M120 0T91 26T61 96Q61 113 63 122L144 580Q155 639 190 669T283 700H601Q636 700 636 676Q636 638 591 638H282Q259 638 241 622T219 580L186 389H471Q487 389 496 383T506 365Q506 346
494 336T460 326H175L138 120Q137 115 137 105Q137 85 148 74T181 62H511Q546 62 546 39Q546 20 534 10T500 0H171Q120 0 91 26ZM297 800T297 811Q297 825 311 839L439 965Q456 982 474 982Q493 982 504 965L587 839Q593 830 593 821Q593 804 574 791Q563 784 553
784Q536 784 526 803L462 915L359 803Q339 783 324 783Q316 783 307 790Q297 800 297 811Z" />
<glyph unicode="&#xcb;" glyph-name="Edieresis" horiz-adv-x="641" d="M120 0T91 26T61 96Q61 113 63 122L144 580Q155 639 190 669T283 700H601Q636 700 636 676Q636 638 591 638H282Q259 638 241 622T219 580L186 389H471Q487 389 496 383T506 365Q506 346
494 336T460 326H175L138 120Q137 115 137 105Q137 85 148 74T181 62H511Q546 62 546 39Q546 20 534 10T500 0H171Q120 0 91 26ZM321 805T309 817T296 846Q296 869 314 886T357 904Q374 904 385 892T397 863Q397 841 379 823T339 805Q321 805 309 817ZM528 805T516
817T503 846Q503 868 522 886T564 904Q582 904 593 892T605 862Q605 840 587 823T546 805Q528 805 516 817Z" />
<glyph unicode="&#xcc;" glyph-name="Igrave" horiz-adv-x="305" d="M93 -10T85 -3T76 19Q76 26 77 30L190 670Q193 689 205 699T234 710Q248 710 257 702T266 680Q266 674 265 670L152 30Q149 12 137 1T107 -10Q93 -10 85 -3ZM258 785T252 785Q235 785 229 802L175
940Q172 948 172 954Q172 976 197 987Q207 992 218 992Q237 992 245 964L282 823Q283 820 283 814Q283 795 264 788Q258 785 252 785Z" />
<glyph unicode="&#xcd;" glyph-name="Iacute" horiz-adv-x="305" d="M93 -10T85 -3T76 19Q76 26 77 30L190 670Q193 689 205 699T234 710Q248 710 257 702T266 680Q266 674 265 670L152 30Q149 12 137 1T107 -10Q93 -10 85 -3ZM226 794T226 805Q226 814 232 823L319
964Q337 992 357 992Q367 992 375 987Q391 978 391 964Q391 955 381 940L278 802Q264 785 249 785Q243 785 238 788Q226 794 226 805Z" />
<glyph unicode="&#xce;" glyph-name="Icircumflex" horiz-adv-x="305" d="M93 -10T85 -3T76 19Q76 26 77 30L190 670Q193 689 205 699T234 710Q248 710 257 702T266 680Q266 674 265 670L152 30Q149 12 137 1T107 -10Q93 -10 85 -3ZM105 800T105 811Q105 825 119
839L247 965Q264 982 282 982Q301 982 312 965L395 839Q401 830 401 821Q401 804 382 791Q371 784 361 784Q344 784 334 803L270 915L167 803Q147 783 132 783Q124 783 115 790Q105 800 105 811Z" />
<glyph unicode="&#xcf;" glyph-name="Idieresis" horiz-adv-x="305" d="M93 -10T85 -3T76 19Q76 26 77 30L190 670Q193 689 205 699T234 710Q248 710 257 702T266 680Q266 674 265 670L152 30Q149 12 137 1T107 -10Q93 -10 85 -3ZM129 805T117 817T104 846Q104
869 122 886T165 904Q182 904 193 892T205 863Q205 841 187 823T147 805Q129 805 117 817ZM336 805T324 817T311 846Q311 868 330 886T372 904Q390 904 401 892T413 862Q413 840 395 823T354 805Q336 805 324 817Z" />
<glyph unicode="&#xd0;" glyph-name="Eth" horiz-adv-x="797" d="M167 0T137 25T107 95Q107 107 110 122L146 321H87Q70 321 61 327T52 344Q52 362 64 372T98 382H157L191 580Q201 637 240 668T339 700H479Q614 700 691 628T769 429Q769 307 716 209T569 56T358
0H218Q167 0 137 25ZM357 62Q457 62 533 107T650 234T692 425Q692 529 632 583T459 638H330Q306 638 289 622T267 580L232 382H398Q433 382 433 358Q433 340 421 331T387 321H221L186 120Q185 116 185 107Q185 87 197 75T229 62H357Z" />
<glyph unicode="&#xd1;" glyph-name="Ntilde" horiz-adv-x="739" d="M56 -10T48 -3T39 19Q39 26 40 30L112 438Q135 568 222 639T445 710Q564 710 632 652T700 493Q700 470 695 438L623 30Q619 10 608 0T579 -10Q547 -10 547 20Q547 27 548 30L620 441Q625 471
625 492Q625 567 578 606T441 646Q340 646 273 592T188 441L115 30Q112 12 100 1T70 -10Q56 -10 48 -3ZM298 811T298 823Q298 831 304 843Q319 877 347 899T412 921Q436 921 453 913T492 888Q507 876 517 870T541 864Q574 864 594 906Q604 927 623 927Q648 927
648 908Q648 900 643 890Q627 854 599 833T534 811Q512 811 497 818T460 842Q444 855 432 861T405 868Q374 868 353 827Q342 805 324 805Q317 805 313 806Q298 811 298 823Z" />
<glyph unicode="&#xd2;" glyph-name="Ograve" horiz-adv-x="828" d="M284 -10T215 26T108 130T70 288Q70 403 126 500T278 653T490 710Q582 710 651 674T757 570T795 411Q795 297 739 200T587 47T376 -10Q284 -10 215 26ZM474 54T552 101T675 230T720 410Q720
521 658 583T486 646Q391 646 313 599T191 469T146 289Q146 178 207 116T379 54Q474 54 552 101ZM521 785T515 785Q498 785 492 802L438 940Q435 948 435 954Q435 976 460 987Q470 992 481 992Q500 992 508 964L545 823Q546 820 546 814Q546 795 527 788Q521 785
515 785Z" />
<glyph unicode="&#xd3;" glyph-name="Oacute" horiz-adv-x="828" d="M284 -10T215 26T108 130T70 288Q70 403 126 500T278 653T490 710Q582 710 651 674T757 570T795 411Q795 297 739 200T587 47T376 -10Q284 -10 215 26ZM474 54T552 101T675 230T720 410Q720
521 658 583T486 646Q391 646 313 599T191 469T146 289Q146 178 207 116T379 54Q474 54 552 101ZM489 794T489 805Q489 814 495 823L582 964Q600 992 620 992Q630 992 638 987Q654 978 654 964Q654 955 644 940L541 802Q527 785 512 785Q506 785 501 788Q489 794
489 805Z" />
<glyph unicode="&#xd4;" glyph-name="Ocircumflex" horiz-adv-x="828" d="M284 -10T215 26T108 130T70 288Q70 403 126 500T278 653T490 710Q582 710 651 674T757 570T795 411Q795 297 739 200T587 47T376 -10Q284 -10 215 26ZM474 54T552 101T675 230T720 410Q720
521 658 583T486 646Q391 646 313 599T191 469T146 289Q146 178 207 116T379 54Q474 54 552 101ZM368 800T368 811Q368 825 382 839L510 965Q527 982 545 982Q564 982 575 965L658 839Q664 830 664 821Q664 804 645 791Q634 784 624 784Q607 784 597 803L533 915L430
803Q410 783 395 783Q387 783 378 790Q368 800 368 811Z" />
<glyph unicode="&#xd5;" glyph-name="Otilde" horiz-adv-x="828" d="M284 -10T215 26T108 130T70 288Q70 403 126 500T278 653T490 710Q582 710 651 674T757 570T795 411Q795 297 739 200T587 47T376 -10Q284 -10 215 26ZM474 54T552 101T675 230T720 410Q720
521 658 583T486 646Q391 646 313 599T191 469T146 289Q146 178 207 116T379 54Q474 54 552 101ZM348 811T348 823Q348 831 354 843Q369 877 397 899T462 921Q486 921 503 913T542 888Q557 876 567 870T591 864Q624 864 644 906Q654 927 673 927Q698 927 698 908Q698
900 693 890Q677 854 649 833T584 811Q562 811 547 818T510 842Q494 855 482 861T455 868Q424 868 403 827Q392 805 374 805Q367 805 363 806Q348 811 348 823Z" />
<glyph unicode="&#xd6;" glyph-name="Odieresis" horiz-adv-x="828" d="M284 -10T215 26T108 130T70 288Q70 403 126 500T278 653T490 710Q582 710 651 674T757 570T795 411Q795 297 739 200T587 47T376 -10Q284 -10 215 26ZM474 54T552 101T675 230T720 410Q720
521 658 583T486 646Q391 646 313 599T191 469T146 289Q146 178 207 116T379 54Q474 54 552 101ZM392 805T380 817T367 846Q367 869 385 886T428 904Q445 904 456 892T468 863Q468 841 450 823T410 805Q392 805 380 817ZM599 805T587 817T574 846Q574 868 593 886T635
904Q653 904 664 892T676 862Q676 840 658 823T617 805Q599 805 587 817Z" />
<glyph unicode="&#xd7;" glyph-name="multiply" horiz-adv-x="508" d="M483 423T483 413Q483 397 464 381L300 241L414 100Q423 89 423 77Q423 62 408 50Q398 41 385 41Q368 41 357 55L245 194L82 55Q64 40 51 40Q41 40 30 51Q22 61 22 69Q22 84 41 100L206 241L94
380Q84 393 84 403Q84 416 99 429Q113 440 124 440Q139 440 151 425L262 288L423 426Q440 440 456 440Q467 440 476 431Q483 423 483 413Z" />
<glyph unicode="&#xd8;" glyph-name="Oslash" horiz-adv-x="816" d="M720 628T755 565T790 421Q790 301 735 202T582 47T367 -10Q300 -10 244 11L205 -50Q200 -58 191 -63T171 -69Q160 -69 151 -61T142 -43Q142 -33 148 -24L188 39Q130 77 98 139T65 279Q65 400
120 498T271 653T486 710Q551 710 602 691L640 751Q645 759 654 764T674 770Q686 770 695 762T704 744Q704 738 698 728L658 665Q720 628 755 565ZM140 220T162 173T225 97L566 634Q526 646 477 646Q383 646 306 598T185 467T140 281Q140 220 162 173ZM471 54T548
102T670 233T714 419Q714 483 691 531T622 608L280 69Q322 54 375 54Q471 54 548 102Z" />
<glyph unicode="&#xd9;" glyph-name="Ugrave" horiz-adv-x="746" d="M216 -10T148 51T80 219Q80 249 86 283L155 670Q159 690 170 700T199 710Q213 710 222 702T232 679Q232 673 231 670L161 280Q155 246 155 216Q155 54 338 54Q448 54 513 111T599 280L668 670Q671
689 683 699T713 710Q728 710 736 703T744 680Q744 674 743 670L674 283Q649 144 560 67T337 -10Q216 -10 148 51ZM480 785T474 785Q457 785 451 802L397 940Q394 948 394 954Q394 976 419 987Q429 992 440 992Q459 992 467 964L504 823Q505 820 505 814Q505 795
486 788Q480 785 474 785Z" />
<glyph unicode="&#xda;" glyph-name="Uacute" horiz-adv-x="746" d="M216 -10T148 51T80 219Q80 249 86 283L155 670Q159 690 170 700T199 710Q213 710 222 702T232 679Q232 673 231 670L161 280Q155 246 155 216Q155 54 338 54Q448 54 513 111T599 280L668 670Q671
689 683 699T713 710Q728 710 736 703T744 680Q744 674 743 670L674 283Q649 144 560 67T337 -10Q216 -10 148 51ZM448 794T448 805Q448 814 454 823L541 964Q559 992 579 992Q589 992 597 987Q613 978 613 964Q613 955 603 940L500 802Q486 785 471 785Q465 785
460 788Q448 794 448 805Z" />
<glyph unicode="&#xdb;" glyph-name="Ucircumflex" horiz-adv-x="746" d="M216 -10T148 51T80 219Q80 249 86 283L155 670Q159 690 170 700T199 710Q213 710 222 702T232 679Q232 673 231 670L161 280Q155 246 155 216Q155 54 338 54Q448 54 513 111T599 280L668
670Q671 689 683 699T713 710Q728 710 736 703T744 680Q744 674 743 670L674 283Q649 144 560 67T337 -10Q216 -10 148 51ZM327 800T327 811Q327 825 341 839L469 965Q486 982 504 982Q523 982 534 965L617 839Q623 830 623 821Q623 804 604 791Q593 784 583 784Q566
784 556 803L492 915L389 803Q369 783 354 783Q346 783 337 790Q327 800 327 811Z" />
<glyph unicode="&#xdc;" glyph-name="Udieresis" horiz-adv-x="746" d="M216 -10T148 51T80 219Q80 249 86 283L155 670Q159 690 170 700T199 710Q213 710 222 702T232 679Q232 673 231 670L161 280Q155 246 155 216Q155 54 338 54Q448 54 513 111T599 280L668
670Q671 689 683 699T713 710Q728 710 736 703T744 680Q744 674 743 670L674 283Q649 144 560 67T337 -10Q216 -10 148 51ZM351 805T339 817T326 846Q326 869 344 886T387 904Q404 904 415 892T427 863Q427 841 409 823T369 805Q351 805 339 817ZM558 805T546 817T533
846Q533 868 552 886T594 904Q612 904 623 892T635 862Q635 840 617 823T576 805Q558 805 546 817Z" />
<glyph unicode="&#xdd;" glyph-name="Yacute" horiz-adv-x="705" d="M704 710T713 703T722 680Q722 674 721 670L698 545Q673 410 591 326T389 230L354 30Q351 12 339 1T308 -10Q293 -10 285 -3T277 20Q277 26 278 30L314 230Q218 241 163 306T107 474Q107 501
114 545L136 670Q139 688 150 699T180 710Q196 710 204 702T213 679Q213 673 212 670L189 542Q182 503 182 466Q182 292 362 292Q465 292 533 356T623 542L645 670Q648 689 660 699T690 710Q704 710 713 703ZM428 794T428 805Q428 814 434 823L521 964Q539 992
559 992Q569 992 577 987Q593 978 593 964Q593 955 583 940L480 802Q466 785 451 785Q445 785 440 788Q428 794 428 805Z" />
<glyph unicode="&#xde;" glyph-name="Thorn" horiz-adv-x="627" d="M55 -10T47 -2T39 21Q39 27 40 30L153 671Q161 711 197 711Q213 711 221 703T230 680Q230 674 229 671L213 581H403Q494 581 547 535T600 410Q600 337 567 279T475 188T342 155H137L115 30Q111
10 99 0T70 -10Q55 -10 47 -2ZM343 218Q396 218 437 242T501 309T524 409Q524 518 396 518H201L148 218H343Z" />
<glyph unicode="&#xdf;" glyph-name="germandbls" horiz-adv-x="643" d="M278 -11T238 5T180 48Q174 56 174 67Q174 82 190 94Q202 102 212 102Q220 102 226 99T241 87Q257 71 282 62T335 52Q415 52 464 106T514 251Q514 370 349 370H305Q270 370 270 393Q270
430 316 430H373Q435 430 475 471T516 577Q516 623 479 649T378 676Q304 676 256 636T195 522L107 28Q105 17 94 8T67 -1Q52 -1 42 8T34 28L123 528Q140 625 211 682T385 739Q444 739 491 720T564 665T591 586Q591 523 559 477T464 405L463 403Q524 389 556 350T589
255Q589 178 555 118T461 23T324 -11Q278 -11 238 5Z" />
<glyph unicode="&#xe0;" glyph-name="agrave" horiz-adv-x="584" d="M129 -10T79 27T29 126Q29 182 59 225T146 291T275 315Q330 315 375 299T443 256L455 320Q458 335 458 349Q458 437 327 437Q234 437 158 393Q140 383 130 383Q119 383 111 390T103 408Q103
417 107 425T120 439Q161 468 218 484T336 500Q428 500 479 461T530 352Q530 336 527 318L477 29Q470 -10 433 -10Q403 -10 403 17Q403 24 404 28L411 64Q336 -10 211 -10Q129 -10 79 27ZM287 51T332 66T402 109T427 171Q427 211 386 233T269 255Q192 255 148 222T103
132Q103 92 135 72T231 51Q287 51 332 66ZM367 575T361 575Q344 575 338 592L284 730Q281 738 281 744Q281 766 306 777Q316 782 327 782Q346 782 354 754L391 613Q392 610 392 604Q392 585 373 578Q367 575 361 575Z" />
<glyph unicode="&#xe1;" glyph-name="aacute" horiz-adv-x="584" d="M129 -10T79 27T29 126Q29 182 59 225T146 291T275 315Q330 315 375 299T443 256L455 320Q458 335 458 349Q458 437 327 437Q234 437 158 393Q140 383 130 383Q119 383 111 390T103 408Q103
417 107 425T120 439Q161 468 218 484T336 500Q428 500 479 461T530 352Q530 336 527 318L477 29Q470 -10 433 -10Q403 -10 403 17Q403 24 404 28L411 64Q336 -10 211 -10Q129 -10 79 27ZM287 51T332 66T402 109T427 171Q427 211 386 233T269 255Q192 255 148 222T103
132Q103 92 135 72T231 51Q287 51 332 66ZM335 584T335 595Q335 604 341 613L428 754Q446 782 466 782Q476 782 484 777Q500 768 500 754Q500 745 490 730L387 592Q373 575 358 575Q352 575 347 578Q335 584 335 595Z" />
<glyph unicode="&#xe2;" glyph-name="acircumflex" horiz-adv-x="584" d="M129 -10T79 27T29 126Q29 182 59 225T146 291T275 315Q330 315 375 299T443 256L455 320Q458 335 458 349Q458 437 327 437Q234 437 158 393Q140 383 130 383Q119 383 111 390T103 408Q103
417 107 425T120 439Q161 468 218 484T336 500Q428 500 479 461T530 352Q530 336 527 318L477 29Q470 -10 433 -10Q403 -10 403 17Q403 24 404 28L411 64Q336 -10 211 -10Q129 -10 79 27ZM287 51T332 66T402 109T427 171Q427 211 386 233T269 255Q192 255 148 222T103
132Q103 92 135 72T231 51Q287 51 332 66ZM214 590T214 601Q214 615 228 629L356 755Q373 772 391 772Q410 772 421 755L504 629Q510 620 510 611Q510 594 491 581Q480 574 470 574Q453 574 443 593L379 705L276 593Q256 573 241 573Q233 573 224 580Q214 590 214
601Z" />
<glyph unicode="&#xe3;" glyph-name="atilde" horiz-adv-x="584" d="M129 -10T79 27T29 126Q29 182 59 225T146 291T275 315Q330 315 375 299T443 256L455 320Q458 335 458 349Q458 437 327 437Q234 437 158 393Q140 383 130 383Q119 383 111 390T103 408Q103
417 107 425T120 439Q161 468 218 484T336 500Q428 500 479 461T530 352Q530 336 527 318L477 29Q470 -10 433 -10Q403 -10 403 17Q403 24 404 28L411 64Q336 -10 211 -10Q129 -10 79 27ZM287 51T332 66T402 109T427 171Q427 211 386 233T269 255Q192 255 148 222T103
132Q103 92 135 72T231 51Q287 51 332 66ZM194 601T194 613Q194 621 200 633Q215 667 243 689T308 711Q332 711 349 703T388 678Q403 666 413 660T437 654Q470 654 490 696Q500 717 519 717Q544 717 544 698Q544 690 539 680Q523 644 495 623T430 601Q408 601 393
608T356 632Q340 645 328 651T301 658Q270 658 249 617Q238 595 220 595Q213 595 209 596Q194 601 194 613Z" />
<glyph unicode="&#xe4;" glyph-name="adieresis" horiz-adv-x="584" d="M129 -10T79 27T29 126Q29 182 59 225T146 291T275 315Q330 315 375 299T443 256L455 320Q458 335 458 349Q458 437 327 437Q234 437 158 393Q140 383 130 383Q119 383 111 390T103 408Q103
417 107 425T120 439Q161 468 218 484T336 500Q428 500 479 461T530 352Q530 336 527 318L477 29Q470 -10 433 -10Q403 -10 403 17Q403 24 404 28L411 64Q336 -10 211 -10Q129 -10 79 27ZM287 51T332 66T402 109T427 171Q427 211 386 233T269 255Q192 255 148 222T103
132Q103 92 135 72T231 51Q287 51 332 66ZM238 595T226 607T213 636Q213 659 231 676T274 694Q291 694 302 682T314 653Q314 631 296 613T256 595Q238 595 226 607ZM445 595T433 607T420 636Q420 658 439 676T481 694Q499 694 510 682T522 652Q522 630 504 613T463
595Q445 595 433 607Z" />
<glyph unicode="&#xe5;" glyph-name="aring" horiz-adv-x="584" d="M129 -10T79 27T29 126Q29 182 59 225T146 291T275 315Q330 315 375 299T443 256L455 320Q458 335 458 349Q458 437 327 437Q234 437 158 393Q140 383 130 383Q119 383 111 390T103 408Q103 417
107 425T120 439Q161 468 218 484T336 500Q428 500 479 461T530 352Q530 336 527 318L477 29Q470 -10 433 -10Q403 -10 403 17Q403 24 404 28L411 64Q336 -10 211 -10Q129 -10 79 27ZM287 51T332 66T402 109T427 171Q427 211 386 233T269 255Q192 255 148 222T103
132Q103 92 135 72T231 51Q287 51 332 66ZM307 545T281 568T254 629Q254 662 272 690T320 734T388 750Q433 750 458 727T484 666Q484 633 467 605T419 561T352 545Q307 545 281 568ZM390 591T411 610T432 660Q432 681 418 693T380 705Q349 705 329 686T309 636Q309
615 322 603T360 591Q390 591 411 610Z" />
<glyph unicode="&#xe6;" glyph-name="ae" horiz-adv-x="1009" d="M128 -10T79 27T29 128Q29 186 61 231T150 302T278 328Q334 328 378 313T444 269L451 302Q454 316 454 326Q454 375 419 406T327 437Q281 437 241 426T157 391Q141 382 130 382Q117 382 108 392Q102
398 102 409Q102 417 107 425T119 438Q162 467 219 483T335 500Q397 500 442 471T505 392Q543 442 607 471T745 500Q813 500 865 479T947 418T976 330Q976 278 948 248T870 217H507Q504 201 504 182Q504 121 548 88T673 54Q728 54 773 68T860 113Q881 128 893 128Q903
128 911 120Q919 112 919 101Q919 86 904 74Q805 -9 664 -9Q593 -9 541 16T462 90Q375 -10 213 -10Q128 -10 79 27ZM858 276Q881 276 892 287T903 331Q903 381 859 409T734 437Q650 437 592 394T520 276H858ZM287 51T332 67T402 113T428 180Q428 222 387 245T270
268Q195 268 150 232T104 137Q104 95 136 73T231 51Q287 51 332 67Z" />
<glyph unicode="&#xe7;" glyph-name="ccedilla" horiz-adv-x="596" d="M569 411T569 400Q569 381 552 370Q542 363 532 363Q518 363 505 379Q483 404 451 420T357 437Q285 437 231 407T148 325T119 209Q119 133 163 93T293 53Q347 53 383 68T459 114Q481 130 493
130Q502 130 512 122Q523 112 523 102Q523 88 507 72Q475 39 421 17T302 -9L300 -12L269 -57Q304 -56 322 -71T341 -113Q341 -155 309 -183T227 -211Q193 -211 168 -197T132 -161Q128 -154 128 -148Q128 -137 143 -126Q152 -120 159 -120Q169 -120 176 -132Q184
-146 198 -154T233 -162Q256 -162 270 -150T284 -116Q284 -89 253 -89Q245 -89 240 -90Q227 -92 218 -86T209 -69Q209 -60 214 -52L243 -8Q154 2 100 58T45 209Q45 291 84 357T193 462T354 500Q431 500 488 476T564 418Q569 411 569 400Z" />
<glyph unicode="&#xe8;" glyph-name="egrave" horiz-adv-x="628" d="M169 -9T106 47T43 203Q43 290 81 357T190 462T349 500Q419 500 474 478T562 417T594 328Q594 278 565 248T488 217H118Q116 206 116 186Q116 122 161 88T292 54Q342 54 384 66T470 107Q493
122 505 122Q513 122 520 115Q530 105 530 96Q530 84 514 68Q480 34 417 13T282 -9Q169 -9 106 47ZM476 276Q497 276 508 287T519 320Q519 373 474 405T353 437Q263 437 204 394T130 276H476ZM382 575T376 575Q359 575 353 592L299 730Q296 738 296 744Q296 766
321 777Q331 782 342 782Q361 782 369 754L406 613Q407 610 407 604Q407 585 388 578Q382 575 376 575Z" />
<glyph unicode="&#xe9;" glyph-name="eacute" horiz-adv-x="628" d="M169 -9T106 47T43 203Q43 290 81 357T190 462T349 500Q419 500 474 478T562 417T594 328Q594 278 565 248T488 217H118Q116 206 116 186Q116 122 161 88T292 54Q342 54 384 66T470 107Q493
122 505 122Q513 122 520 115Q530 105 530 96Q530 84 514 68Q480 34 417 13T282 -9Q169 -9 106 47ZM476 276Q497 276 508 287T519 320Q519 373 474 405T353 437Q263 437 204 394T130 276H476ZM350 584T350 595Q350 604 356 613L443 754Q461 782 481 782Q491 782
499 777Q515 768 515 754Q515 745 505 730L402 592Q388 575 373 575Q367 575 362 578Q350 584 350 595Z" />
<glyph unicode="&#xea;" glyph-name="ecircumflex" horiz-adv-x="628" d="M169 -9T106 47T43 203Q43 290 81 357T190 462T349 500Q419 500 474 478T562 417T594 328Q594 278 565 248T488 217H118Q116 206 116 186Q116 122 161 88T292 54Q342 54 384 66T470 107Q493
122 505 122Q513 122 520 115Q530 105 530 96Q530 84 514 68Q480 34 417 13T282 -9Q169 -9 106 47ZM476 276Q497 276 508 287T519 320Q519 373 474 405T353 437Q263 437 204 394T130 276H476ZM229 590T229 601Q229 615 243 629L371 755Q388 772 406 772Q425 772
436 755L519 629Q525 620 525 611Q525 594 506 581Q495 574 485 574Q468 574 458 593L394 705L291 593Q271 573 256 573Q248 573 239 580Q229 590 229 601Z" />
<glyph unicode="&#xeb;" glyph-name="edieresis" horiz-adv-x="628" d="M169 -9T106 47T43 203Q43 290 81 357T190 462T349 500Q419 500 474 478T562 417T594 328Q594 278 565 248T488 217H118Q116 206 116 186Q116 122 161 88T292 54Q342 54 384 66T470 107Q493
122 505 122Q513 122 520 115Q530 105 530 96Q530 84 514 68Q480 34 417 13T282 -9Q169 -9 106 47ZM476 276Q497 276 508 287T519 320Q519 373 474 405T353 437Q263 437 204 394T130 276H476ZM253 595T241 607T228 636Q228 659 246 676T289 694Q306 694 317 682T329
653Q329 631 311 613T271 595Q253 595 241 607ZM460 595T448 607T435 636Q435 658 454 676T496 694Q514 694 525 682T537 652Q537 630 519 613T478 595Q460 595 448 607Z" />
<glyph unicode="&#xec;" glyph-name="igrave" horiz-adv-x="258" d="M54 -10T54 19Q54 26 55 30L131 460Q134 479 145 489T174 500Q188 500 196 493T205 470Q205 464 204 460L128 30Q125 12 114 1T84 -10Q54 -10 54 19ZM191 555T185 555Q168 555 162 572L108 710Q105
718 105 724Q105 746 130 757Q140 762 151 762Q170 762 178 734L215 593Q216 590 216 584Q216 565 197 558Q191 555 185 555Z" />
<glyph unicode="&#xed;" glyph-name="iacute" horiz-adv-x="258" d="M54 -10T54 19Q54 26 55 30L131 460Q134 479 145 489T174 500Q188 500 196 493T205 470Q205 464 204 460L128 30Q125 12 114 1T84 -10Q54 -10 54 19ZM164 564T164 575Q164 584 170 593L257 734Q275
762 295 762Q306 762 313 757Q329 748 329 734Q329 725 319 710L216 572Q202 555 187 555Q180 555 176 558Q164 564 164 575Z" />
<glyph unicode="&#xee;" glyph-name="icircumflex" horiz-adv-x="258" d="M54 -10T54 19Q54 26 55 30L131 460Q134 479 145 489T174 500Q188 500 196 493T205 470Q205 464 204 460L128 30Q125 12 114 1T84 -10Q54 -10 54 19ZM43 570T43 581Q43 595 57 609L185
735Q202 752 220 752Q238 752 249 735L333 609Q339 600 339 591Q339 574 320 561Q309 554 299 554Q282 554 272 573L208 685L104 573Q85 554 69 554Q61 554 53 560Q43 570 43 581Z" />
<glyph unicode="&#xef;" glyph-name="idieresis" horiz-adv-x="258" d="M54 -10T54 19Q54 26 55 30L131 460Q134 479 145 489T174 500Q188 500 196 493T205 470Q205 464 204 460L128 30Q125 12 114 1T84 -10Q54 -10 54 19ZM67 575T55 587T43 616Q43 639 61 656T104
674Q121 674 132 662T144 633Q144 611 126 593T86 575Q67 575 55 587ZM275 575T263 587T250 616Q250 638 269 656T311 674Q329 674 340 662T352 632Q352 610 334 593T293 575Q275 575 263 587Z" />
<glyph unicode="&#xf0;" glyph-name="eth" horiz-adv-x="657" d="M633 728T640 722T648 705Q648 692 633 679L561 616Q630 541 630 426Q630 302 584 203T456 47T271 -10Q169 -10 109 43T49 186Q49 268 87 332T192 433T346 470Q420 470 475 436T555 339L557 340Q564
398 564 424Q564 517 512 572L454 521Q441 510 426 510Q416 510 409 517T402 533Q402 547 417 560L470 606Q434 630 370 654Q360 658 356 662T352 675Q352 684 361 698Q372 715 391 715Q400 715 407 713T416 709Q479 685 522 651L598 717Q611 728 623 728Q633 728
640 722ZM341 54T394 82T478 157T510 260Q510 324 463 364T340 405Q277 405 228 378T152 301T124 189Q124 124 164 89T279 54Q341 54 394 82Z" />
<glyph unicode="&#xf1;" glyph-name="ntilde" horiz-adv-x="619" d="M36 -10T36 19Q36 26 37 30L113 460Q116 478 126 489T155 500Q186 500 186 471Q186 464 185 460L174 401Q268 500 396 500Q476 500 519 460T562 344Q562 318 558 295L512 30Q509 12 498 1T467
-10Q438 -10 438 18Q438 26 439 30L485 295Q490 323 490 341Q490 388 464 412T377 437Q288 437 226 385T149 247L110 30Q107 12 96 1T66 -10Q36 -10 36 19ZM208 601T208 613Q208 621 214 633Q229 667 257 689T322 711Q346 711 363 703T402 678Q417 666 427 660T451
654Q484 654 504 696Q514 717 533 717Q558 717 558 698Q558 690 553 680Q537 644 509 623T444 601Q422 601 407 608T370 632Q354 645 342 651T315 658Q284 658 263 617Q252 595 234 595Q227 595 223 596Q208 601 208 613Z" />
<glyph unicode="&#xf2;" glyph-name="ograve" horiz-adv-x="645" d="M213 -10T160 16T76 91T46 201Q46 286 87 354T201 461T365 500Q435 500 488 474T571 399T601 289Q601 204 560 136T447 29T282 -10Q213 -10 160 16ZM359 53T413 83T497 167T527 289Q527 359
482 398T358 437Q289 437 235 407T151 324T120 203Q120 133 165 93T291 53Q359 53 413 83ZM394 575T388 575Q371 575 365 592L311 730Q308 738 308 744Q308 766 333 777Q343 782 354 782Q373 782 381 754L418 613Q419 610 419 604Q419 585 400 578Q394 575 388
575Z" />
<glyph unicode="&#xf3;" glyph-name="oacute" horiz-adv-x="645" d="M213 -10T160 16T76 91T46 201Q46 286 87 354T201 461T365 500Q435 500 488 474T571 399T601 289Q601 204 560 136T447 29T282 -10Q213 -10 160 16ZM359 53T413 83T497 167T527 289Q527 359
482 398T358 437Q289 437 235 407T151 324T120 203Q120 133 165 93T291 53Q359 53 413 83ZM362 584T362 595Q362 604 368 613L455 754Q473 782 493 782Q503 782 511 777Q527 768 527 754Q527 745 517 730L414 592Q400 575 385 575Q379 575 374 578Q362 584 362
595Z" />
<glyph unicode="&#xf4;" glyph-name="ocircumflex" horiz-adv-x="645" d="M213 -10T160 16T76 91T46 201Q46 286 87 354T201 461T365 500Q435 500 488 474T571 399T601 289Q601 204 560 136T447 29T282 -10Q213 -10 160 16ZM359 53T413 83T497 167T527 289Q527
359 482 398T358 437Q289 437 235 407T151 324T120 203Q120 133 165 93T291 53Q359 53 413 83ZM241 590T241 601Q241 615 255 629L383 755Q400 772 418 772Q437 772 448 755L531 629Q537 620 537 611Q537 594 518 581Q507 574 497 574Q480 574 470 593L406 705L303
593Q283 573 268 573Q260 573 251 580Q241 590 241 601Z" />
<glyph unicode="&#xf5;" glyph-name="otilde" horiz-adv-x="645" d="M213 -10T160 16T76 91T46 201Q46 286 87 354T201 461T365 500Q435 500 488 474T571 399T601 289Q601 204 560 136T447 29T282 -10Q213 -10 160 16ZM359 53T413 83T497 167T527 289Q527 359
482 398T358 437Q289 437 235 407T151 324T120 203Q120 133 165 93T291 53Q359 53 413 83ZM221 601T221 613Q221 621 227 633Q242 667 270 689T335 711Q359 711 376 703T415 678Q430 666 440 660T464 654Q497 654 517 696Q527 717 546 717Q571 717 571 698Q571
690 566 680Q550 644 522 623T457 601Q435 601 420 608T383 632Q367 645 355 651T328 658Q297 658 276 617Q265 595 247 595Q240 595 236 596Q221 601 221 613Z" />
<glyph unicode="&#xf6;" glyph-name="odieresis" horiz-adv-x="645" d="M213 -10T160 16T76 91T46 201Q46 286 87 354T201 461T365 500Q435 500 488 474T571 399T601 289Q601 204 560 136T447 29T282 -10Q213 -10 160 16ZM359 53T413 83T497 167T527 289Q527 359
482 398T358 437Q289 437 235 407T151 324T120 203Q120 133 165 93T291 53Q359 53 413 83ZM265 595T253 607T240 636Q240 659 258 676T301 694Q318 694 329 682T341 653Q341 631 323 613T283 595Q265 595 253 607ZM472 595T460 607T447 636Q447 658 466 676T508
694Q526 694 537 682T549 652Q549 630 531 613T490 595Q472 595 460 607Z" />
<glyph unicode="&#xf7;" glyph-name="divide" horiz-adv-x="508" d="M252 343T241 354T229 384Q229 409 245 424T287 440Q306 440 317 429T329 400Q329 375 313 359T270 343Q252 343 241 354ZM77 212T69 218T60 237Q60 256 72 265T106 275H415Q449 275 449 251Q449
233 437 223T403 212H94Q77 212 69 218ZM199 47T188 58T177 86Q177 112 193 128T234 144Q253 144 265 133T277 102Q277 78 260 63T217 47Q199 47 188 58Z" />
<glyph unicode="&#xf8;" glyph-name="oslash" horiz-adv-x="655" d="M552 443T579 395T606 288Q606 265 602 245Q582 134 503 62T287 -10Q241 -10 202 2L170 -49Q164 -59 155 -64T136 -70Q123 -70 115 -63T107 -45Q107 -35 113 -26L146 26Q100 54 76 100T51 201Q51
225 55 245Q75 356 154 428T370 500Q408 500 443 492L474 540Q479 549 488 554T507 560Q514 560 520 557Q536 550 536 535Q536 527 530 516L501 470Q552 443 579 395ZM125 223T125 202Q125 122 183 83L406 434Q386 437 363 437Q271 437 208 386T129 243Q125 223
125 202ZM532 267T532 289Q532 331 515 363T465 413L239 59Q265 53 296 53Q386 53 449 104T528 247Q532 267 532 289Z" />
<glyph unicode="&#xf9;" glyph-name="ugrave" horiz-adv-x="620" d="M152 -10T106 34T59 154Q59 179 63 202L109 460Q113 480 124 490T153 500Q183 500 183 471Q183 464 182 460L137 202Q132 174 132 155Q132 103 162 78T254 53Q337 53 396 106T471 243L510 460Q514
480 525 490T554 500Q568 500 576 493T585 471Q585 464 584 460L508 30Q501 -10 464 -10Q434 -10 434 19Q434 26 435 30L445 89Q401 41 347 16T234 -10Q152 -10 106 34ZM379 575T373 575Q356 575 350 592L296 730Q293 738 293 744Q293 766 318 777Q328 782 339
782Q358 782 366 754L403 613Q404 610 404 604Q404 585 385 578Q379 575 373 575Z" />
<glyph unicode="&#xfa;" glyph-name="uacute" horiz-adv-x="620" d="M152 -10T106 34T59 154Q59 179 63 202L109 460Q113 480 124 490T153 500Q183 500 183 471Q183 464 182 460L137 202Q132 174 132 155Q132 103 162 78T254 53Q337 53 396 106T471 243L510 460Q514
480 525 490T554 500Q568 500 576 493T585 471Q585 464 584 460L508 30Q501 -10 464 -10Q434 -10 434 19Q434 26 435 30L445 89Q401 41 347 16T234 -10Q152 -10 106 34ZM347 584T347 595Q347 604 353 613L440 754Q458 782 478 782Q488 782 496 777Q512 768 512
754Q512 745 502 730L399 592Q385 575 370 575Q364 575 359 578Q347 584 347 595Z" />
<glyph unicode="&#xfb;" glyph-name="ucircumflex" horiz-adv-x="620" d="M152 -10T106 34T59 154Q59 179 63 202L109 460Q113 480 124 490T153 500Q183 500 183 471Q183 464 182 460L137 202Q132 174 132 155Q132 103 162 78T254 53Q337 53 396 106T471 243L510
460Q514 480 525 490T554 500Q568 500 576 493T585 471Q585 464 584 460L508 30Q501 -10 464 -10Q434 -10 434 19Q434 26 435 30L445 89Q401 41 347 16T234 -10Q152 -10 106 34ZM226 590T226 601Q226 615 240 629L368 755Q385 772 403 772Q422 772 433 755L516
629Q522 620 522 611Q522 594 503 581Q492 574 482 574Q465 574 455 593L391 705L288 593Q268 573 253 573Q245 573 236 580Q226 590 226 601Z" />
<glyph unicode="&#xfc;" glyph-name="udieresis" horiz-adv-x="620" d="M152 -10T106 34T59 154Q59 179 63 202L109 460Q113 480 124 490T153 500Q183 500 183 471Q183 464 182 460L137 202Q132 174 132 155Q132 103 162 78T254 53Q337 53 396 106T471 243L510
460Q514 480 525 490T554 500Q568 500 576 493T585 471Q585 464 584 460L508 30Q501 -10 464 -10Q434 -10 434 19Q434 26 435 30L445 89Q401 41 347 16T234 -10Q152 -10 106 34ZM250 595T238 607T225 636Q225 659 243 676T286 694Q303 694 314 682T326 653Q326
631 308 613T268 595Q250 595 238 607ZM457 595T445 607T432 636Q432 658 451 676T493 694Q511 694 522 682T534 652Q534 630 516 613T475 595Q457 595 445 607Z" />
<glyph unicode="&#xfd;" glyph-name="yacute" horiz-adv-x="634" d="M140 -250T86 -229T9 -168Q5 -161 5 -154Q5 -144 10 -135T25 -121Q35 -115 46 -115Q64 -115 74 -130Q93 -158 131 -173T220 -188Q309 -188 371 -135T449 12L461 80Q423 39 372 18T262 -4Q161
-4 103 51T44 202Q44 234 49 259L85 463Q88 479 100 489T130 499Q145 499 154 489T160 463L124 259Q118 228 118 201Q118 128 157 92T273 56Q358 56 414 107T486 252L522 454Q530 500 570 500Q585 500 593 491T602 465Q602 457 601 453L524 17Q502 -107 419 -178T212
-250Q140 -250 86 -229ZM325 584T325 595Q325 604 331 613L418 754Q436 782 456 782Q466 782 474 777Q490 768 490 754Q490 745 480 730L377 592Q363 575 348 575Q342 575 337 578Q325 584 325 595Z" />
<glyph unicode="&#xfe;" glyph-name="thorn" horiz-adv-x="679" d="M0 -299T-8 -291T-16 -269Q-16 -262 -15 -259L163 750Q170 789 206 789Q238 789 238 761Q238 753 237 749L175 398Q267 500 404 500Q512 500 573 447T634 300Q634 209 595 139T484 29T320 -10Q253
-10 203 16T122 92L58 -259Q55 -277 44 -288T14 -299Q0 -299 -8 -291ZM393 53T446 83T530 169T560 297Q560 367 517 402T390 437Q319 437 263 408T176 326T144 208Q144 139 193 96T323 53Q393 53 446 83Z" />
<glyph unicode="&#xff;" glyph-name="ydieresis" horiz-adv-x="634" d="M140 -250T86 -229T9 -168Q5 -161 5 -154Q5 -144 10 -135T25 -121Q35 -115 46 -115Q64 -115 74 -130Q93 -158 131 -173T220 -188Q309 -188 371 -135T449 12L461 80Q423 39 372 18T262 -4Q161
-4 103 51T44 202Q44 234 49 259L85 463Q88 479 100 489T130 499Q145 499 154 489T160 463L124 259Q118 228 118 201Q118 128 157 92T273 56Q358 56 414 107T486 252L522 454Q530 500 570 500Q585 500 593 491T602 465Q602 457 601 453L524 17Q502 -107 419 -178T212
-250Q140 -250 86 -229ZM228 595T216 607T203 636Q203 659 221 676T264 694Q281 694 292 682T304 653Q304 631 286 613T246 595Q228 595 216 607ZM435 595T423 607T410 636Q410 658 429 676T471 694Q489 694 500 682T512 652Q512 630 494 613T453 595Q435 595 423
607Z" />
<glyph unicode="&#x2013;" glyph-name="endash" horiz-adv-x="673" d="M63 212T55 220T49 243Q55 275 94 275H590Q625 275 625 251Q625 234 614 223T579 212H83Q63 212 55 220Z" />
<glyph unicode="&#x2014;" glyph-name="emdash" horiz-adv-x="928" d="M63 212T55 220T49 243Q55 275 94 275H845Q880 275 880 251Q880 233 868 223T834 212H83Q63 212 55 220Z" />
<glyph unicode="&#x2018;" glyph-name="quoteleft" horiz-adv-x="238" d="M129 461T115 476T100 520Q100 562 132 612T217 702Q240 719 251 719Q260 719 266 710Q270 705 270 698Q270 685 252 673Q226 654 204 629T177 584Q185 586 190 586Q211 586 224 572T238
536L237 526Q232 496 211 479T157 461Q129 461 115 476Z" />
<glyph unicode="&#x2019;" glyph-name="quoteright" horiz-adv-x="240" d="M93 477T93 483Q93 495 110 507Q137 526 158 551T186 597Q176 595 172 595Q152 595 139 608T125 644Q125 677 148 698T206 719Q233 719 248 704T263 659Q263 615 231 566T144 477Q122
462 111 462Q104 462 98 469Q93 477 93 483Z" />
<glyph unicode="&#x201a;" glyph-name="quotesinglbase" horiz-adv-x="240" d="M-4 -144T-9 -137T-15 -123Q-15 -111 4 -98Q27 -82 50 -55T79 -9Q71 -11 66 -11Q47 -11 33 2T18 38Q18 71 41 92T99 114Q125 114 140 98T156 54Q156 11 123 -38T38 -127Q16 -144 4
-144Q-4 -144 -9 -137Z" />
<glyph unicode="&#x201c;" glyph-name="quotedblleft" horiz-adv-x="427" d="M132 461T118 476T103 520Q103 562 135 612T220 702Q243 719 254 719Q263 719 269 710Q273 705 273 698Q273 685 255 673Q227 654 207 629T180 584Q188 586 193 586Q214 586 227 572T241
536L240 526Q235 496 214 479T160 461Q132 461 118 476ZM316 461T301 477T285 521Q285 564 318 614T401 701Q427 719 437 719Q445 719 452 709Q456 701 456 698Q456 686 437 673Q412 655 390 629T362 584Q372 586 376 586Q396 586 409 572T423 536Q423 504 400
483T342 461Q316 461 301 477Z" />
<glyph unicode="&#x201d;" glyph-name="quotedblright" horiz-adv-x="429" d="M96 477T96 483Q96 495 113 507Q140 526 161 551T189 597Q179 595 175 595Q155 595 142 608T128 644Q128 677 151 698T209 719Q236 719 251 704T266 659Q266 615 234 566T147 477Q125
462 114 462Q107 462 101 469Q96 477 96 483ZM278 476T278 483Q278 494 297 508Q322 525 344 551T372 597Q362 595 358 595Q338 595 324 609T310 644Q310 651 311 655Q316 684 338 701T391 719Q419 719 434 703T449 660Q449 615 416 565T331 478Q307 462 297 462Q288
462 282 471Q278 476 278 483Z" />
<glyph unicode="&#x201e;" glyph-name="quotedblbase" horiz-adv-x="429" d="M-1 -144T-6 -137T-12 -123Q-12 -111 7 -98Q30 -82 53 -55T82 -9Q74 -11 69 -11Q50 -11 36 2T21 38Q21 71 44 92T102 114Q128 114 143 98T159 54Q159 11 126 -38T41 -127Q19 -144 7
-144Q-1 -144 -6 -137ZM181 -144T176 -137T171 -123Q171 -110 189 -98Q215 -80 236 -55T264 -9Q256 -11 251 -11Q231 -11 217 2T203 38Q203 71 226 92T285 114Q311 114 326 98T341 54Q341 12 309 -37T223 -127Q201 -144 189 -144Q181 -144 176 -137Z" />
<glyph unicode="&#x2022;" glyph-name="bullet" horiz-adv-x="306" d="M105 183T80 206T55 267Q55 299 72 326T118 370T181 386Q219 386 243 364T267 305Q267 272 250 244T205 200T145 183Q105 183 80 206Z" />
<glyph unicode="&#x2039;" glyph-name="guilsinglleft" horiz-adv-x="323" d="M213 45T203 45Q187 45 178 60L59 245Q52 256 54 266Q55 277 66 288L252 475Q265 488 280 488Q288 488 299 481Q311 472 311 456Q311 440 300 429L129 260L240 98Q244 93 244 84Q244
64 223 51Q213 45 203 45Z" />
<glyph unicode="&#x203a;" glyph-name="guilsinglright" horiz-adv-x="323" d="M21 64T21 79Q21 94 32 105L203 274L91 437Q87 442 87 451Q87 460 93 469T109 484Q118 490 128 490Q143 490 153 475L273 288Q279 277 277 265Q276 257 265 246L80 60Q67 47 52 47Q42
47 32 55Q21 64 21 79Z" />
</font>
</defs>
</svg>
